<svg id="svg" version="1.1" xmlns="http://www.w3.org/2000/svg" xmlns:xlink="http://www.w3.org/1999/xlink" width="400" height="400" viewBox="0, 0, 400,400"><g id="svgg"><path id="path0" d="M40.000 185.000 L 40.000 250.000 100.000 250.000 L 160.000 250.000 160.000 247.500 L 160.000 245.000 102.500 245.000 L 45.000 245.000 45.000 185.000 L 45.000 125.000 200.000 125.000 L 355.000 125.000 355.000 185.000 L 355.000 245.000 297.500 245.000 L 240.000 245.000 240.000 247.500 L 240.000 250.000 300.000 250.000 L 360.000 250.000 360.000 185.000 L 360.000 120.000 200.000 120.000 L 40.000 120.000 40.000 185.000 M273.167 162.827 C 270.600 163.750,269.672 165.675,269.669 170.083 C 269.667 172.388,269.599 172.667,269.041 172.667 C 267.367 172.667,267.087 176.081,268.745 176.272 L 269.657 176.377 269.745 186.105 L 269.833 195.833 271.000 196.115 C 271.725 196.289,272.514 196.261,273.083 196.039 L 274.000 195.683 274.000 186.026 L 274.000 176.368 275.750 176.267 L 277.500 176.167 277.605 174.893 C 277.745 173.185,277.238 172.667,275.425 172.667 L 273.932 172.667 274.049 169.806 C 274.185 166.512,274.669 165.809,276.565 166.160 C 277.756 166.380,278.333 165.741,278.333 164.200 C 278.333 162.740,275.501 161.987,273.167 162.827 M229.640 164.667 C 225.149 165.437,222.599 168.495,222.544 173.174 C 222.495 177.389,223.995 179.199,230.685 182.990 C 238.415 187.372,232.605 195.349,224.696 191.214 C 222.731 190.186,222.418 190.284,222.041 192.043 C 221.668 193.780,221.926 194.285,223.630 195.148 C 229.433 198.088,236.893 195.875,238.304 190.794 C 239.764 185.533,237.965 181.844,232.462 178.823 C 228.066 176.409,226.989 175.212,227.012 172.767 C 227.044 169.293,230.695 167.648,235.000 169.167 C 235.779 169.442,236.461 169.667,236.514 169.667 C 236.966 169.667,237.701 166.610,237.351 166.188 C 236.369 165.005,232.322 164.206,229.640 164.667 M102.917 165.003 C 102.375 165.341,102.333 166.448,102.333 180.505 L 102.333 195.643 103.056 196.030 C 104.128 196.604,114.068 196.239,115.904 195.559 C 122.311 193.185,123.065 183.443,117.079 180.372 L 115.943 179.789 117.178 178.847 C 121.512 175.542,120.864 167.941,116.061 165.742 C 113.929 164.766,104.178 164.218,102.917 165.003 M129.333 164.893 C 129.058 165.007,128.723 165.265,128.588 165.467 C 128.251 165.971,128.277 195.062,128.615 195.595 C 129.001 196.203,130.997 196.452,132.096 196.030 L 133.025 195.674 132.929 184.337 C 132.877 178.101,132.908 173.013,133.000 173.030 C 133.092 173.046,134.362 175.460,135.822 178.394 C 139.472 185.725,139.432 185.667,140.777 185.667 C 142.272 185.667,142.444 185.431,145.842 178.750 C 147.450 175.588,148.781 173.000,148.800 173.000 C 148.818 173.000,148.833 178.131,148.833 184.403 L 148.833 195.807 149.917 196.119 C 150.587 196.311,151.413 196.311,152.083 196.119 L 153.167 195.808 153.253 180.564 L 153.340 165.319 152.420 164.966 C 149.554 163.865,149.161 164.285,144.544 173.368 C 141.412 179.529,140.677 180.754,140.511 180.091 C 140.215 178.911,133.392 165.797,132.833 165.333 C 132.279 164.873,130.056 164.593,129.333 164.893 M113.151 168.805 C 114.776 169.484,115.366 170.578,115.377 172.933 C 115.396 176.842,114.103 178.121,109.965 178.283 L 107.000 178.400 107.000 173.366 L 107.000 168.333 109.511 168.333 C 110.923 168.333,112.516 168.540,113.151 168.805 M167.333 172.642 C 158.796 174.390,157.696 192.796,165.934 196.052 C 172.882 198.798,178.065 193.105,177.589 183.249 C 177.214 175.490,173.282 171.423,167.333 172.642 M192.494 172.790 C 191.940 173.036,191.007 173.783,190.421 174.451 C 189.173 175.873,189.000 175.928,189.000 174.908 C 189.000 173.663,188.085 172.638,187.147 172.832 C 184.347 173.410,184.570 173.206,184.849 174.932 C 184.988 175.794,185.139 180.822,185.183 186.104 C 185.274 196.811,185.136 196.167,187.333 196.167 C 189.566 196.167,189.473 196.542,189.501 187.401 C 189.533 177.304,189.958 176.250,193.788 176.775 C 195.223 176.972,195.288 176.943,195.638 175.940 C 196.559 173.298,194.960 171.697,192.494 172.790 M207.109 172.681 C 199.028 174.279,197.122 190.774,204.493 195.329 C 208.474 197.790,217.187 195.955,216.025 192.900 C 215.447 191.380,214.780 191.147,213.331 191.961 C 209.151 194.311,205.528 192.585,204.827 187.909 L 204.591 186.333 209.938 186.333 C 216.146 186.333,217.180 185.855,216.837 183.142 C 216.769 182.606,216.619 181.348,216.503 180.347 C 215.959 175.660,212.224 171.824,208.734 172.370 C 208.605 172.390,207.874 172.530,207.109 172.681 M249.957 172.659 C 246.043 173.355,244.667 174.492,245.598 176.261 C 246.333 177.658,246.408 177.667,249.167 176.662 C 253.049 175.248,255.498 176.308,255.884 179.569 L 256.086 181.275 254.126 181.499 C 247.198 182.291,244.348 184.672,244.348 189.667 C 244.348 195.951,250.572 198.863,255.127 194.709 C 255.655 194.228,256.145 193.983,256.216 194.167 C 256.976 196.148,257.559 196.420,259.833 195.860 C 260.683 195.651,260.678 180.195,259.827 177.157 C 258.842 173.640,254.800 171.797,249.957 172.659 M289.775 172.681 C 281.694 174.279,279.789 190.774,287.159 195.329 C 291.141 197.790,299.853 195.955,298.692 192.900 C 298.114 191.380,297.446 191.147,295.998 191.961 C 291.817 194.311,288.195 192.585,287.494 187.909 L 287.258 186.333 292.605 186.333 C 298.813 186.333,299.847 185.855,299.504 183.142 C 299.436 182.606,299.286 181.348,299.170 180.347 C 298.626 175.660,294.890 171.824,291.400 172.370 C 291.272 172.390,290.541 172.530,289.775 172.681 M170.678 176.506 C 174.151 178.302,174.151 190.698,170.678 192.494 C 167.358 194.211,165.315 191.731,165.066 185.679 C 164.758 178.203,166.969 174.588,170.678 176.506 M210.309 176.487 C 211.489 177.098,212.333 179.121,212.333 181.340 L 212.333 183.000 208.500 183.000 C 204.153 183.000,204.351 183.170,205.025 180.030 C 205.734 176.725,207.926 175.255,210.309 176.487 M292.975 176.487 C 294.156 177.098,295.000 179.121,295.000 181.340 L 295.000 183.000 291.167 183.000 C 286.820 183.000,287.018 183.170,287.691 180.030 C 288.400 176.725,290.592 175.255,292.975 176.487 M114.159 182.391 C 117.111 183.735,117.186 190.214,114.270 191.991 C 113.374 192.538,112.588 192.664,110.083 192.665 L 107.000 192.667 107.000 187.333 L 107.000 182.000 110.151 182.000 C 111.884 182.000,113.688 182.176,114.159 182.391 M256.000 187.632 L 256.000 190.598 254.840 191.616 C 251.699 194.374,248.401 192.873,248.736 188.838 C 248.968 186.039,250.778 184.715,254.417 184.681 L 256.000 184.667 256.000 187.632 M214.391 218.438 C 213.195 219.712,213.414 221.284,215.004 222.838 L 216.342 224.144 213.603 226.898 L 210.863 229.651 208.139 226.992 C 205.801 224.710,205.252 224.333,204.265 224.333 C 201.963 224.333,200.881 226.912,202.383 228.820 L 203.099 229.731 191.847 240.986 C 179.058 253.779,179.418 253.249,181.012 256.955 L 181.764 258.701 180.755 259.767 C 178.834 261.798,178.563 263.021,179.710 264.480 L 180.421 265.383 175.710 270.134 C 170.991 274.894,170.542 275.512,171.531 275.891 C 171.908 276.036,173.457 274.704,176.834 271.333 L 181.605 266.570 182.514 267.285 C 183.913 268.385,185.121 268.210,186.801 266.661 L 188.253 265.323 189.753 265.965 C 190.578 266.319,191.608 266.638,192.043 266.674 C 194.667 266.894,194.239 267.238,206.197 255.298 C 213.646 247.861,217.669 244.068,217.832 244.331 C 218.668 245.684,221.614 245.677,222.340 244.320 C 223.204 242.707,222.770 241.691,220.007 238.861 L 217.348 236.136 219.931 233.568 C 222.958 230.560,222.689 230.629,224.577 232.369 C 228.633 236.108,231.154 231.617,227.235 227.633 C 217.225 217.458,216.081 216.639,214.391 218.438 M222.241 224.750 C 226.738 229.217,227.677 230.313,227.597 231.000 C 227.418 232.534,226.448 231.889,221.112 226.688 C 214.949 220.681,214.788 220.490,215.345 219.819 C 216.128 218.876,216.841 219.386,222.241 224.750 M219.742 227.575 L 221.670 229.483 218.927 232.240 L 216.183 234.998 214.090 232.924 L 211.998 230.850 214.574 228.259 C 217.651 225.164,217.347 225.204,219.742 227.575 M213.103 234.277 C 221.363 242.560,221.893 243.252,220.418 243.819 C 219.651 244.113,203.333 227.819,203.333 226.759 C 203.333 224.806,204.738 225.886,213.103 234.277 M210.419 236.919 L 216.332 242.839 205.416 253.737 C 199.412 259.731,194.084 264.790,193.575 264.980 C 190.069 266.283,182.000 258.726,182.000 254.139 C 182.000 252.910,202.981 231.000,204.159 231.000 C 204.350 231.000,207.168 233.664,210.419 236.919 M203.651 234.519 C 203.303 234.938,203.393 235.192,204.178 236.012 C 205.225 237.105,205.919 237.267,206.218 236.488 C 206.622 235.435,204.342 233.686,203.651 234.519 M200.320 237.849 C 199.882 238.378,204.039 243.000,204.953 243.000 C 206.096 243.000,205.657 241.842,203.796 239.949 C 201.377 237.488,200.873 237.183,200.320 237.849 M197.007 241.158 C 196.579 241.674,198.150 243.667,198.985 243.667 C 199.811 243.667,199.721 242.593,198.814 241.647 C 197.741 240.526,197.570 240.480,197.007 241.158 M193.889 244.222 C 193.190 244.921,197.047 249.667,198.315 249.667 C 199.491 249.667,198.953 248.469,196.805 246.305 C 194.487 243.969,194.286 243.825,193.889 244.222 M190.556 247.556 C 189.886 248.225,191.277 250.333,192.389 250.333 C 193.152 250.333,193.020 249.224,192.148 248.313 C 191.173 247.296,190.930 247.181,190.556 247.556 M187.108 251.199 C 186.854 251.861,191.402 256.536,191.962 256.190 C 192.750 255.703,192.250 254.794,190.083 252.777 C 187.654 250.516,187.418 250.391,187.108 251.199 M183.667 254.604 C 183.667 255.370,185.492 257.147,185.973 256.850 C 186.571 256.480,186.380 255.494,185.562 254.725 C 184.619 253.839,183.667 253.779,183.667 254.604 M184.653 262.400 L 186.663 264.467 185.769 265.400 C 184.555 266.667,184.114 266.587,182.261 264.763 C 180.416 262.944,180.371 262.736,181.530 261.359 C 182.606 260.080,182.295 259.976,184.653 262.400 " stroke="none" fill="#ececec" fill-rule="evenodd"></path><path id="path1" d="M173.103 184.500 C 173.105 185.600,173.167 186.010,173.242 185.411 C 173.316 184.812,173.314 183.912,173.238 183.411 C 173.162 182.910,173.101 183.400,173.103 184.500 M121.091 187.333 C 121.091 188.158,121.156 188.496,121.235 188.083 C 121.315 187.671,121.315 186.996,121.235 186.583 C 121.156 186.171,121.091 186.508,121.091 187.333 M236.146 194.083 L 235.167 195.167 236.250 194.188 C 236.846 193.649,237.333 193.162,237.333 193.104 C 237.333 192.847,237.058 193.074,236.146 194.083 M221.167 221.667 C 223.177 223.683,224.897 225.333,224.989 225.333 C 225.080 225.333,223.510 223.683,221.500 221.667 C 219.490 219.650,217.770 218.000,217.678 218.000 C 217.586 218.000,219.156 219.650,221.167 221.667 M222.167 225.000 C 225.096 227.933,227.567 230.333,227.659 230.333 C 227.751 230.333,225.429 227.933,222.500 225.000 C 219.571 222.067,217.099 219.667,217.008 219.667 C 216.916 219.667,219.238 222.067,222.167 225.000 M215.000 223.167 C 215.622 223.808,216.206 224.333,216.297 224.333 C 216.389 224.333,215.955 223.808,215.333 223.167 C 214.711 222.525,214.128 222.000,214.036 222.000 C 213.944 222.000,214.378 222.525,215.000 223.167 M214.492 228.417 L 211.833 231.167 214.583 228.508 C 217.137 226.038,217.485 225.667,217.242 225.667 C 217.192 225.667,215.955 226.904,214.492 228.417 M219.500 227.667 C 220.589 228.767,221.554 229.667,221.646 229.667 C 221.737 229.667,220.922 228.767,219.833 227.667 C 218.745 226.567,217.779 225.667,217.688 225.667 C 217.596 225.667,218.411 226.567,219.500 227.667 M191.831 240.750 L 180.833 251.833 191.917 240.835 C 202.217 230.614,203.150 229.667,202.915 229.667 C 202.868 229.667,197.880 234.654,191.831 240.750 M193.165 241.750 L 182.500 252.500 193.250 241.835 C 203.241 231.924,204.150 231.000,203.915 231.000 C 203.868 231.000,199.030 235.838,193.165 241.750 M219.826 233.750 L 217.167 236.500 219.917 233.841 C 221.429 232.379,222.667 231.141,222.667 231.091 C 222.667 230.848,222.295 231.196,219.826 233.750 M223.000 231.104 C 223.000 231.162,223.487 231.649,224.083 232.188 L 225.167 233.167 224.188 232.083 C 223.275 231.074,223.000 230.847,223.000 231.104 M215.667 237.167 C 216.848 238.358,217.889 239.333,217.981 239.333 C 218.072 239.333,217.181 238.358,216.000 237.167 C 214.819 235.975,213.778 235.000,213.686 235.000 C 213.594 235.000,214.486 235.975,215.667 237.167 M196.667 246.167 C 197.848 247.358,198.889 248.333,198.981 248.333 C 199.072 248.333,198.181 247.358,197.000 246.167 C 195.819 244.975,194.778 244.000,194.686 244.000 C 194.594 244.000,195.486 244.975,196.667 246.167 M188.000 250.771 C 188.000 250.828,188.487 251.316,189.083 251.854 L 190.167 252.833 189.188 251.750 C 188.275 250.740,188.000 250.513,188.000 250.771 M188.833 254.000 C 189.922 255.100,190.887 256.000,190.979 256.000 C 191.071 256.000,190.255 255.100,189.167 254.000 C 188.078 252.900,187.113 252.000,187.021 252.000 C 186.929 252.000,187.745 252.900,188.833 254.000 M181.641 261.250 L 180.833 262.167 181.725 261.382 C 182.251 260.920,182.786 260.701,183.027 260.850 C 183.289 261.012,183.351 260.965,183.198 260.718 C 182.840 260.138,182.528 260.244,181.641 261.250 M187.146 266.417 L 186.167 267.500 187.250 266.521 C 187.846 265.983,188.333 265.495,188.333 265.438 C 188.333 265.180,188.058 265.407,187.146 266.417 M176.829 271.417 L 172.167 276.167 176.988 271.500 C 179.640 268.933,181.878 266.796,181.961 266.750 C 182.043 266.704,181.972 266.667,181.801 266.667 C 181.631 266.667,179.393 268.804,176.829 271.417 " stroke="none" fill="#cccccc" fill-rule="evenodd"></path><path id="path2" d="M102.153 180.500 C 102.153 188.750,102.197 192.077,102.250 187.894 C 102.303 183.711,102.303 176.961,102.250 172.894 C 102.197 168.827,102.153 172.250,102.153 180.500 M153.487 180.500 C 153.487 188.750,153.530 192.077,153.583 187.894 C 153.636 183.711,153.636 176.961,153.583 172.894 C 153.530 168.827,153.487 172.250,153.487 180.500 M107.132 173.333 C 107.132 175.992,107.184 177.079,107.248 175.750 C 107.311 174.421,107.311 172.246,107.248 170.917 C 107.184 169.587,107.132 170.675,107.132 173.333 M107.135 187.167 C 107.135 190.100,107.186 191.255,107.248 189.734 C 107.310 188.213,107.310 185.813,107.247 184.401 C 107.185 182.989,107.135 184.233,107.135 187.167 M165.091 184.333 C 165.091 185.158,165.156 185.496,165.235 185.083 C 165.315 184.671,165.315 183.996,165.235 183.583 C 165.156 183.171,165.091 183.508,165.091 184.333 M160.077 184.333 C 160.077 184.975,160.146 185.237,160.230 184.917 C 160.314 184.596,160.314 184.071,160.230 183.750 C 160.146 183.429,160.077 183.692,160.077 184.333 M199.751 184.500 C 199.754 185.233,199.823 185.494,199.902 185.079 C 199.982 184.665,199.979 184.065,199.896 183.746 C 199.812 183.427,199.747 183.767,199.751 184.500 M282.417 184.500 C 282.421 185.233,282.489 185.494,282.569 185.079 C 282.649 184.665,282.646 184.065,282.562 183.746 C 282.479 183.427,282.414 183.767,282.417 184.500 M222.000 222.167 C 224.102 224.275,225.897 226.000,225.989 226.000 C 226.081 226.000,224.436 224.275,222.333 222.167 C 220.231 220.058,218.436 218.333,218.344 218.333 C 218.253 218.333,219.898 220.058,222.000 222.167 M215.333 220.771 C 215.333 220.828,215.821 221.316,216.417 221.854 L 217.500 222.833 216.521 221.750 C 215.608 220.740,215.333 220.513,215.333 220.771 M221.833 227.333 C 224.211 229.717,226.232 231.667,226.324 231.667 C 226.415 231.667,224.545 229.717,222.167 227.333 C 219.789 224.950,217.768 223.000,217.676 223.000 C 217.585 223.000,219.455 224.950,221.833 227.333 M213.333 226.833 C 211.968 228.208,210.925 229.333,211.017 229.333 C 211.108 229.333,212.301 228.208,213.667 226.833 C 215.032 225.458,216.075 224.333,215.983 224.333 C 215.892 224.333,214.699 225.458,213.333 226.833 M218.667 232.167 C 217.301 233.542,216.258 234.667,216.350 234.667 C 216.442 234.667,217.634 233.542,219.000 232.167 C 220.366 230.792,221.408 229.667,221.317 229.667 C 221.225 229.667,220.032 230.792,218.667 232.167 M193.165 242.083 L 182.167 253.167 193.250 242.169 C 203.551 231.947,204.483 231.000,204.248 231.000 C 204.201 231.000,199.214 235.987,193.165 242.083 M214.667 233.500 C 215.289 234.142,215.872 234.667,215.964 234.667 C 216.056 234.667,215.622 234.142,215.000 233.500 C 214.378 232.858,213.794 232.333,213.703 232.333 C 213.611 232.333,214.045 232.858,214.667 233.500 M218.667 237.500 C 219.289 238.142,219.872 238.667,219.964 238.667 C 220.056 238.667,219.622 238.142,219.000 237.500 C 218.378 236.858,217.794 236.333,217.703 236.333 C 217.611 236.333,218.045 236.858,218.667 237.500 M202.000 240.833 C 203.181 242.025,204.222 243.000,204.314 243.000 C 204.406 243.000,203.514 242.025,202.333 240.833 C 201.152 239.642,200.111 238.667,200.019 238.667 C 199.928 238.667,200.819 239.642,202.000 240.833 M195.500 247.667 C 196.589 248.767,197.554 249.667,197.646 249.667 C 197.737 249.667,196.922 248.767,195.833 247.667 C 194.745 246.567,193.779 245.667,193.688 245.667 C 193.596 245.667,194.411 246.567,195.500 247.667 M189.500 252.000 C 190.216 252.733,190.877 253.333,190.969 253.333 C 191.060 253.333,190.549 252.733,189.833 252.000 C 189.117 251.267,188.456 250.667,188.365 250.667 C 188.273 250.667,188.784 251.267,189.500 252.000 M180.354 259.808 L 179.209 261.167 180.504 259.928 C 181.217 259.246,181.732 258.635,181.650 258.569 C 181.567 258.503,180.984 259.060,180.354 259.808 M175.496 270.083 L 170.833 274.833 175.583 270.171 C 179.996 265.840,180.484 265.333,180.246 265.333 C 180.197 265.333,178.060 267.471,175.496 270.083 " stroke="none" fill="#5c6464" fill-rule="evenodd"></path><path id="path3" d="M108.083 168.576 C 108.771 168.648,109.896 168.648,110.583 168.576 C 111.271 168.504,110.708 168.445,109.333 168.445 C 107.958 168.445,107.396 168.504,108.083 168.576 M274.917 176.569 C 275.329 176.648,276.004 176.648,276.417 176.569 C 276.829 176.489,276.492 176.424,275.667 176.424 C 274.842 176.424,274.504 176.489,274.917 176.569 M108.083 178.243 C 108.771 178.315,109.896 178.315,110.583 178.243 C 111.271 178.171,110.708 178.112,109.333 178.112 C 107.958 178.112,107.396 178.171,108.083 178.243 M177.776 184.500 C 177.778 185.783,177.838 186.267,177.910 185.576 C 177.982 184.884,177.981 183.834,177.907 183.243 C 177.834 182.651,177.775 183.217,177.776 184.500 M108.427 192.579 C 109.303 192.648,110.653 192.647,111.427 192.577 C 112.200 192.507,111.483 192.451,109.833 192.452 C 108.183 192.453,107.550 192.510,108.427 192.579 M206.000 224.758 C 206.000 224.809,207.162 225.971,208.583 227.342 L 211.167 229.833 208.675 227.250 C 206.361 224.851,206.000 224.515,206.000 224.758 M206.667 228.167 C 207.662 229.175,208.552 230.000,208.644 230.000 C 208.736 230.000,207.996 229.175,207.000 228.167 C 206.004 227.158,205.114 226.333,205.023 226.333 C 204.931 226.333,205.671 227.158,206.667 228.167 M211.333 235.500 C 215.822 239.992,219.570 243.667,219.662 243.667 C 219.753 243.667,216.156 239.992,211.667 235.500 C 207.178 231.008,203.430 227.333,203.338 227.333 C 203.247 227.333,206.844 231.008,211.333 235.500 M210.000 236.833 C 213.204 240.042,215.901 242.667,215.993 242.667 C 216.085 242.667,213.538 240.042,210.333 236.833 C 207.129 233.625,204.432 231.000,204.340 231.000 C 204.249 231.000,206.796 233.625,210.000 236.833 M201.333 237.438 C 201.333 237.495,201.821 237.983,202.417 238.521 L 203.500 239.500 202.521 238.417 C 201.608 237.407,201.333 237.180,201.333 237.438 M205.165 253.750 L 194.500 264.500 205.250 253.835 C 215.241 243.924,216.150 243.000,215.915 243.000 C 215.868 243.000,211.030 247.838,205.165 253.750 M206.165 255.417 L 195.167 266.500 206.250 255.502 C 216.551 245.281,217.483 244.333,217.248 244.333 C 217.201 244.333,212.214 249.321,206.165 255.417 " stroke="none" fill="#94949c" fill-rule="evenodd"></path><path id="path4" d="M0.000 200.000 L 0.000 400.000 200.000 400.000 L 400.000 400.000 400.000 200.000 L 400.000 0.000 200.000 0.000 L 0.000 0.000 0.000 200.000 M360.000 185.000 L 360.000 250.000 300.000 250.000 L 240.000 250.000 240.000 247.500 L 240.000 245.000 297.500 245.000 L 355.000 245.000 355.000 185.000 L 355.000 125.000 200.000 125.000 L 45.000 125.000 45.000 185.000 L 45.000 245.000 102.500 245.000 L 160.000 245.000 160.000 247.500 L 160.000 250.000 100.000 250.000 L 40.000 250.000 40.000 185.000 L 40.000 120.000 200.000 120.000 L 360.000 120.000 360.000 185.000 M277.667 162.773 C 279.508 163.721,278.479 166.757,276.429 166.424 C 274.727 166.148,274.333 166.832,274.333 170.064 L 274.333 172.667 275.964 172.667 C 277.752 172.667,278.000 172.926,278.000 174.794 C 278.000 176.230,277.479 176.667,275.767 176.667 L 274.333 176.667 274.333 186.100 C 274.333 196.731,274.432 196.333,271.786 196.333 C 269.425 196.333,269.508 196.672,269.443 186.667 C 269.411 181.808,269.374 177.571,269.359 177.250 C 269.345 176.920,269.073 176.667,268.733 176.667 C 267.836 176.667,267.333 175.994,267.333 174.794 C 267.333 173.214,267.643 172.667,268.536 172.667 C 268.974 172.667,269.340 172.479,269.349 172.250 C 269.606 165.388,269.856 164.519,271.984 163.084 C 273.270 162.218,276.270 162.053,277.667 162.773 M235.821 165.024 C 237.576 165.681,237.667 165.772,237.667 166.879 C 237.667 168.875,236.674 170.206,235.610 169.636 C 231.801 167.598,227.333 169.403,227.333 172.980 C 227.333 175.182,228.137 176.073,232.174 178.346 C 238.079 181.671,240.061 185.333,238.669 190.345 C 237.093 196.016,229.767 198.550,223.808 195.484 L 221.833 194.468 221.850 192.695 C 221.874 190.075,222.468 189.774,225.018 191.089 C 233.454 195.440,237.737 187.056,229.411 182.491 C 223.870 179.453,222.331 177.428,222.337 173.185 C 222.346 166.359,228.857 162.418,235.821 165.024 M115.039 165.005 C 120.689 166.575,122.233 174.927,117.598 178.844 C 116.994 179.355,116.665 179.828,116.866 179.897 C 122.663 181.873,122.910 192.060,117.236 195.205 C 114.978 196.456,103.257 196.924,102.432 195.796 C 101.878 195.039,101.796 166.337,102.345 165.311 C 102.740 164.573,112.626 164.335,115.039 165.005 M132.907 164.935 C 133.354 165.219,140.250 178.413,140.534 179.527 C 140.663 180.035,141.699 178.293,144.399 173.027 C 148.878 164.291,148.579 164.667,151.040 164.667 C 153.800 164.667,153.667 163.856,153.667 180.581 C 153.667 197.404,153.844 196.424,150.824 196.269 L 148.833 196.167 148.667 185.112 L 148.500 174.057 145.541 179.855 C 141.248 188.266,140.583 188.277,136.276 180.009 L 133.500 174.680 133.412 185.061 C 133.311 196.957,133.453 196.405,130.530 196.265 L 128.500 196.167 128.413 180.833 C 128.365 172.400,128.398 165.313,128.486 165.083 C 128.664 164.619,132.221 164.500,132.907 164.935 M107.333 173.300 L 107.333 178.000 109.974 178.000 C 117.252 178.000,117.629 168.996,110.362 168.717 L 107.333 168.600 107.333 173.300 M173.747 173.534 C 179.533 177.600,179.455 191.709,173.626 195.567 C 170.411 197.694,164.628 196.743,162.558 193.746 C 158.214 187.456,159.884 175.568,165.481 172.942 C 167.654 171.922,171.885 172.225,173.747 173.534 M195.896 173.341 C 196.815 175.268,195.681 177.482,194.019 177.005 C 193.180 176.765,192.637 176.808,191.862 177.175 C 189.905 178.104,189.849 178.373,189.667 187.667 L 189.500 196.167 188.027 196.272 C 187.216 196.330,186.204 196.289,185.777 196.182 L 185.000 195.987 184.997 186.910 C 184.996 181.918,184.839 176.873,184.649 175.699 C 184.242 173.193,184.368 172.989,186.468 172.753 C 188.210 172.556,188.858 172.929,189.159 174.299 L 189.361 175.218 190.823 173.756 C 192.627 171.952,195.136 171.747,195.896 173.341 M211.895 172.687 C 215.506 174.046,218.516 182.376,216.505 185.445 L 215.923 186.333 210.416 186.333 L 204.909 186.333 205.119 187.861 C 205.731 192.327,208.792 193.899,212.860 191.835 C 215.020 190.739,215.201 190.768,216.002 192.338 C 218.320 196.881,206.690 198.422,202.601 194.114 C 198.705 190.008,198.925 178.479,202.976 174.524 C 205.009 172.538,209.205 171.674,211.895 172.687 M255.759 172.687 C 259.651 173.768,260.305 175.484,260.471 185.053 C 260.545 189.332,260.712 193.457,260.841 194.218 C 261.229 196.510,257.424 197.394,256.401 195.249 L 255.963 194.332 254.614 195.416 C 251.671 197.781,246.392 196.713,244.818 193.435 C 241.946 187.455,245.755 182.033,253.250 181.431 L 255.667 181.237 255.667 179.760 C 255.667 176.531,252.700 175.445,248.547 177.152 L 246.593 177.955 245.797 177.096 C 242.933 174.006,249.710 171.007,255.759 172.687 M294.562 172.687 C 298.173 174.046,301.183 182.376,299.172 185.445 L 298.590 186.333 293.083 186.333 L 287.576 186.333 287.785 187.861 C 288.398 192.327,291.459 193.899,295.527 191.835 C 297.687 190.739,297.868 190.768,298.669 192.338 C 300.987 196.881,289.356 198.422,285.268 194.114 C 281.372 190.008,281.592 178.479,285.642 174.524 C 287.676 172.538,291.871 171.674,294.562 172.687 M167.006 177.276 C 164.589 179.693,164.631 189.789,167.066 191.838 C 170.406 194.648,172.833 191.559,172.833 184.500 C 172.833 177.396,170.178 174.104,167.006 177.276 M206.672 177.276 C 205.672 178.277,205.005 180.130,205.002 181.917 L 205.000 183.000 208.698 183.000 L 212.396 183.000 212.158 181.250 C 211.527 176.598,209.105 174.844,206.672 177.276 M289.339 177.276 C 288.339 178.277,287.672 180.130,287.669 181.917 L 287.667 183.000 291.365 183.000 L 295.063 183.000 294.825 181.250 C 294.193 176.598,291.772 174.844,289.339 177.276 M107.333 187.120 L 107.333 192.333 110.250 192.328 C 114.671 192.321,116.135 191.085,116.156 187.344 C 116.178 183.458,114.928 182.341,110.261 182.074 L 107.333 181.908 107.333 187.120 M253.243 185.013 C 249.975 185.562,248.355 187.498,248.869 190.239 C 249.360 192.855,252.540 193.537,254.682 191.485 C 255.774 190.440,256.262 184.611,255.250 184.706 C 255.021 184.727,254.118 184.865,253.243 185.013 M217.498 217.855 C 219.566 218.836,229.667 229.474,229.667 230.671 C 229.667 233.985,226.537 234.828,224.013 232.194 L 222.859 230.989 220.270 233.563 L 217.681 236.136 220.341 238.861 C 222.686 241.263,223.000 241.730,223.000 242.808 C 223.000 245.249,220.216 246.553,218.271 245.022 L 217.452 244.378 206.642 255.211 C 193.720 268.162,194.062 267.934,189.959 266.317 L 188.228 265.635 187.023 266.810 C 185.415 268.381,183.949 268.667,182.605 267.673 L 181.587 266.921 176.873 271.627 C 171.958 276.533,171.596 276.780,170.984 275.637 C 170.648 275.008,171.073 274.475,175.365 270.146 C 179.815 265.658,180.085 265.313,179.586 264.759 C 178.270 263.299,178.526 261.771,180.424 259.765 L 181.435 258.697 180.717 256.971 C 179.111 253.106,178.953 253.339,192.178 240.080 L 202.648 229.582 201.991 228.746 C 200.823 227.261,201.236 225.271,202.895 224.388 C 204.493 223.536,205.296 223.884,208.139 226.659 L 210.864 229.319 213.436 226.731 L 216.007 224.144 214.670 222.877 C 213.050 221.342,212.818 219.585,214.083 218.434 C 215.388 217.247,215.998 217.143,217.498 217.855 M215.482 220.029 C 215.234 220.430,215.578 220.808,221.933 227.106 C 226.097 231.234,227.259 232.056,227.577 231.102 C 227.731 230.640,216.735 219.667,216.118 219.667 C 215.892 219.667,215.605 219.830,215.482 220.029 M214.906 228.260 L 212.330 230.851 214.257 232.758 L 216.184 234.665 218.760 232.073 L 221.336 229.482 219.409 227.575 L 217.483 225.669 214.906 228.260 M203.643 226.529 C 203.191 227.073,219.278 243.667,220.258 243.667 C 221.873 243.667,220.801 242.305,213.131 234.613 C 204.441 225.897,204.281 225.760,203.643 226.529 M193.197 242.303 C 180.796 254.709,181.471 253.667,183.352 257.487 C 185.235 261.313,190.814 265.437,193.297 264.839 C 193.841 264.708,198.248 260.556,205.083 253.734 L 215.998 242.839 210.253 237.086 C 207.093 233.922,204.430 231.333,204.335 231.333 C 204.240 231.333,199.228 236.270,193.197 242.303 M205.814 234.980 C 206.790 235.999,206.793 236.845,205.821 237.218 C 205.188 237.460,203.333 235.802,203.333 234.993 C 203.333 233.669,204.552 233.662,205.814 234.980 M203.995 239.814 C 206.157 242.010,206.404 242.810,205.057 243.259 C 204.527 243.436,200.000 239.037,200.000 238.345 C 200.000 236.448,201.066 236.840,203.995 239.814 M198.901 241.399 C 200.785 243.225,199.680 244.810,197.691 243.136 C 196.338 241.997,196.317 240.592,197.651 240.360 C 197.734 240.345,198.296 240.813,198.901 241.399 M196.869 246.056 C 199.487 248.595,199.734 249.095,198.656 249.672 C 198.066 249.988,197.700 249.767,195.814 247.956 C 193.266 245.510,192.636 243.743,194.286 243.672 C 194.351 243.669,195.513 244.742,196.869 246.056 M192.343 248.177 C 193.468 249.338,193.504 250.221,192.441 250.575 C 191.369 250.933,189.607 248.193,190.400 247.400 C 190.972 246.828,191.077 246.870,192.343 248.177 M190.391 252.632 C 192.720 254.984,193.028 255.618,192.186 256.317 C 191.796 256.641,191.404 256.445,190.103 255.277 C 186.557 252.093,186.216 251.584,187.067 250.733 C 187.728 250.072,188.020 250.238,190.391 252.632 M185.641 254.530 C 186.745 255.459,186.948 256.351,186.197 256.975 C 185.823 257.285,185.481 257.150,184.530 256.315 C 183.322 255.255,182.983 254.197,183.750 253.887 C 184.462 253.600,184.587 253.643,185.641 254.530 M181.725 261.438 C 180.667 262.564,180.810 263.065,182.700 264.832 L 184.399 266.421 185.379 265.441 L 186.360 264.461 184.462 262.564 C 182.237 260.338,182.613 260.493,181.725 261.438 " stroke="none" fill="#3c3c44" fill-rule="evenodd"></path></g></svg>