<svg id="svg" version="1.1" xmlns="http://www.w3.org/2000/svg" xmlns:xlink="http://www.w3.org/1999/xlink" width="400" height="185.8215179316097" viewBox="0, 0, 400,185.8215179316097"><g id="svgg"><path id="path0" d="M0.000 92.937 L 0.000 185.874 200.000 185.874 L 400.000 185.874 400.000 92.937 L 400.000 0.000 200.000 0.000 L 0.000 0.000 0.000 92.937 M360.363 90.102 L 360.409 155.204 300.274 155.204 L 240.138 155.204 240.190 152.649 L 240.242 150.093 297.723 150.046 L 355.204 149.999 355.204 90.055 L 355.204 30.112 200.186 30.112 L 45.167 30.112 45.167 90.055 L 45.167 149.999 102.649 150.046 L 160.130 150.093 160.182 152.649 L 160.234 155.204 100.098 155.204 L 39.963 155.204 39.963 90.180 C 39.963 54.416,40.019 25.099,40.087 25.031 C 40.155 24.963,112.235 24.928,200.263 24.953 L 360.316 25.000 360.363 90.102 M277.045 67.491 C 278.727 67.951,279.242 68.728,278.756 70.074 C 278.226 71.539,278.182 71.571,276.764 71.517 C 274.764 71.441,274.670 71.593,274.647 74.940 L 274.628 77.602 276.174 77.656 L 277.721 77.711 278.008 78.399 C 278.827 80.358,278.082 81.654,276.063 81.784 L 274.628 81.877 274.594 91.171 C 274.575 96.283,274.555 100.524,274.548 100.597 C 274.474 101.385,271.635 101.851,270.382 101.281 C 269.743 100.989,269.732 100.822,269.728 91.357 C 269.726 86.757,269.719 82.721,269.713 82.388 C 269.704 81.874,269.635 81.784,269.247 81.784 C 267.074 81.784,266.753 77.887,268.913 77.731 C 269.584 77.682,269.703 77.612,269.704 77.266 C 269.724 72.731,269.874 71.168,270.390 70.125 C 271.506 67.870,274.333 66.751,277.045 67.491 M234.665 69.599 C 235.275 69.749,236.164 70.106,237.175 70.605 C 238.221 71.123,238.095 73.627,236.971 74.644 C 236.615 74.967,235.092 74.738,234.836 74.324 C 234.781 74.236,234.470 74.163,234.143 74.163 C 233.817 74.162,233.218 74.069,232.813 73.957 C 231.610 73.623,229.308 74.249,228.504 75.127 C 226.227 77.616,227.444 80.860,231.445 82.966 C 238.216 86.532,240.290 89.896,238.962 95.167 C 238.449 97.204,236.437 100.186,235.575 100.186 C 235.432 100.186,235.316 100.259,235.316 100.349 C 235.316 100.438,234.877 100.702,234.340 100.934 C 229.652 102.960,221.771 101.328,221.756 98.327 C 221.744 95.915,223.016 94.816,224.595 95.873 C 227.011 97.491,229.827 97.791,232.121 96.675 C 235.195 95.179,234.752 90.318,231.384 88.587 C 230.531 88.149,229.037 87.314,228.253 86.837 C 227.895 86.620,227.351 86.301,227.045 86.130 C 225.946 85.517,223.812 83.605,223.797 83.221 C 223.794 83.143,223.599 82.766,223.363 82.385 C 220.933 78.452,223.434 71.197,227.580 70.156 C 227.850 70.089,228.116 69.959,228.173 69.868 C 228.229 69.777,228.500 69.701,228.775 69.700 C 229.050 69.698,229.401 69.613,229.554 69.511 C 229.859 69.307,233.749 69.374,234.665 69.599 M114.350 69.864 C 114.585 69.953,115.274 70.181,115.881 70.371 C 117.699 70.939,119.067 72.389,120.073 74.814 C 121.277 77.716,119.750 82.852,117.240 84.348 C 116.648 84.700,116.596 84.907,117.054 85.077 C 122.912 87.254,123.044 97.667,117.249 100.434 C 115.159 101.432,114.515 101.505,108.370 101.447 L 102.706 101.394 102.469 100.929 C 102.108 100.221,102.214 70.450,102.579 70.010 C 102.865 69.665,113.479 69.534,114.350 69.864 M133.027 70.032 C 133.433 70.352,133.727 70.869,136.016 75.279 C 139.219 81.453,140.894 84.813,140.907 85.097 C 140.919 85.353,140.941 85.359,141.028 85.130 C 141.295 84.431,145.736 75.639,145.911 75.465 C 145.962 75.414,146.336 74.703,146.742 73.885 C 148.082 71.183,148.742 70.115,149.196 69.907 C 149.991 69.545,152.678 69.647,153.186 70.058 L 153.625 70.413 153.679 84.974 C 153.739 100.955,153.739 100.961,153.051 101.275 C 152.257 101.636,149.609 101.536,149.117 101.126 L 148.699 100.777 148.677 89.747 C 148.665 83.681,148.601 78.927,148.535 79.182 C 148.410 79.672,147.344 81.825,145.315 85.688 C 144.644 86.966,143.840 88.501,143.528 89.099 C 142.631 90.818,142.525 90.892,140.985 90.892 C 139.307 90.892,139.232 90.805,137.058 86.338 C 136.709 85.623,136.299 84.828,136.146 84.572 C 135.993 84.317,135.301 82.979,134.609 81.599 L 133.350 79.089 133.368 89.868 L 133.385 100.647 132.965 101.067 C 132.429 101.603,129.560 101.694,128.852 101.198 L 128.439 100.908 128.439 85.595 L 128.439 70.281 128.852 69.992 C 129.464 69.563,132.470 69.592,133.027 70.032 M107.249 78.439 L 107.249 83.086 109.846 83.086 C 112.471 83.086,113.039 82.958,114.049 82.139 C 114.731 81.587,115.499 79.146,115.364 77.957 C 114.962 74.388,114.182 73.792,109.922 73.792 L 107.249 73.792 107.249 78.439 M171.949 77.711 C 177.129 79.394,179.481 86.547,177.567 94.796 C 175.533 103.557,164.161 104.612,161.283 96.306 C 160.549 94.191,160.093 87.370,160.572 85.688 C 160.674 85.330,160.860 84.619,160.986 84.108 C 161.429 82.309,162.082 81.133,163.512 79.559 C 165.323 77.566,169.014 76.757,171.949 77.711 M195.226 77.531 C 196.269 78.064,196.604 79.637,196.028 81.292 C 195.706 82.217,195.519 82.315,194.462 82.113 C 192.416 81.721,191.621 82.021,190.434 83.633 L 189.963 84.273 189.963 92.450 C 189.963 102.212,190.152 101.487,187.600 101.487 C 186.483 101.487,185.918 101.403,185.588 101.187 L 185.130 100.887 185.130 91.849 C 185.130 84.544,185.073 82.425,184.833 80.789 C 184.492 78.458,184.532 78.352,185.920 77.937 C 188.044 77.302,188.743 77.625,189.338 79.516 C 189.588 80.312,189.686 80.455,189.790 80.174 C 190.452 78.384,193.754 76.779,195.226 77.531 M211.245 77.576 C 213.986 78.308,215.979 80.626,216.700 83.922 C 216.812 84.433,216.990 85.244,217.095 85.724 C 217.549 87.796,217.354 89.788,216.612 90.660 L 215.939 91.450 210.572 91.450 L 205.204 91.450 205.207 92.333 C 205.210 93.542,205.623 94.994,206.256 96.015 C 206.727 96.776,207.052 97.040,208.222 97.612 C 209.206 98.092,211.386 97.788,213.103 96.931 C 215.038 95.965,215.053 95.963,215.564 96.515 C 217.552 98.664,216.710 100.344,213.124 101.383 C 211.381 101.888,207.408 102.081,207.156 101.673 C 207.093 101.571,206.858 101.486,206.634 101.485 C 203.663 101.472,200.762 97.516,200.171 92.671 C 198.916 82.386,203.887 75.610,211.245 77.576 M255.021 77.577 C 257.815 78.161,259.560 79.660,260.391 82.190 C 260.546 82.663,260.623 84.789,260.640 89.067 C 260.663 94.654,260.888 98.880,261.219 99.917 C 261.669 101.333,257.689 102.218,256.875 100.883 C 256.673 100.551,256.507 100.137,256.506 99.965 C 256.505 99.381,256.152 99.426,255.444 100.101 C 253.215 102.226,249.491 102.483,246.755 100.702 C 246.011 100.217,244.796 98.586,244.796 98.072 C 244.796 97.918,244.724 97.747,244.636 97.693 C 244.499 97.608,244.280 96.314,244.192 95.074 C 244.065 93.264,244.854 90.730,245.926 89.509 C 246.472 88.887,248.883 87.361,249.319 87.361 C 249.438 87.360,249.982 87.191,250.527 86.983 C 251.194 86.730,252.199 86.569,253.594 86.491 C 256.027 86.355,255.891 86.471,255.755 84.631 C 255.507 81.271,252.215 80.372,248.116 82.542 C 246.927 83.171,246.563 83.046,245.643 81.689 C 244.504 80.012,245.424 78.767,248.420 77.930 C 248.829 77.815,249.456 77.641,249.814 77.542 C 250.792 77.271,253.652 77.290,255.021 77.577 M293.959 77.576 C 296.096 78.147,297.652 79.484,298.650 81.608 C 299.481 83.376,300.000 85.934,300.000 88.264 C 300.000 89.872,299.995 89.889,299.303 90.668 L 298.606 91.452 293.309 91.497 L 288.011 91.543 287.948 92.096 C 287.726 94.052,289.370 97.393,290.556 97.397 C 290.729 97.397,290.922 97.481,290.985 97.584 C 291.339 98.156,294.115 97.781,295.816 96.931 C 297.835 95.924,297.787 95.926,298.505 96.794 C 300.238 98.890,299.380 100.356,295.817 101.389 C 294.093 101.889,290.120 102.078,289.870 101.673 C 289.807 101.571,289.595 101.487,289.400 101.487 C 287.240 101.487,284.473 98.716,283.460 95.539 C 282.518 92.586,282.657 84.276,283.665 83.188 C 283.755 83.091,283.829 82.861,283.829 82.677 C 283.829 82.493,283.892 82.342,283.968 82.341 C 284.045 82.341,284.262 81.965,284.451 81.505 C 285.689 78.497,290.289 76.596,293.959 77.576 M168.309 81.586 C 166.100 82.120,164.895 86.222,165.411 91.450 C 165.880 96.209,166.816 97.767,169.204 97.769 C 171.947 97.771,173.048 95.432,173.048 89.602 C 173.048 83.272,171.583 80.794,168.309 81.586 M207.880 81.614 C 206.893 81.900,205.576 83.633,205.576 84.646 C 205.576 84.871,205.501 85.135,205.408 85.232 C 205.316 85.329,205.211 85.994,205.176 86.710 L 205.112 88.011 208.783 88.062 L 212.454 88.112 212.454 87.339 C 212.454 83.056,210.658 80.808,207.880 81.614 M290.594 81.614 C 289.166 82.028,288.305 83.642,287.924 86.617 C 287.720 88.213,287.455 88.104,291.554 88.104 L 295.167 88.104 295.167 87.336 C 295.167 83.056,293.370 80.808,290.594 81.614 M107.249 92.286 L 107.249 97.398 110.293 97.398 C 113.556 97.398,114.241 97.258,114.986 96.438 C 116.634 94.627,116.803 90.441,115.301 88.656 C 114.333 87.506,113.156 87.175,110.032 87.175 L 107.249 87.175 107.249 92.286 M253.903 90.053 C 250.316 90.525,249.164 91.633,249.164 94.610 C 249.164 97.492,251.116 98.636,253.859 97.360 C 255.611 96.545,255.819 96.059,255.808 92.816 C 255.798 89.636,255.904 89.790,253.903 90.053 M217.712 122.879 C 218.237 123.118,229.410 134.294,229.716 134.886 C 230.257 135.933,229.664 137.817,228.586 138.472 C 227.060 139.400,225.646 139.025,223.998 137.254 L 223.045 136.231 220.442 138.833 L 217.838 141.434 220.194 143.760 C 222.963 146.493,223.231 146.859,223.233 147.903 C 223.237 150.665,220.460 151.805,218.151 149.989 L 217.622 149.573 206.627 160.533 C 200.580 166.560,195.381 171.601,195.074 171.734 C 194.768 171.868,194.371 172.050,194.194 172.141 C 193.383 172.553,191.792 172.234,189.186 171.136 L 188.501 170.848 187.358 171.935 C 185.450 173.751,183.644 174.012,182.412 172.651 C 181.906 172.092,181.877 172.115,177.415 176.599 C 172.676 181.360,172.298 181.672,171.625 181.366 C 170.325 180.773,170.466 180.566,175.839 175.180 L 180.371 170.636 179.892 170.123 C 178.421 168.545,178.670 166.885,180.664 164.983 L 181.747 163.950 181.194 162.819 C 180.388 161.166,180.055 159.906,180.195 159.033 C 180.486 157.214,180.611 157.072,191.869 145.787 C 197.823 139.818,202.730 134.894,202.773 134.846 C 202.816 134.797,202.680 134.569,202.470 134.339 C 200.614 132.310,201.495 129.668,204.161 129.268 C 205.377 129.086,205.959 129.457,208.562 132.068 C 209.833 133.343,210.958 134.386,211.062 134.387 C 211.166 134.387,212.372 133.263,213.743 131.889 L 216.235 129.392 215.336 128.590 C 213.038 126.542,212.811 124.689,214.663 123.095 C 215.208 122.626,216.896 122.507,217.712 122.879 M215.846 124.844 C 214.816 125.260,225.804 136.917,227.086 136.769 C 228.562 136.600,228.133 136.016,222.227 130.158 C 217.036 125.009,216.515 124.574,215.846 124.844 M215.067 133.539 C 212.945 135.665,212.610 136.079,212.810 136.320 C 213.476 137.122,216.201 139.777,216.358 139.777 C 216.582 139.777,221.375 134.982,221.375 134.757 C 221.375 134.586,217.832 131.041,217.661 131.041 C 217.605 131.041,216.438 132.165,215.067 133.539 M203.945 131.516 C 203.717 131.675,203.532 131.915,203.532 132.049 C 203.532 132.482,219.914 148.699,220.350 148.699 C 220.802 148.699,221.190 148.372,221.190 147.991 C 221.190 147.703,204.821 131.227,204.535 131.227 C 204.437 131.227,204.172 131.357,203.945 131.516 M193.506 147.186 C 186.013 154.705,182.594 158.258,182.485 158.643 C 182.308 159.266,182.424 160.598,182.700 161.102 C 182.799 161.283,183.081 161.849,183.327 162.361 C 183.979 163.714,184.512 164.621,184.891 165.020 C 185.073 165.213,185.521 165.697,185.885 166.096 C 186.966 167.279,188.919 168.773,189.386 168.773 C 189.482 168.773,189.588 168.836,189.622 168.913 C 189.688 169.060,191.094 169.620,192.201 169.940 C 193.855 170.418,193.333 170.858,205.253 158.955 L 216.175 148.048 210.271 142.167 L 204.368 136.286 193.506 147.186 M205.588 139.717 C 206.951 140.948,207.153 141.660,206.288 142.186 C 205.588 142.611,205.344 142.519,204.230 141.405 C 202.559 139.734,203.842 138.139,205.588 139.717 M203.584 144.350 C 204.686 145.430,205.715 146.507,205.870 146.743 C 206.509 147.719,205.438 148.919,204.574 148.195 C 203.610 147.388,200.184 143.845,200.164 143.635 C 199.981 141.698,201.123 141.937,203.584 144.350 M199.276 146.694 C 200.620 148.125,200.398 149.061,198.750 148.906 C 198.259 148.860,196.840 147.211,196.840 146.687 C 196.840 145.358,198.026 145.362,199.276 146.694 M197.229 151.303 C 199.715 153.810,200.014 154.517,198.752 154.911 C 197.436 155.322,192.829 150.182,193.717 149.294 C 194.348 148.663,194.953 149.009,197.229 151.303 M192.614 153.338 C 193.618 154.389,193.750 155.028,193.056 155.483 C 191.987 156.184,189.725 153.928,190.341 152.776 C 190.714 152.079,191.627 152.305,192.614 153.338 M189.472 156.850 C 193.073 160.321,193.558 161.184,192.154 161.629 C 191.500 161.837,186.803 157.547,186.803 156.741 C 186.803 155.343,187.956 155.390,189.472 156.850 M186.066 160.079 C 187.006 161.034,187.095 161.381,186.572 162.035 C 185.949 162.813,183.363 160.991,183.495 159.868 C 183.637 158.658,184.758 158.751,186.066 160.079 M181.915 166.690 C 180.976 167.652,180.983 168.302,181.942 169.190 C 182.336 169.554,182.817 170.051,183.011 170.295 C 184.031 171.575,184.615 171.628,185.747 170.542 C 186.803 169.530,186.822 169.731,185.576 168.706 C 185.004 168.234,184.195 167.430,183.778 166.917 C 182.869 165.799,182.794 165.790,181.915 166.690 " stroke="none" fill="#3b3c44" fill-rule="evenodd"></path><path id="path1" d="M40.149 90.056 L 40.149 155.019 100.093 155.019 L 160.037 155.019 160.037 152.602 L 160.037 150.186 102.509 150.186 L 44.981 150.186 44.981 90.056 L 44.981 29.925 200.139 29.972 L 355.297 30.019 355.344 90.102 L 355.391 150.186 297.863 150.186 L 240.335 150.186 240.335 152.602 L 240.335 155.019 300.279 155.019 L 360.223 155.019 360.223 90.056 L 360.223 25.093 200.186 25.093 L 40.149 25.093 40.149 90.056 M273.726 67.764 C 270.937 68.525,270.072 70.085,269.969 74.535 C 269.939 75.813,269.909 77.089,269.902 77.370 C 269.890 77.837,269.827 77.881,269.168 77.881 C 268.290 77.881,268.013 78.179,267.892 79.253 C 267.726 80.730,268.097 81.413,269.066 81.413 L 269.888 81.413 269.902 82.296 C 269.910 82.781,269.931 87.126,269.949 91.952 C 269.986 102.013,269.798 101.150,271.975 101.257 C 274.488 101.381,274.254 102.393,274.273 91.309 C 274.283 86.103,274.350 81.747,274.424 81.629 C 274.507 81.495,275.104 81.413,275.996 81.413 C 277.767 81.413,277.883 81.310,277.875 79.749 C 277.867 78.038,277.705 77.881,275.950 77.881 C 274.246 77.881,274.279 77.927,274.288 75.566 C 274.298 72.606,274.619 71.375,275.379 71.375 C 275.590 71.375,275.853 71.284,275.965 71.172 C 276.112 71.025,276.273 71.025,276.548 71.172 C 277.485 71.674,278.170 71.328,278.436 70.219 C 278.516 69.884,278.642 69.463,278.716 69.285 C 279.195 68.124,275.989 67.147,273.726 67.764 M229.182 69.864 C 227.302 70.354,226.290 70.923,224.998 72.213 C 221.186 76.017,222.090 82.840,226.771 85.602 C 226.951 85.708,227.211 85.888,227.350 86.000 C 227.633 86.231,228.588 86.780,230.112 87.589 C 230.674 87.888,231.266 88.251,231.427 88.397 C 231.589 88.543,231.802 88.662,231.900 88.662 C 232.879 88.662,234.387 91.254,234.387 92.937 C 234.387 97.483,228.682 99.128,224.138 95.893 C 223.147 95.187,222.733 95.422,222.240 96.968 C 221.523 99.221,222.759 100.441,226.651 101.322 C 229.225 101.904,230.843 101.791,234.108 100.798 C 236.828 99.971,238.944 96.384,238.926 92.630 C 238.906 88.463,237.240 86.276,231.970 83.500 C 227.628 81.211,226.197 78.787,227.584 76.063 C 228.714 73.842,232.384 72.884,234.913 74.149 C 236.530 74.958,236.910 74.815,237.460 73.196 C 237.972 71.686,237.808 71.179,236.617 70.598 C 234.445 69.538,231.535 69.251,229.182 69.864 M102.803 70.246 C 102.192 70.856,102.193 100.335,102.804 100.945 C 103.281 101.423,114.158 101.412,115.428 100.933 C 118.524 99.764,119.735 98.614,120.814 95.818 C 122.033 92.660,121.129 88.438,118.845 86.617 C 118.396 86.259,117.924 85.878,117.797 85.769 C 117.669 85.661,117.293 85.452,116.961 85.306 C 116.629 85.159,116.357 84.941,116.357 84.821 C 116.357 84.701,116.629 84.434,116.961 84.228 C 118.147 83.492,119.703 81.385,119.703 80.514 C 119.703 80.333,119.790 80.098,119.898 79.991 C 120.189 79.700,120.164 75.839,119.866 74.976 C 119.016 72.518,117.646 71.182,115.078 70.307 C 113.550 69.786,103.313 69.735,102.803 70.246 M129.248 70.073 C 129.028 70.162,128.800 70.313,128.740 70.409 C 128.451 70.877,128.605 100.618,128.899 100.911 C 129.281 101.294,131.765 101.431,132.535 101.112 L 133.091 100.882 133.083 89.616 C 133.077 82.041,133.137 78.329,133.266 78.286 C 133.371 78.251,133.457 78.355,133.457 78.519 C 133.457 78.682,133.530 78.961,133.619 79.138 C 133.708 79.316,133.988 79.879,134.243 80.390 C 134.671 81.251,135.384 82.625,138.195 88.011 C 139.612 90.727,139.593 90.708,140.967 90.700 C 142.402 90.693,142.541 90.577,143.550 88.560 C 144.008 87.645,144.798 86.101,145.305 85.130 C 145.812 84.159,146.648 82.559,147.163 81.574 C 147.677 80.589,148.195 79.488,148.315 79.127 C 148.931 77.260,148.979 78.075,148.923 89.492 C 148.860 102.501,148.618 101.208,151.115 101.208 C 153.609 101.208,153.346 103.055,153.346 85.595 C 153.346 68.281,153.567 70.028,151.363 69.917 C 149.859 69.841,149.103 70.055,148.722 70.664 C 147.873 72.023,141.818 83.895,141.274 85.267 C 141.030 85.882,140.706 85.925,140.706 85.342 C 140.706 85.031,138.916 81.404,136.060 75.929 C 135.313 74.498,134.370 72.676,133.965 71.880 C 133.005 69.994,131.178 69.294,129.248 70.073 M113.407 73.856 C 115.540 74.784,116.368 79.060,114.841 81.255 C 114.653 81.527,114.498 81.810,114.498 81.884 C 114.498 82.770,112.569 83.360,109.665 83.362 L 107.156 83.364 107.107 78.367 L 107.057 73.370 109.895 73.466 C 111.892 73.534,112.932 73.650,113.407 73.856 M167.193 77.782 C 162.726 78.894,160.595 82.792,160.595 89.848 C 160.595 97.554,163.654 101.673,169.377 101.673 C 170.680 101.673,172.540 101.214,173.263 100.713 C 173.534 100.525,173.824 100.372,173.906 100.372 C 174.308 100.372,175.930 98.337,176.478 97.144 C 178.313 93.153,178.340 86.033,176.534 82.156 C 174.870 78.583,171.088 76.812,167.193 77.782 M192.810 77.769 C 191.954 78.081,190.841 79.032,190.201 79.998 C 189.678 80.788,189.222 80.888,189.218 80.214 C 189.208 78.268,188.074 77.555,185.965 78.168 C 184.758 78.519,184.694 78.668,185.041 80.315 C 185.263 81.372,185.316 83.453,185.316 91.160 C 185.316 102.007,185.171 101.134,186.998 101.266 C 189.894 101.475,189.769 101.898,189.765 91.859 L 189.761 84.004 190.428 83.190 C 191.507 81.873,192.510 81.549,194.530 81.863 L 195.474 82.009 195.785 81.194 C 196.779 78.592,195.282 76.869,192.810 77.769 M206.396 77.953 C 203.753 78.809,202.409 80.185,201.109 83.364 C 200.148 85.715,199.976 92.802,200.824 95.074 C 200.901 95.279,201.024 95.613,201.099 95.818 C 202.525 99.715,205.381 101.673,209.639 101.673 C 210.937 101.673,213.134 101.273,213.799 100.917 C 213.976 100.821,214.212 100.743,214.323 100.743 C 214.684 100.743,216.081 99.679,216.330 99.214 C 216.614 98.683,216.117 97.389,215.352 96.671 L 214.924 96.269 213.549 96.999 C 209.101 99.362,205.704 97.800,205.001 93.069 C 204.724 91.208,204.251 91.363,210.357 91.319 C 217.523 91.267,217.663 91.133,216.739 85.223 C 215.804 79.245,211.578 76.274,206.396 77.953 M250.186 77.711 C 245.321 78.971,244.537 79.790,246.127 81.953 C 246.795 82.862,246.817 82.862,248.792 82.006 C 250.699 81.179,251.993 80.939,253.098 81.207 C 255.280 81.736,255.746 82.260,256.052 84.529 C 256.289 86.288,256.207 86.454,255.060 86.531 C 249.840 86.884,246.371 88.478,245.246 91.041 C 245.080 91.419,244.862 91.903,244.762 92.115 C 244.489 92.698,244.504 96.685,244.783 97.423 C 245.639 99.691,246.638 100.692,248.731 101.378 C 250.920 102.095,253.272 101.555,255.387 99.850 L 256.406 99.028 256.633 99.561 C 256.758 99.853,256.864 100.226,256.869 100.389 C 256.874 100.552,257.043 100.836,257.246 101.019 C 258.002 101.704,261.203 100.967,260.996 100.156 C 260.642 98.770,260.540 96.967,260.434 90.242 C 260.298 81.602,260.320 81.753,258.932 79.965 C 258.075 78.862,255.074 77.409,254.450 77.795 C 254.368 77.846,254.248 77.802,254.184 77.698 C 254.041 77.467,251.092 77.477,250.186 77.711 M289.057 77.986 C 286.514 78.852,284.671 80.691,283.939 83.094 C 281.861 89.917,283.136 97.472,286.803 100.061 C 289.258 101.794,294.136 102.226,296.512 100.921 C 296.690 100.823,296.926 100.743,297.036 100.743 C 298.315 100.743,299.394 99.039,298.867 97.851 C 298.155 96.247,297.859 96.151,296.249 97.007 C 292.756 98.861,289.720 98.263,288.426 95.464 C 287.973 94.483,287.423 91.697,287.640 91.480 C 287.708 91.412,290.104 91.340,292.964 91.319 C 298.939 91.276,298.640 91.325,299.320 90.289 C 300.196 88.954,299.745 84.531,298.453 81.784 C 297.818 80.436,296.535 78.810,296.105 78.810 C 295.998 78.810,295.911 78.738,295.911 78.649 C 295.911 77.727,291.165 77.268,289.057 77.986 M169.981 81.227 C 170.045 81.329,170.255 81.413,170.450 81.413 C 170.973 81.413,172.199 82.746,172.528 83.672 C 173.224 85.632,173.256 85.941,173.184 89.870 C 173.109 93.930,172.996 94.761,172.354 96.004 C 170.726 99.153,166.852 98.671,165.816 95.191 C 165.231 93.223,165.162 92.638,165.162 89.591 C 165.162 83.657,166.385 81.177,169.366 81.060 C 169.641 81.050,169.918 81.125,169.981 81.227 M210.093 81.397 C 211.698 82.085,212.766 84.538,212.608 87.175 L 212.546 88.197 209.108 88.250 C 204.345 88.323,204.300 88.285,205.218 84.896 C 206.022 81.931,208.010 80.504,210.093 81.397 M292.998 81.499 C 294.518 82.218,295.464 84.491,295.322 87.082 L 295.260 88.197 291.822 88.252 C 287.427 88.322,287.485 88.336,287.606 87.213 C 287.995 83.628,288.863 81.988,290.733 81.311 C 291.663 80.974,291.938 80.997,292.998 81.499 M113.982 87.428 C 115.826 88.254,116.543 89.593,116.543 92.213 C 116.543 93.227,116.469 94.202,116.379 94.380 C 116.288 94.557,116.104 94.954,115.970 95.260 C 115.056 97.343,114.402 97.626,110.270 97.727 L 107.063 97.806 107.063 92.398 L 107.063 86.989 110.032 86.989 C 112.752 86.989,113.083 87.026,113.982 87.428 M256.105 92.891 L 256.084 95.779 255.437 96.496 C 255.081 96.890,254.674 97.212,254.532 97.212 C 254.391 97.212,254.275 97.293,254.275 97.393 C 254.275 97.492,253.801 97.711,253.221 97.880 C 251.246 98.454,249.279 97.563,248.939 95.940 C 248.184 92.338,250.038 90.126,254.089 89.797 C 256.222 89.623,256.131 89.483,256.105 92.891 M214.606 123.510 C 213.282 124.834,213.458 126.247,215.171 128.063 C 216.173 129.125,216.349 129.404,216.194 129.683 C 215.943 130.132,211.237 134.758,211.030 134.758 C 210.941 134.758,209.700 133.587,208.271 132.156 L 205.674 129.554 204.417 129.554 C 203.703 129.554,203.160 129.634,203.160 129.740 C 203.160 129.842,203.065 129.926,202.949 129.926 C 201.655 129.926,201.439 132.755,202.630 134.111 C 202.948 134.474,203.177 134.806,203.138 134.848 C 203.099 134.890,198.084 139.927,191.993 146.041 C 179.952 158.127,180.483 157.499,180.483 159.643 C 180.483 160.555,180.685 161.163,181.649 163.155 L 182.034 163.950 180.950 165.014 C 178.932 166.996,178.631 168.248,179.833 169.652 C 180.723 170.692,181.000 170.290,175.836 175.465 C 171.268 180.044,170.873 180.547,171.466 181.039 C 172.016 181.496,172.657 180.984,177.040 176.588 C 181.661 171.954,181.946 171.745,182.622 172.492 C 183.683 173.665,185.516 173.359,187.272 171.715 C 188.599 170.474,188.446 170.525,189.462 170.985 C 189.891 171.179,190.618 171.444,191.078 171.574 C 191.538 171.704,191.994 171.879,192.091 171.964 C 192.391 172.227,193.359 172.136,194.426 171.746 C 195.371 171.401,196.258 170.562,206.413 160.408 C 217.213 149.610,217.734 149.140,218.237 149.747 C 219.395 151.142,221.852 150.873,222.674 149.261 C 223.493 147.656,223.290 147.249,219.998 143.912 L 217.568 141.448 220.300 138.716 L 223.032 135.985 224.202 137.107 C 226.260 139.082,227.588 139.278,229.005 137.816 C 229.653 137.148,229.855 135.660,229.409 134.842 C 229.134 134.338,218.144 123.404,217.620 123.112 C 216.716 122.611,215.321 122.795,214.606 123.510 M216.787 124.563 C 218.083 125.245,227.881 135.446,227.881 136.113 C 227.881 136.847,227.401 137.284,226.805 137.094 C 225.978 136.830,215.428 126.076,215.428 125.497 C 215.428 124.659,216.097 124.200,216.787 124.563 M221.563 134.930 C 221.473 135.091,220.265 136.351,218.879 137.729 L 216.358 140.236 214.406 138.290 C 213.332 137.220,212.454 136.219,212.454 136.065 C 212.454 135.911,213.636 134.626,215.080 133.208 L 217.707 130.632 219.716 132.635 C 221.268 134.181,221.688 134.704,221.563 134.930 M213.130 139.333 C 221.273 147.522,221.619 147.924,221.124 148.599 C 220.438 149.538,220.242 149.378,212.101 141.231 C 202.313 131.436,202.843 132.077,203.865 131.273 C 204.539 130.743,204.912 131.068,213.130 139.333 M210.454 141.960 C 213.701 145.205,216.357 147.943,216.357 148.043 C 216.357 148.321,195.565 169.091,194.638 169.738 C 193.337 170.648,192.582 170.555,189.405 169.096 C 187.606 168.270,185.290 166.086,183.936 163.941 C 183.193 162.762,183.071 162.531,182.454 161.124 C 182.116 160.355,182.064 159.001,182.344 158.266 C 182.539 157.753,204.040 136.081,204.367 136.067 C 204.469 136.063,207.208 138.715,210.454 141.960 M203.793 139.685 C 203.441 140.221,203.500 140.334,204.740 141.496 C 205.553 142.259,205.619 142.283,206.146 142.001 C 206.770 141.667,206.578 141.011,205.584 140.081 C 204.533 139.098,204.222 139.029,203.793 139.685 M200.484 142.966 C 200.113 143.496,200.308 143.764,202.863 146.249 C 205.034 148.360,205.615 148.606,205.726 147.462 C 205.786 146.841,205.407 146.396,202.467 143.634 C 201.224 142.467,200.908 142.360,200.484 142.966 M197.214 146.187 C 196.860 146.613,197.132 147.283,197.966 148.036 C 199.583 149.497,200.581 148.286,199.047 146.723 C 198.219 145.879,197.616 145.703,197.214 146.187 M193.903 149.480 C 193.099 150.284,197.717 155.170,198.811 154.672 C 199.628 154.300,199.265 153.639,196.988 151.356 C 194.920 149.282,194.411 148.972,193.903 149.480 M190.528 152.961 C 190.268 153.446,190.459 153.868,191.315 154.693 C 192.000 155.354,193.123 155.681,193.123 155.220 C 193.123 155.126,193.172 154.921,193.232 154.764 C 193.570 153.884,190.964 152.146,190.528 152.961 M187.181 156.307 C 186.891 156.850,186.852 156.794,188.987 158.966 C 191.409 161.430,191.799 161.678,192.342 161.098 C 192.861 160.544,192.749 160.375,190.255 157.952 C 188.138 155.895,187.566 155.589,187.181 156.307 M184.266 159.248 C 183.368 159.398,183.934 160.941,185.189 161.764 C 185.684 162.088,186.429 162.195,186.434 161.942 C 186.435 161.866,186.484 161.623,186.543 161.404 C 186.739 160.673,185.088 159.110,184.266 159.248 M183.835 166.600 C 184.292 167.143,185.125 167.993,185.688 168.489 C 187.005 169.652,186.997 169.586,185.949 170.650 C 184.605 172.014,184.269 171.952,182.373 169.991 C 180.531 168.087,180.491 167.860,181.761 166.549 C 182.876 165.399,182.824 165.397,183.835 166.600 " stroke="none" fill="#ececee" fill-rule="evenodd"></path><path id="path2" d="M40.055 90.056 L 40.056 155.112 100.093 155.112 L 160.130 155.112 160.139 152.695 L 160.148 150.279 160.087 152.649 L 160.026 155.019 100.088 155.019 L 40.149 155.019 40.102 90.009 L 40.055 25.000 40.055 90.056 M122.552 30.065 C 165.268 30.091,235.110 30.091,277.757 30.065 C 320.404 30.039,285.455 30.018,200.093 30.018 C 114.730 30.018,79.837 30.039,122.552 30.065 M276.394 67.658 C 277.030 67.862,277.518 67.862,277.045 67.658 C 276.840 67.570,276.506 67.501,276.301 67.504 C 276.002 67.508,276.020 67.538,276.394 67.658 M278.160 68.332 C 278.467 68.630,278.750 68.853,278.790 68.828 C 278.916 68.749,278.394 68.205,277.989 67.992 C 277.726 67.854,277.781 67.963,278.160 68.332 M105.623 69.841 C 106.926 69.873,109.059 69.873,110.362 69.841 C 111.666 69.810,110.599 69.783,107.993 69.783 C 105.386 69.783,104.319 69.810,105.623 69.841 M130.251 69.837 C 130.583 69.878,131.127 69.878,131.459 69.837 C 131.791 69.796,131.520 69.762,130.855 69.762 C 130.191 69.762,129.919 69.796,130.251 69.837 M150.321 69.837 C 150.651 69.878,151.237 69.878,151.622 69.838 C 152.008 69.798,151.738 69.764,151.022 69.764 C 150.307 69.763,149.991 69.796,150.321 69.837 M278.417 70.220 C 278.355 70.589,278.383 70.762,278.486 70.659 C 278.579 70.566,278.625 70.291,278.587 70.049 C 278.528 69.677,278.502 69.703,278.417 70.220 M132.621 70.104 C 132.825 70.217,133.145 70.486,133.330 70.703 L 133.668 71.097 133.465 70.683 C 133.272 70.288,132.724 69.882,132.401 69.894 C 132.317 69.897,132.416 69.992,132.621 70.104 M128.646 70.327 C 128.493 70.511,128.450 74.442,128.485 84.779 L 128.534 98.978 128.579 84.749 C 128.614 73.981,128.679 70.466,128.848 70.297 C 128.970 70.175,129.022 70.074,128.963 70.074 C 128.904 70.074,128.762 70.188,128.646 70.327 M153.113 70.260 C 153.295 70.464,153.346 73.798,153.346 85.595 C 153.346 97.391,153.295 100.726,153.113 100.930 C 152.916 101.151,152.930 101.154,153.206 100.944 C 153.511 100.713,153.532 99.761,153.532 85.595 C 153.532 71.428,153.511 70.476,153.206 70.245 C 152.930 70.036,152.916 70.038,153.113 70.260 M115.815 70.515 C 116.006 70.687,117.100 71.189,117.100 71.106 C 117.100 70.999,116.070 70.446,115.870 70.446 C 115.797 70.446,115.772 70.477,115.815 70.515 M226.487 70.818 C 226.180 71.021,226.013 71.186,226.115 71.184 C 226.302 71.181,227.312 70.457,227.138 70.451 C 227.086 70.450,226.794 70.615,226.487 70.818 M269.992 71.665 C 269.922 72.038,269.902 72.380,269.947 72.425 C 269.993 72.471,270.087 72.203,270.157 71.830 C 270.227 71.457,270.247 71.114,270.202 71.069 C 270.156 71.024,270.062 71.292,269.992 71.665 M224.745 72.208 C 224.323 72.665,223.978 73.103,223.978 73.179 C 223.978 73.256,224.234 73.008,224.547 72.629 C 224.860 72.249,225.297 71.812,225.518 71.657 C 225.738 71.502,225.828 71.375,225.716 71.375 C 225.604 71.375,225.167 71.750,224.745 72.208 M237.775 71.933 C 237.775 72.291,237.814 72.437,237.860 72.258 C 237.907 72.079,237.907 71.787,237.860 71.608 C 237.814 71.429,237.775 71.575,237.775 71.933 M134.015 71.956 C 134.015 72.118,134.590 73.234,134.673 73.234 C 134.714 73.234,134.694 73.088,134.629 72.909 C 134.495 72.540,134.015 71.795,134.015 71.956 M274.334 73.281 C 274.326 73.511,274.302 73.932,274.281 74.217 C 274.261 74.502,274.294 74.817,274.356 74.917 C 274.417 75.017,274.479 74.595,274.493 73.980 C 274.507 73.366,274.480 72.862,274.434 72.862 C 274.387 72.862,274.343 73.051,274.334 73.281 M107.063 73.559 C 107.063 73.636,107.794 73.676,108.689 73.649 C 111.577 73.561,111.860 73.486,109.433 73.453 C 108.130 73.435,107.063 73.483,107.063 73.559 M112.128 73.734 C 112.307 73.781,112.600 73.781,112.779 73.734 C 112.958 73.687,112.811 73.649,112.454 73.649 C 112.096 73.649,111.949 73.687,112.128 73.734 M231.459 73.739 C 231.740 73.782,232.200 73.782,232.481 73.739 C 232.763 73.696,232.533 73.662,231.970 73.662 C 231.408 73.662,231.178 73.696,231.459 73.739 M113.585 74.024 C 113.628 74.050,113.956 74.322,114.313 74.628 L 114.963 75.186 114.417 74.582 C 114.117 74.250,113.789 73.978,113.689 73.978 C 113.589 73.978,113.542 73.999,113.585 74.024 M274.301 75.630 C 274.250 75.823,274.270 76.079,274.344 76.199 C 274.418 76.320,274.485 76.164,274.494 75.848 C 274.513 75.201,274.436 75.114,274.301 75.630 M120.138 77.602 C 120.134 79.015,120.154 79.128,120.265 78.331 C 120.338 77.811,120.340 77.059,120.270 76.658 C 120.178 76.134,120.141 76.400,120.138 77.602 M227.250 76.688 C 227.093 77.098,227.114 78.858,227.280 79.118 C 227.355 79.236,227.416 78.671,227.416 77.863 C 227.416 76.264,227.415 76.258,227.250 76.688 M274.269 77.073 C 274.350 77.810,274.559 77.905,275.948 77.834 L 277.230 77.768 275.883 77.732 C 274.558 77.696,274.441 77.634,274.518 77.012 C 274.533 76.892,274.471 76.748,274.381 76.692 C 274.290 76.636,274.240 76.808,274.269 77.073 M222.556 78.439 C 222.556 79.308,222.588 79.663,222.627 79.229 C 222.666 78.794,222.666 78.083,222.627 77.649 C 222.588 77.214,222.556 77.570,222.556 78.439 M194.890 77.698 C 194.952 77.799,195.114 77.881,195.249 77.881 C 195.383 77.881,195.636 78.069,195.810 78.299 L 196.126 78.717 195.868 78.270 C 195.726 78.024,195.422 77.753,195.193 77.668 C 194.929 77.571,194.818 77.581,194.890 77.698 M115.471 78.253 C 115.471 78.611,115.509 78.757,115.556 78.578 C 115.602 78.399,115.602 78.106,115.556 77.928 C 115.509 77.749,115.471 77.895,115.471 78.253 M268.915 77.827 C 269.146 77.871,269.481 77.869,269.658 77.823 C 269.836 77.776,269.647 77.740,269.238 77.742 C 268.829 77.744,268.684 77.782,268.915 77.827 M213.011 78.475 C 214.200 79.580,214.903 80.127,214.312 79.486 C 213.954 79.097,213.494 78.692,213.290 78.584 C 213.086 78.476,212.960 78.427,213.011 78.475 M257.621 78.753 C 257.876 78.934,258.412 79.419,258.810 79.829 L 259.535 80.576 258.968 79.833 C 258.656 79.424,258.121 78.939,257.778 78.756 C 257.195 78.443,257.185 78.443,257.621 78.753 M277.937 79.554 C 277.937 80.116,277.972 80.346,278.014 80.065 C 278.057 79.784,278.057 79.324,278.014 79.043 C 277.972 78.762,277.937 78.992,277.937 79.554 M202.918 79.909 C 202.557 80.309,202.168 80.832,202.055 81.071 C 201.860 81.480,201.868 81.478,202.179 81.043 C 202.361 80.788,202.791 80.265,203.135 79.881 C 203.479 79.497,203.719 79.182,203.668 79.182 C 203.617 79.182,203.279 79.509,202.918 79.909 M285.769 79.786 L 285.223 80.390 285.827 79.844 C 286.390 79.336,286.517 79.182,286.373 79.182 C 286.341 79.182,286.069 79.454,285.769 79.786 M297.584 80.297 C 297.802 80.604,298.023 80.855,298.074 80.855 C 298.125 80.855,297.988 80.604,297.770 80.297 C 297.551 79.991,297.331 79.740,297.280 79.740 C 297.228 79.740,297.365 79.991,297.584 80.297 M175.559 80.576 C 176.304 81.611,176.510 81.803,176.095 81.075 C 175.902 80.736,175.582 80.318,175.384 80.146 C 175.175 79.964,175.248 80.144,175.559 80.576 M259.480 80.688 C 259.480 80.743,259.650 81.117,259.858 81.519 C 260.075 81.939,260.183 82.052,260.112 81.784 C 259.997 81.355,259.480 80.458,259.480 80.688 M222.862 81.036 C 222.862 81.291,223.818 83.121,223.906 83.033 C 223.936 83.003,223.713 82.489,223.411 81.891 C 223.109 81.292,222.862 80.908,222.862 81.036 M168.507 81.208 C 168.276 81.298,168.486 81.343,169.093 81.334 C 169.613 81.326,170.000 81.257,169.953 81.180 C 169.844 81.005,168.983 81.021,168.507 81.208 M208.429 81.183 C 208.311 81.258,208.574 81.320,209.015 81.320 C 209.455 81.320,209.719 81.258,209.601 81.183 C 209.483 81.108,209.219 81.047,209.015 81.047 C 208.810 81.047,208.547 81.108,208.429 81.183 M251.238 81.202 C 251.049 81.276,251.507 81.336,252.260 81.336 C 253.090 81.336,253.442 81.286,253.159 81.207 C 252.547 81.037,251.663 81.034,251.238 81.202 M291.142 81.183 C 291.024 81.258,291.288 81.320,291.729 81.320 C 292.169 81.320,292.433 81.258,292.315 81.183 C 292.197 81.108,291.933 81.047,291.729 81.047 C 291.524 81.047,291.260 81.108,291.142 81.183 M185.217 90.892 C 185.217 96.259,185.240 98.455,185.269 95.771 C 185.298 93.088,185.298 88.697,185.269 86.013 C 185.240 83.329,185.217 85.525,185.217 90.892 M245.544 81.341 C 245.547 81.432,245.777 81.760,246.055 82.070 C 246.616 82.696,246.566 82.537,245.944 81.713 C 245.721 81.418,245.541 81.251,245.544 81.341 M166.813 82.203 L 166.078 82.993 166.912 82.249 C 167.370 81.840,167.781 81.485,167.826 81.459 C 167.870 81.434,167.825 81.413,167.727 81.413 C 167.628 81.413,167.217 81.768,166.813 82.203 M210.316 81.532 C 211.262 82.372,211.611 82.617,211.246 82.185 C 211.044 81.946,210.710 81.664,210.504 81.559 C 210.298 81.453,210.214 81.441,210.316 81.532 M268.587 81.485 C 268.587 81.525,268.880 81.592,269.238 81.634 C 269.596 81.676,269.888 81.643,269.888 81.561 C 269.888 81.479,269.596 81.413,269.238 81.413 C 268.880 81.413,268.587 81.445,268.587 81.485 M274.433 81.613 C 274.275 81.870,274.217 85.305,274.373 85.208 C 274.437 85.169,274.492 84.487,274.495 83.693 C 274.497 82.899,274.508 82.106,274.517 81.932 C 274.532 81.667,274.775 81.604,275.976 81.551 L 277.416 81.487 275.987 81.450 C 275.123 81.427,274.508 81.492,274.433 81.613 M195.539 81.753 C 195.539 81.873,195.309 81.982,195.028 81.996 C 194.559 82.019,194.553 82.028,194.956 82.104 C 195.409 82.190,195.892 81.890,195.666 81.664 C 195.596 81.594,195.539 81.634,195.539 81.753 M113.290 82.726 C 112.983 82.923,112.816 83.083,112.918 83.083 C 113.020 83.083,113.355 82.917,113.662 82.714 C 113.968 82.511,114.136 82.350,114.033 82.357 C 113.931 82.364,113.597 82.530,113.290 82.726 M255.509 82.807 C 255.939 83.541,255.948 83.552,255.948 83.323 C 255.948 83.215,255.776 82.929,255.565 82.688 L 255.182 82.249 255.509 82.807 M118.020 83.411 L 117.379 84.108 118.076 83.467 C 118.725 82.871,118.859 82.714,118.717 82.714 C 118.686 82.714,118.372 83.027,118.020 83.411 M107.227 83.324 C 107.307 83.404,108.370 83.446,109.588 83.416 L 111.803 83.363 109.442 83.271 C 108.143 83.220,107.146 83.244,107.227 83.324 M260.493 90.149 C 260.493 93.982,260.518 95.551,260.548 93.634 C 260.578 91.717,260.578 88.580,260.548 86.664 C 260.518 84.747,260.493 86.315,260.493 90.149 M177.164 83.829 C 177.164 83.982,177.236 84.275,177.323 84.480 C 177.424 84.714,177.483 84.748,177.483 84.572 C 177.483 84.419,177.411 84.126,177.323 83.922 C 177.223 83.688,177.164 83.653,177.164 83.829 M283.483 84.139 C 283.469 84.361,283.409 84.695,283.350 84.883 C 283.249 85.205,283.255 85.205,283.455 84.892 C 283.572 84.711,283.632 84.376,283.588 84.149 C 283.508 83.736,283.508 83.736,283.483 84.139 M299.394 85.059 C 299.448 85.558,299.523 86.001,299.560 86.044 C 299.708 86.212,299.612 84.649,299.460 84.408 C 299.360 84.251,299.334 84.503,299.394 85.059 M255.970 85.272 C 255.994 85.805,256.059 86.197,256.113 86.142 C 256.228 86.027,256.142 84.522,256.013 84.391 C 255.965 84.342,255.946 84.739,255.970 85.272 M225.465 84.810 C 225.465 84.845,225.737 85.073,226.069 85.317 C 226.443 85.590,226.572 85.635,226.409 85.434 C 226.162 85.130,225.465 84.669,225.465 84.810 M216.772 85.502 C 216.772 85.860,216.810 86.006,216.857 85.827 C 216.904 85.648,216.904 85.355,216.857 85.177 C 216.810 84.998,216.772 85.144,216.772 85.502 M172.987 85.781 C 173.128 86.699,173.235 86.856,173.231 86.137 C 173.230 85.839,173.149 85.469,173.051 85.316 C 172.930 85.126,172.909 85.274,172.987 85.781 M235.316 85.495 C 236.226 86.258,236.976 86.724,236.245 86.073 C 235.888 85.754,235.428 85.406,235.223 85.299 C 234.970 85.167,235.000 85.230,235.316 85.495 M295.214 85.967 C 295.216 86.375,295.254 86.521,295.299 86.290 C 295.343 86.058,295.342 85.724,295.295 85.546 C 295.248 85.368,295.212 85.558,295.214 85.967 M212.489 86.753 L 212.454 88.096 208.783 88.151 L 205.112 88.205 208.788 88.248 C 212.970 88.296,212.694 88.416,212.592 86.598 L 212.525 85.409 212.489 86.753 M274.334 85.641 C 274.325 85.718,274.298 85.965,274.273 86.190 C 274.248 86.416,274.286 86.563,274.358 86.519 C 274.491 86.437,274.547 85.502,274.419 85.502 C 274.381 85.502,274.342 85.565,274.334 85.641 M200.311 86.225 C 200.242 86.568,200.195 87.027,200.206 87.244 C 200.217 87.462,200.301 87.263,200.391 86.803 C 200.482 86.343,200.529 85.884,200.496 85.784 C 200.463 85.683,200.379 85.882,200.311 86.225 M283.025 86.225 C 282.956 86.568,282.909 87.027,282.920 87.244 C 282.931 87.462,283.014 87.263,283.105 86.803 C 283.195 86.343,283.243 85.884,283.209 85.784 C 283.176 85.683,283.093 85.882,283.025 86.225 M160.638 86.431 C 160.638 86.789,160.676 86.935,160.723 86.757 C 160.770 86.578,160.770 86.285,160.723 86.106 C 160.676 85.927,160.638 86.073,160.638 86.431 M118.401 86.118 C 118.401 86.150,118.673 86.421,119.006 86.722 L 119.610 87.268 119.064 86.664 C 118.555 86.100,118.401 85.974,118.401 86.118 M177.742 86.710 C 177.744 87.119,177.782 87.264,177.827 87.033 C 177.871 86.802,177.869 86.467,177.823 86.290 C 177.776 86.112,177.740 86.301,177.742 86.710 M287.662 86.345 C 287.599 86.512,287.556 86.871,287.568 87.143 C 287.584 87.515,287.626 87.453,287.734 86.896 C 287.888 86.106,287.854 85.846,287.662 86.345 M165.173 86.664 C 165.021 87.231,165.050 92.207,165.208 92.605 C 165.278 92.780,165.335 91.420,165.335 89.584 C 165.335 87.748,165.323 86.245,165.310 86.245 C 165.296 86.245,165.235 86.434,165.173 86.664 M253.160 86.626 C 252.846 86.733,252.998 86.749,253.625 86.677 C 254.136 86.618,254.589 86.538,254.631 86.500 C 254.778 86.370,253.624 86.468,253.160 86.626 M250.929 86.997 C 250.726 87.135,250.801 87.152,251.208 87.061 C 251.892 86.908,252.040 86.802,251.564 86.806 C 251.368 86.807,251.083 86.894,250.929 86.997 M274.334 86.942 C 274.259 87.643,274.276 90.774,274.357 90.904 C 274.414 90.996,274.464 90.111,274.468 88.937 C 274.475 87.194,274.411 86.236,274.334 86.942 M108.606 87.127 C 109.505 87.162,110.927 87.161,111.766 87.127 C 112.604 87.093,111.868 87.065,110.130 87.065 C 108.392 87.065,107.706 87.093,108.606 87.127 M137.549 87.025 C 137.546 87.193,138.303 88.476,138.406 88.476 C 138.450 88.476,138.361 88.246,138.209 87.965 C 137.830 87.265,137.553 86.870,137.549 87.025 M160.481 89.591 C 160.481 90.869,160.510 91.392,160.547 90.753 C 160.583 90.114,160.583 89.068,160.547 88.429 C 160.510 87.790,160.481 88.313,160.481 89.591 M177.950 89.591 C 177.950 90.664,177.981 91.104,178.018 90.567 C 178.056 90.030,178.056 89.152,178.018 88.615 C 177.981 88.079,177.950 88.518,177.950 89.591 M230.483 87.927 C 231.128 88.365,231.495 88.492,231.041 88.121 C 230.785 87.912,230.493 87.740,230.390 87.739 C 230.288 87.739,230.330 87.823,230.483 87.927 M237.714 88.011 C 238.027 88.617,238.284 88.954,238.283 88.755 C 238.282 88.652,238.111 88.360,237.902 88.104 C 237.649 87.795,237.586 87.764,237.714 88.011 M294.703 88.104 L 294.145 88.246 294.645 88.268 C 294.920 88.280,295.197 88.206,295.260 88.104 C 295.323 88.002,295.349 87.928,295.318 87.940 C 295.286 87.952,295.009 88.026,294.703 88.104 M289.461 88.243 C 290.360 88.277,291.782 88.277,292.621 88.242 C 293.459 88.208,292.723 88.180,290.985 88.180 C 289.247 88.180,288.561 88.208,289.461 88.243 M246.178 89.452 L 245.632 90.056 246.236 89.510 C 246.799 89.001,246.926 88.848,246.782 88.848 C 246.750 88.848,246.478 89.119,246.178 89.452 M216.825 89.951 C 216.762 90.150,216.419 90.568,216.063 90.881 C 215.706 91.194,215.491 91.450,215.585 91.450 C 215.806 91.450,217.100 90.020,217.100 89.776 C 217.100 89.470,216.947 89.567,216.825 89.951 M299.298 90.296 L 298.875 90.985 299.345 90.464 C 299.603 90.177,299.814 89.863,299.814 89.767 C 299.814 89.493,299.751 89.558,299.298 90.296 M252.695 89.963 C 252.194 90.090,252.185 90.105,252.602 90.108 C 252.858 90.110,253.276 90.045,253.532 89.963 C 254.156 89.763,253.481 89.763,252.695 89.963 M116.293 90.558 C 116.450 91.379,116.543 91.450,116.543 90.748 C 116.543 90.431,116.460 90.120,116.360 90.057 C 116.245 89.987,116.220 90.174,116.293 90.558 M256.004 90.892 C 256.004 91.454,256.038 91.684,256.081 91.403 C 256.124 91.122,256.124 90.662,256.081 90.381 C 256.038 90.100,256.004 90.330,256.004 90.892 M140.474 90.837 C 140.704 90.882,141.080 90.882,141.310 90.837 C 141.540 90.793,141.352 90.757,140.892 90.757 C 140.432 90.757,140.244 90.793,140.474 90.837 M238.945 92.247 C 238.967 92.940,239.017 93.540,239.056 93.579 C 239.206 93.729,239.212 92.071,239.063 91.543 C 238.944 91.121,238.915 91.293,238.945 92.247 M207.760 91.403 C 209.115 91.435,211.331 91.435,212.686 91.403 C 214.040 91.371,212.932 91.345,210.223 91.345 C 207.514 91.345,206.406 91.371,207.760 91.403 M290.474 91.403 C 291.829 91.435,294.045 91.435,295.400 91.403 C 296.754 91.371,295.646 91.345,292.937 91.345 C 290.228 91.345,289.119 91.371,290.474 91.403 M204.868 91.822 C 204.864 92.077,204.927 92.663,205.009 93.123 C 205.121 93.750,205.161 93.820,205.170 93.401 C 205.177 93.095,205.114 92.509,205.029 92.100 C 204.933 91.635,204.873 91.531,204.868 91.822 M274.333 91.589 C 274.256 92.258,274.279 94.125,274.366 94.265 C 274.426 94.363,274.476 93.769,274.476 92.946 C 274.476 91.709,274.401 90.999,274.333 91.589 M177.746 92.379 C 177.746 92.839,177.782 93.027,177.826 92.797 C 177.871 92.567,177.871 92.191,177.826 91.961 C 177.782 91.731,177.746 91.919,177.746 92.379 M282.918 92.116 C 282.928 92.414,283.008 92.867,283.095 93.123 C 283.201 93.436,283.218 93.285,283.145 92.658 C 283.024 91.612,282.890 91.291,282.918 92.116 M234.260 92.937 C 234.260 93.601,234.294 93.873,234.335 93.541 C 234.376 93.209,234.376 92.665,234.335 92.333 C 234.294 92.000,234.260 92.272,234.260 92.937 M200.226 92.286 C 200.228 92.491,200.294 92.909,200.372 93.216 C 200.499 93.716,200.514 93.726,200.517 93.309 C 200.519 93.053,200.454 92.635,200.372 92.379 C 200.255 92.015,200.224 91.995,200.226 92.286 M255.991 92.565 C 255.991 92.923,256.029 93.069,256.076 92.890 C 256.123 92.711,256.123 92.419,256.076 92.240 C 256.029 92.061,255.991 92.207,255.991 92.565 M173.076 92.968 C 173.061 93.241,173.000 93.617,172.941 93.805 C 172.840 94.126,172.846 94.127,173.046 93.815 C 173.163 93.633,173.223 93.257,173.181 92.979 L 173.104 92.472 173.076 92.968 M244.367 94.099 C 244.308 94.737,244.321 95.595,244.396 96.004 C 244.497 96.554,244.538 96.253,244.553 94.842 C 244.575 92.657,244.521 92.441,244.367 94.099 M116.335 93.826 C 116.274 94.195,116.301 94.368,116.404 94.265 C 116.498 94.172,116.543 93.897,116.505 93.655 C 116.447 93.283,116.420 93.309,116.335 93.826 M248.742 94.424 C 248.742 94.782,248.780 94.928,248.827 94.749 C 248.874 94.570,248.874 94.277,248.827 94.099 C 248.780 93.920,248.742 94.066,248.742 94.424 M255.991 94.610 C 255.991 94.967,256.029 95.114,256.076 94.935 C 256.123 94.756,256.123 94.463,256.076 94.284 C 256.029 94.105,255.991 94.252,255.991 94.610 M205.306 94.656 C 205.375 94.886,205.509 95.156,205.602 95.256 C 205.696 95.356,205.678 95.168,205.563 94.838 C 205.328 94.163,205.110 94.009,205.306 94.656 M274.257 97.674 C 274.257 99.343,274.306 100.678,274.366 100.640 C 274.498 100.559,274.482 94.866,274.349 94.734 C 274.298 94.682,274.257 96.006,274.257 97.674 M255.948 95.508 C 255.948 95.626,255.637 96.080,255.258 96.514 C 254.603 97.265,254.599 97.276,255.181 96.747 C 255.855 96.134,256.223 95.567,256.056 95.399 C 255.997 95.340,255.948 95.389,255.948 95.508 M224.164 95.920 C 224.808 96.357,225.175 96.485,224.721 96.113 C 224.466 95.904,224.173 95.733,224.071 95.732 C 223.968 95.731,224.010 95.816,224.164 95.920 M214.573 96.311 C 214.488 96.449,214.523 96.475,214.669 96.385 C 214.804 96.302,215.102 96.424,215.395 96.681 L 215.892 97.119 215.442 96.608 C 214.947 96.047,214.773 95.988,214.573 96.311 M297.287 96.311 C 297.202 96.448,297.236 96.475,297.381 96.386 C 297.508 96.307,297.785 96.396,298.014 96.590 L 298.420 96.933 298.066 96.515 C 297.669 96.046,297.481 95.997,297.287 96.311 M114.813 96.753 C 114.526 97.005,114.365 97.212,114.455 97.212 C 114.545 97.212,114.816 97.003,115.056 96.747 C 115.611 96.156,115.488 96.159,114.813 96.753 M166.542 96.794 C 166.785 97.126,167.013 97.398,167.049 97.398 C 167.190 97.398,166.729 96.701,166.424 96.453 C 166.224 96.290,166.269 96.420,166.542 96.794 M222.249 96.422 C 222.105 96.679,221.901 97.677,222.017 97.562 C 222.155 97.424,222.493 96.283,222.396 96.283 C 222.358 96.283,222.292 96.345,222.249 96.422 M171.283 97.150 C 170.874 97.517,170.706 97.730,170.911 97.624 C 171.255 97.446,172.282 96.459,172.105 96.476 C 172.062 96.480,171.691 96.784,171.283 97.150 M201.304 96.747 C 201.303 96.953,202.215 98.492,202.225 98.300 C 202.228 98.233,202.022 97.815,201.768 97.370 C 201.514 96.925,201.305 96.645,201.304 96.747 M260.638 97.770 C 260.638 98.127,260.676 98.274,260.723 98.095 C 260.770 97.916,260.770 97.623,260.723 97.444 C 260.676 97.265,260.638 97.412,260.638 97.770 M107.063 97.630 C 107.063 97.707,108.381 97.754,109.991 97.735 C 112.980 97.700,112.632 97.627,109.061 97.540 C 107.962 97.513,107.063 97.553,107.063 97.630 M228.485 97.533 C 228.868 97.573,229.496 97.573,229.879 97.533 C 230.263 97.493,229.949 97.460,229.182 97.460 C 228.415 97.460,228.102 97.493,228.485 97.533 M284.387 97.506 C 284.387 97.689,285.874 99.609,286.133 99.759 C 286.246 99.824,286.203 99.717,286.037 99.521 C 285.872 99.324,285.433 98.760,285.062 98.266 C 284.690 97.773,284.387 97.431,284.387 97.506 M168.730 98.017 C 169.204 98.124,169.672 98.128,169.893 98.029 C 170.162 97.908,169.945 97.859,169.100 97.851 C 167.940 97.839,167.939 97.840,168.730 98.017 M209.944 97.955 L 209.201 98.089 209.851 98.096 C 210.209 98.101,210.711 98.037,210.967 97.955 C 211.564 97.764,211.012 97.764,209.944 97.955 M251.348 98.013 C 251.755 98.109,252.334 98.109,252.742 98.013 C 253.348 97.869,253.257 97.847,252.045 97.847 C 250.832 97.847,250.741 97.869,251.348 98.013 M292.658 97.955 L 291.914 98.089 292.565 98.096 C 292.923 98.101,293.425 98.037,293.680 97.955 C 294.278 97.764,293.726 97.764,292.658 97.955 M236.517 99.117 L 235.595 100.093 236.571 99.171 C 237.107 98.663,237.546 98.224,237.546 98.195 C 237.546 98.056,237.374 98.210,236.517 99.117 M118.587 99.282 L 117.751 100.039 118.538 99.448 C 119.223 98.935,119.663 98.501,119.481 98.519 C 119.450 98.522,119.047 98.865,118.587 99.282 M128.482 99.628 C 128.482 99.986,128.520 100.132,128.567 99.954 C 128.614 99.775,128.614 99.482,128.567 99.303 C 128.520 99.124,128.482 99.270,128.482 99.628 M255.415 99.830 C 254.890 100.248,254.461 100.634,254.461 100.689 C 254.461 100.743,254.858 100.471,255.344 100.084 C 256.496 99.164,256.600 99.071,256.474 99.071 C 256.416 99.071,255.939 99.412,255.415 99.830 M102.416 100.697 C 102.416 101.406,103.079 101.488,108.452 101.446 L 113.662 101.405 108.303 101.307 C 103.274 101.214,102.927 101.186,102.680 100.847 C 102.535 100.649,102.416 100.581,102.416 100.697 M129.432 101.345 C 129.715 101.525,132.295 101.527,132.406 101.348 C 132.453 101.271,131.755 101.208,130.854 101.208 C 129.953 101.208,129.313 101.270,129.432 101.345 M151.208 101.301 L 149.907 101.421 151.115 101.451 C 151.780 101.468,152.449 101.400,152.602 101.301 C 152.756 101.202,152.797 101.134,152.695 101.151 C 152.593 101.167,151.924 101.235,151.208 101.301 M186.104 101.333 C 186.233 101.414,186.882 101.473,187.546 101.463 C 188.934 101.441,188.720 101.354,187.034 101.253 C 186.394 101.215,185.976 101.251,186.104 101.333 M212.454 101.301 C 212.071 101.424,212.054 101.453,212.361 101.466 C 212.565 101.474,212.858 101.400,213.011 101.301 C 213.337 101.091,213.111 101.091,212.454 101.301 M258.364 101.301 L 257.528 101.431 258.271 101.441 C 258.680 101.446,259.224 101.383,259.480 101.301 C 260.067 101.113,259.574 101.113,258.364 101.301 M270.863 101.333 C 270.991 101.414,271.640 101.473,272.305 101.463 C 273.693 101.441,273.478 101.354,271.792 101.253 C 271.152 101.215,270.734 101.251,270.863 101.333 M289.033 101.282 C 289.187 101.376,289.647 101.502,290.056 101.562 C 290.582 101.639,290.664 101.625,290.335 101.516 C 289.481 101.232,288.735 101.098,289.033 101.282 M168.913 101.804 C 169.143 101.848,169.519 101.848,169.749 101.804 C 169.979 101.760,169.791 101.723,169.331 101.723 C 168.871 101.723,168.683 101.760,168.913 101.804 M209.247 101.804 C 209.477 101.848,209.854 101.848,210.084 101.804 C 210.314 101.760,210.125 101.723,209.665 101.723 C 209.205 101.723,209.017 101.760,209.247 101.804 M229.043 101.806 C 229.324 101.849,229.784 101.849,230.065 101.806 C 230.346 101.763,230.116 101.729,229.554 101.729 C 228.992 101.729,228.762 101.763,229.043 101.806 M250.513 101.804 C 250.745 101.849,251.079 101.847,251.257 101.801 C 251.435 101.754,251.245 101.718,250.836 101.720 C 250.428 101.722,250.282 101.760,250.513 101.804 M291.961 101.804 C 292.191 101.848,292.567 101.848,292.797 101.804 C 293.027 101.760,292.839 101.723,292.379 101.723 C 291.919 101.723,291.731 101.760,291.961 101.804 M218.030 123.282 C 218.030 123.309,219.682 124.961,221.701 126.953 L 225.372 130.576 221.749 126.905 C 218.383 123.494,218.030 123.150,218.030 123.282 M213.964 124.042 C 213.655 124.415,213.509 125.366,213.648 126.106 C 213.757 126.691,216.357 129.857,216.357 129.406 C 216.357 129.327,215.899 128.810,215.339 128.257 C 213.797 126.735,213.391 125.515,214.024 124.303 C 214.313 123.747,214.291 123.648,213.964 124.042 M219.424 127.138 C 219.823 127.546,220.192 127.881,220.243 127.881 C 220.294 127.881,220.009 127.546,219.610 127.138 C 219.210 126.729,218.842 126.394,218.791 126.394 C 218.740 126.394,219.024 126.729,219.424 127.138 M220.818 128.497 C 220.818 128.529,221.090 128.801,221.422 129.101 L 222.026 129.647 221.480 129.043 C 220.971 128.480,220.818 128.353,220.818 128.497 M203.950 129.501 C 204.231 129.544,204.691 129.544,204.972 129.501 C 205.253 129.459,205.023 129.424,204.461 129.424 C 203.899 129.424,203.669 129.459,203.950 129.501 M208.403 132.244 C 209.805 133.669,210.976 134.797,211.006 134.750 C 211.035 134.704,209.888 133.538,208.457 132.159 L 205.855 129.653 208.403 132.244 M215.509 130.344 L 214.963 130.948 215.567 130.402 C 216.130 129.893,216.256 129.740,216.113 129.740 C 216.081 129.740,215.809 130.012,215.509 130.344 M222.491 130.170 C 222.491 130.202,222.763 130.474,223.095 130.774 L 223.699 131.320 223.153 130.716 C 222.644 130.153,222.491 130.026,222.491 130.170 M219.610 132.714 C 220.731 133.838,221.690 134.758,221.741 134.758 C 221.792 134.758,220.917 133.838,219.796 132.714 C 218.674 131.589,217.715 130.669,217.664 130.669 C 217.613 130.669,218.489 131.589,219.610 132.714 M226.301 131.599 C 226.805 132.110,227.258 132.528,227.309 132.528 C 227.361 132.528,226.990 132.110,226.487 131.599 C 225.984 131.087,225.530 130.669,225.479 130.669 C 225.428 130.669,225.798 131.087,226.301 131.599 M214.208 131.645 L 213.662 132.249 214.266 131.703 C 214.829 131.194,214.955 131.041,214.812 131.041 C 214.780 131.041,214.508 131.313,214.208 131.645 M206.970 133.271 C 207.989 134.294,208.864 135.130,208.915 135.130 C 208.966 135.130,208.175 134.294,207.156 133.271 C 206.138 132.249,205.263 131.413,205.211 131.413 C 205.160 131.413,205.952 132.249,206.970 133.271 M224.442 132.156 C 224.842 132.565,225.210 132.900,225.261 132.900 C 225.312 132.900,225.028 132.565,224.628 132.156 C 224.229 131.747,223.860 131.413,223.809 131.413 C 223.758 131.413,224.043 131.747,224.442 132.156 M212.724 133.132 L 211.989 133.922 212.779 133.187 C 213.513 132.504,213.654 132.342,213.514 132.342 C 213.483 132.342,213.128 132.697,212.724 133.132 M228.245 133.504 C 229.015 134.324,229.182 134.472,229.182 134.332 C 229.182 134.303,228.785 133.905,228.299 133.449 L 227.416 132.621 228.245 133.504 M204.301 133.430 C 204.419 133.619,204.692 133.880,204.907 134.011 C 205.180 134.176,205.134 134.073,204.751 133.666 C 204.130 133.005,203.990 132.932,204.301 133.430 M214.579 133.690 L 214.033 134.294 214.638 133.748 C 215.201 133.239,215.327 133.086,215.183 133.086 C 215.151 133.086,214.880 133.357,214.579 133.690 M225.465 133.144 C 225.465 133.176,225.737 133.447,226.069 133.748 L 226.673 134.294 226.127 133.690 C 225.618 133.126,225.465 133.000,225.465 133.144 M202.595 134.249 L 203.043 134.763 202.408 135.458 L 201.773 136.152 202.509 135.456 L 203.245 134.759 202.697 134.248 L 202.148 133.736 202.595 134.249 M206.227 135.316 C 206.730 135.827,207.184 136.245,207.235 136.245 C 207.286 136.245,206.916 135.827,206.413 135.316 C 205.909 134.805,205.455 134.387,205.404 134.387 C 205.353 134.387,205.723 134.805,206.227 135.316 M212.907 135.362 L 212.361 135.967 212.965 135.421 C 213.528 134.912,213.654 134.758,213.511 134.758 C 213.479 134.758,213.207 135.030,212.907 135.362 M208.938 135.362 C 208.981 135.388,209.309 135.660,209.666 135.967 L 210.316 136.524 209.770 135.920 C 209.470 135.588,209.142 135.316,209.042 135.316 C 208.942 135.316,208.895 135.337,208.938 135.362 M220.159 136.292 L 219.424 137.082 220.214 136.347 C 220.948 135.664,221.089 135.502,220.949 135.502 C 220.918 135.502,220.563 135.857,220.159 136.292 M204.368 136.241 C 204.572 136.328,207.354 139.023,210.548 142.230 C 213.743 145.438,216.357 148.017,216.357 147.961 C 216.357 147.709,204.520 136.061,204.274 136.071 C 204.092 136.079,204.124 136.137,204.368 136.241 M222.566 136.478 L 222.212 136.896 222.636 136.536 L 223.060 136.177 224.123 137.187 L 225.186 138.197 224.170 137.128 C 223.009 135.907,223.039 135.919,222.566 136.478 M201.011 136.849 L 200.465 137.454 201.069 136.908 C 201.632 136.399,201.758 136.245,201.615 136.245 C 201.583 136.245,201.311 136.517,201.011 136.849 M207.917 137.082 C 208.172 137.337,208.434 137.546,208.498 137.546 C 208.562 137.546,208.419 137.337,208.178 137.082 C 207.938 136.826,207.677 136.617,207.597 136.617 C 207.517 136.617,207.661 136.826,207.917 137.082 M227.459 136.820 C 227.278 136.925,226.944 136.959,226.716 136.895 C 226.390 136.804,226.361 136.821,226.580 136.974 C 226.959 137.239,227.188 137.223,227.613 136.902 C 228.030 136.587,227.941 136.540,227.459 136.820 M213.848 137.732 C 214.351 138.243,214.805 138.662,214.856 138.662 C 214.907 138.662,214.537 138.243,214.033 137.732 C 213.530 137.221,213.076 136.803,213.025 136.803 C 212.974 136.803,213.344 137.221,213.848 137.732 M221.457 137.593 L 220.911 138.197 221.515 137.651 C 222.078 137.142,222.204 136.989,222.061 136.989 C 222.029 136.989,221.757 137.261,221.457 137.593 M199.709 138.151 L 199.164 138.755 199.768 138.209 C 200.331 137.700,200.457 137.546,200.314 137.546 C 200.282 137.546,200.010 137.818,199.709 138.151 M219.973 139.080 L 219.238 139.870 220.028 139.135 C 220.462 138.731,220.818 138.376,220.818 138.345 C 220.818 138.205,220.656 138.345,219.973 139.080 M197.023 140.846 L 195.074 142.844 197.072 140.896 C 198.928 139.086,199.155 138.848,199.021 138.848 C 198.993 138.848,198.094 139.747,197.023 140.846 M210.512 139.603 C 210.915 140.069,211.283 140.422,211.329 140.386 C 211.375 140.351,211.045 139.969,210.596 139.538 L 209.779 138.755 210.512 139.603 M217.003 139.410 C 216.673 139.754,216.353 139.930,216.178 139.864 C 215.947 139.776,215.937 139.800,216.128 139.992 C 216.318 140.184,216.495 140.098,217.054 139.538 C 217.434 139.158,217.699 138.848,217.643 138.848 C 217.587 138.848,217.299 139.101,217.003 139.410 M205.669 140.149 C 206.068 140.558,206.437 140.892,206.488 140.892 C 206.539 140.892,206.254 140.558,205.855 140.149 C 205.456 139.740,205.087 139.405,205.036 139.405 C 204.985 139.405,205.270 139.740,205.669 140.149 M199.895 140.381 L 199.349 140.985 199.954 140.439 C 200.517 139.930,200.643 139.777,200.499 139.777 C 200.467 139.777,200.196 140.049,199.895 140.381 M218.312 140.703 C 217.914 141.110,217.626 141.471,217.670 141.505 C 217.715 141.539,218.075 141.206,218.472 140.765 C 219.378 139.758,219.274 139.718,218.312 140.703 M213.941 140.393 C 213.941 140.425,214.212 140.697,214.545 140.997 L 215.149 141.543 214.603 140.939 C 214.094 140.376,213.941 140.249,213.941 140.393 M206.520 141.487 C 206.512 141.661,206.359 141.888,206.180 141.993 C 206.001 142.097,205.949 142.185,206.065 142.188 C 206.371 142.196,206.742 141.687,206.631 141.410 C 206.569 141.256,206.530 141.284,206.520 141.487 M198.223 142.054 L 197.677 142.658 198.281 142.112 C 198.844 141.603,198.970 141.450,198.827 141.450 C 198.795 141.450,198.523 141.722,198.223 142.054 M212.665 141.794 C 212.784 141.983,213.056 142.245,213.271 142.375 C 213.545 142.541,213.498 142.437,213.116 142.031 C 212.494 141.369,212.354 141.296,212.665 141.794 M215.892 142.379 C 216.291 142.788,216.660 143.123,216.711 143.123 C 216.762 143.123,216.477 142.788,216.078 142.379 C 215.679 141.970,215.310 141.636,215.259 141.636 C 215.208 141.636,215.493 141.970,215.892 142.379 M218.030 141.880 C 218.030 141.912,218.302 142.184,218.634 142.484 L 219.238 143.030 218.692 142.426 C 218.183 141.863,218.030 141.736,218.030 141.880 M201.321 142.612 C 201.366 142.637,201.903 143.118,202.514 143.680 L 203.625 144.703 202.609 143.634 C 202.050 143.046,201.513 142.565,201.416 142.565 C 201.319 142.565,201.276 142.586,201.321 142.612 M194.319 143.541 L 193.773 144.145 194.377 143.599 C 194.940 143.090,195.067 142.937,194.923 142.937 C 194.891 142.937,194.619 143.209,194.319 143.541 M196.550 143.704 C 196.167 144.110,196.121 144.213,196.394 144.048 C 196.732 143.843,197.325 143.123,197.155 143.123 C 197.122 143.123,196.850 143.384,196.550 143.704 M214.336 143.447 C 214.682 143.888,214.898 144.097,215.335 144.415 C 215.539 144.563,215.376 144.333,214.972 143.904 C 214.225 143.110,213.871 142.856,214.336 143.447 M200.351 143.827 C 200.622 144.330,204.779 148.327,205.032 148.327 C 205.158 148.327,204.934 148.088,204.535 147.796 C 204.137 147.504,202.994 146.420,201.996 145.387 C 200.997 144.354,200.258 143.652,200.351 143.827 M220.725 144.610 C 221.124 145.019,221.493 145.353,221.544 145.353 C 221.595 145.353,221.310 145.019,220.911 144.610 C 220.511 144.201,220.143 143.866,220.092 143.866 C 220.041 143.866,220.326 144.201,220.725 144.610 M193.018 144.842 L 192.472 145.446 193.076 144.900 C 193.639 144.391,193.766 144.238,193.622 144.238 C 193.590 144.238,193.318 144.510,193.018 144.842 M190.378 147.447 C 189.332 148.497,188.476 149.405,188.476 149.464 C 188.476 149.524,189.333 148.703,190.381 147.640 C 192.633 145.356,192.461 145.539,192.360 145.539 C 192.316 145.539,191.424 146.398,190.378 147.447 M197.063 146.134 C 196.693 146.504,196.809 146.987,197.419 147.627 L 197.998 148.234 197.512 147.616 C 196.983 146.943,196.901 146.481,197.249 146.134 C 197.372 146.011,197.430 145.911,197.379 145.911 C 197.328 145.911,197.186 146.011,197.063 146.134 M220.446 146.747 C 220.793 147.105,221.118 147.398,221.170 147.398 C 221.221 147.398,220.979 147.105,220.632 146.747 C 220.285 146.389,219.960 146.097,219.908 146.097 C 219.857 146.097,220.099 146.389,220.446 146.747 M223.039 148.090 C 222.988 148.522,223.017 148.804,223.104 148.718 C 223.190 148.631,223.232 148.278,223.197 147.933 C 223.134 147.320,223.130 147.324,223.039 148.090 M199.802 148.048 C 199.732 148.533,199.645 148.606,199.134 148.605 C 198.812 148.605,198.587 148.667,198.634 148.745 C 198.985 149.313,200.077 148.630,199.955 147.919 C 199.892 147.547,199.871 147.564,199.802 148.048 M191.901 148.375 L 191.357 148.976 191.914 148.512 C 192.221 148.257,192.507 148.027,192.550 148.002 C 192.592 147.976,192.586 147.914,192.536 147.864 C 192.486 147.814,192.200 148.044,191.901 148.375 M205.483 158.968 L 194.888 169.610 205.530 159.015 C 215.421 149.168,216.254 148.327,216.124 148.327 C 216.098 148.327,211.309 153.116,205.483 158.968 M193.717 149.480 C 193.454 149.743,193.423 150.306,193.663 150.454 C 193.756 150.511,193.788 150.390,193.734 150.185 C 193.680 149.980,193.740 149.687,193.867 149.534 C 194.142 149.203,194.034 149.163,193.717 149.480 M197.030 151.394 C 198.203 152.621,199.202 153.600,199.248 153.571 C 199.295 153.541,198.335 152.538,197.115 151.340 L 194.896 149.164 197.030 151.394 M190.230 150.023 C 189.848 150.430,189.801 150.533,190.075 150.367 C 190.412 150.163,191.005 149.442,190.836 149.442 C 190.803 149.442,190.530 149.704,190.230 150.023 M206.316 160.502 C 200.232 166.585,195.297 171.561,195.350 171.561 C 195.404 171.561,200.424 166.585,206.506 160.502 C 212.588 154.419,217.522 149.443,217.472 149.443 C 217.421 149.443,212.401 154.420,206.316 160.502 M186.983 150.883 L 185.781 152.138 187.035 150.935 C 187.725 150.273,188.290 149.709,188.290 149.680 C 188.290 149.543,188.101 149.718,186.983 150.883 M240.233 152.741 L 240.242 155.112 300.232 155.112 L 360.223 155.112 300.284 155.065 L 240.346 155.018 240.285 152.695 L 240.224 150.371 240.233 152.741 M185.025 152.835 L 184.480 153.439 185.084 152.893 C 185.416 152.592,185.688 152.321,185.688 152.289 C 185.688 152.145,185.534 152.271,185.025 152.835 M192.286 153.346 C 192.686 153.755,193.054 154.089,193.105 154.089 C 193.156 154.089,192.871 153.755,192.472 153.346 C 192.073 152.937,191.704 152.602,191.653 152.602 C 191.602 152.602,191.887 152.937,192.286 153.346 M182.981 154.879 L 182.435 155.483 183.039 154.937 C 183.371 154.637,183.643 154.365,183.643 154.333 C 183.643 154.190,183.490 154.316,182.981 154.879 M191.980 155.437 C 192.074 155.531,192.348 155.577,192.590 155.539 C 192.962 155.480,192.936 155.454,192.420 155.368 C 192.050 155.307,191.877 155.334,191.980 155.437 M189.126 156.877 C 189.630 157.388,190.084 157.807,190.135 157.807 C 190.186 157.807,189.816 157.388,189.312 156.877 C 188.809 156.366,188.355 155.948,188.304 155.948 C 188.253 155.948,188.623 156.366,189.126 156.877 M183.537 156.739 L 182.993 157.341 183.550 156.877 C 183.857 156.621,184.143 156.392,184.185 156.366 C 184.228 156.341,184.222 156.279,184.172 156.229 C 184.122 156.179,183.836 156.408,183.537 156.739 M189.030 159.154 C 190.102 160.253,191.001 161.152,191.028 161.152 C 191.163 161.152,190.936 160.914,189.080 159.104 L 187.082 157.156 189.030 159.154 M180.341 159.480 C 180.341 159.837,180.379 159.984,180.426 159.805 C 180.472 159.626,180.472 159.333,180.426 159.154 C 180.379 158.975,180.341 159.122,180.341 159.480 M182.257 160.641 C 182.327 160.871,182.460 161.141,182.554 161.241 C 182.647 161.341,182.630 161.153,182.515 160.823 C 182.279 160.148,182.062 159.994,182.257 160.641 M186.343 160.632 C 186.529 160.939,186.601 161.301,186.527 161.562 C 186.434 161.894,186.450 161.927,186.602 161.710 C 186.887 161.303,186.849 161.060,186.420 160.569 L 186.037 160.130 186.343 160.632 M181.717 163.662 C 181.785 163.839,181.652 164.163,181.390 164.461 L 180.948 164.963 181.459 164.512 C 181.988 164.046,182.105 163.674,181.787 163.477 C 181.680 163.411,181.651 163.489,181.717 163.662 M186.431 166.976 C 186.431 167.027,186.766 167.334,187.175 167.658 C 187.584 167.982,187.918 168.205,187.918 168.154 C 187.918 168.103,187.584 167.796,187.175 167.472 C 186.766 167.148,186.431 166.925,186.431 166.976 M180.968 167.394 C 180.765 167.922,180.848 168.352,181.238 168.799 L 181.621 169.238 181.308 168.725 C 181.104 168.390,181.034 168.017,181.106 167.656 C 181.226 167.058,181.151 166.917,180.968 167.394 M184.944 167.902 C 184.944 167.934,185.216 168.206,185.548 168.506 L 186.152 169.052 185.606 168.448 C 185.098 167.885,184.944 167.758,184.944 167.902 M182.846 170.445 C 183.482 171.100,184.028 171.599,184.060 171.553 C 184.093 171.506,183.573 170.970,182.905 170.360 L 181.691 169.252 182.846 170.445 M185.397 171.050 L 184.851 171.654 185.455 171.108 C 185.788 170.808,186.059 170.536,186.059 170.504 C 186.059 170.361,185.906 170.487,185.397 171.050 M187.447 171.608 L 186.524 172.584 187.454 171.723 C 187.965 171.249,188.508 170.817,188.662 170.762 C 188.905 170.674,188.904 170.659,188.655 170.647 C 188.498 170.639,187.954 171.071,187.447 171.608 M190.914 171.645 C 190.976 171.707,191.305 171.838,191.644 171.936 C 191.984 172.033,192.183 172.041,192.088 171.954 C 191.891 171.773,190.739 171.470,190.914 171.645 M177.415 176.255 L 173.327 180.390 177.463 176.303 C 181.306 172.505,181.682 172.119,181.550 172.119 C 181.524 172.119,179.663 173.980,177.415 176.255 " stroke="none" fill="#989c9e" fill-rule="evenodd"></path><path id="path3" d="M148.785 90.799 C 148.785 96.217,148.809 98.407,148.838 95.665 C 148.867 92.924,148.867 88.490,148.838 85.814 C 148.809 83.138,148.785 85.381,148.785 90.799 " stroke="none" fill="#93949c" fill-rule="evenodd"></path><path id="path4" d="M85.719 25.046 C 110.834 25.072,151.986 25.072,177.169 25.046 C 202.351 25.020,181.803 24.999,131.506 24.999 C 81.208 24.999,60.604 25.020,85.719 25.046 M45.073 66.822 C 45.073 87.063,45.094 95.316,45.121 85.162 C 45.147 75.007,45.147 58.446,45.121 48.359 C 45.094 38.272,45.073 46.580,45.073 66.822 M113.213 69.769 C 113.255 69.805,113.583 69.889,113.941 69.954 C 114.398 70.038,114.508 70.020,114.312 69.891 C 114.060 69.726,113.028 69.611,113.213 69.769 M128.785 70.085 L 128.346 70.468 128.903 70.142 C 129.637 69.712,129.648 69.703,129.420 69.703 C 129.312 69.703,129.026 69.875,128.785 70.085 M152.432 69.759 C 152.474 69.790,152.760 69.962,153.067 70.142 L 153.625 70.468 153.186 70.085 C 152.944 69.875,152.659 69.703,152.551 69.703 C 152.443 69.703,152.389 69.728,152.432 69.759 M102.319 85.595 C 102.319 93.875,102.342 97.290,102.370 93.183 C 102.398 89.076,102.398 82.301,102.370 78.127 C 102.342 73.954,102.319 77.314,102.319 85.595 M118.123 71.933 C 118.626 72.444,119.080 72.862,119.131 72.862 C 119.182 72.862,118.812 72.444,118.309 71.933 C 117.805 71.422,117.351 71.004,117.300 71.004 C 117.249 71.004,117.619 71.422,118.123 71.933 M153.620 85.316 C 153.620 92.830,153.643 95.904,153.671 92.147 C 153.699 88.390,153.699 82.242,153.671 78.485 C 153.643 74.728,153.620 77.802,153.620 85.316 M107.147 73.842 C 107.097 73.972,107.079 76.125,107.106 78.628 L 107.156 83.178 109.387 83.187 L 111.617 83.196 109.433 83.135 L 107.249 83.074 107.249 78.438 L 107.249 73.803 109.619 73.745 L 111.989 73.687 109.613 73.646 C 107.835 73.616,107.215 73.665,107.147 73.842 M114.218 74.722 C 115.099 75.752,115.111 75.763,114.910 75.372 C 114.804 75.167,114.480 74.791,114.190 74.536 L 113.662 74.072 114.218 74.722 M120.107 75.372 C 120.101 75.576,120.165 76.078,120.250 76.487 C 120.379 77.112,120.403 77.142,120.403 76.673 C 120.402 76.022,120.124 74.800,120.107 75.372 M222.607 75.937 C 222.543 76.103,222.498 76.378,222.507 76.549 C 222.515 76.719,222.596 76.612,222.686 76.310 C 222.862 75.724,222.800 75.433,222.607 75.937 M115.059 76.224 C 115.060 76.471,115.144 76.798,115.244 76.952 C 115.373 77.148,115.392 77.038,115.308 76.580 C 115.161 75.778,115.055 75.627,115.059 76.224 M168.448 77.460 C 168.934 77.498,169.728 77.498,170.214 77.460 C 170.699 77.422,170.302 77.390,169.331 77.390 C 168.360 77.390,167.962 77.422,168.448 77.460 M193.216 77.416 C 193.662 77.569,195.365 77.631,195.137 77.486 C 195.000 77.400,194.470 77.334,193.959 77.341 C 193.448 77.347,193.113 77.381,193.216 77.416 M208.231 77.460 C 208.719 77.499,209.472 77.498,209.903 77.459 C 210.335 77.420,209.935 77.389,209.015 77.389 C 208.095 77.390,207.742 77.422,208.231 77.460 M120.290 78.183 C 120.274 78.503,120.219 79.046,120.168 79.391 L 120.076 80.019 120.271 79.395 C 120.379 79.052,120.434 78.509,120.393 78.187 L 120.320 77.602 120.290 78.183 M144.368 78.427 C 144.194 78.720,144.052 79.031,144.053 79.118 C 144.053 79.204,144.225 78.994,144.435 78.650 C 144.644 78.306,144.786 77.995,144.749 77.959 C 144.713 77.922,144.541 78.133,144.368 78.427 M173.048 78.114 C 173.048 78.163,173.404 78.433,173.838 78.714 C 174.273 78.994,174.906 79.528,175.247 79.900 L 175.865 80.576 175.374 79.893 C 175.105 79.517,174.680 79.078,174.431 78.917 C 174.182 78.756,173.769 78.489,173.513 78.324 C 173.257 78.159,173.048 78.064,173.048 78.114 M212.908 78.297 C 213.107 78.426,213.693 78.905,214.209 79.362 L 215.149 80.192 214.405 79.393 C 213.996 78.953,213.411 78.474,213.104 78.328 C 212.797 78.181,212.709 78.167,212.908 78.297 M133.088 79.476 C 133.090 80.081,133.153 80.673,133.228 80.791 C 133.303 80.909,133.356 80.469,133.346 79.813 C 133.336 79.156,133.274 78.565,133.207 78.498 C 133.140 78.431,133.087 78.872,133.088 79.476 M148.664 79.275 C 148.705 79.633,148.772 79.926,148.812 79.926 C 148.852 79.926,148.885 79.633,148.885 79.275 C 148.885 78.917,148.818 78.625,148.736 78.625 C 148.655 78.625,148.622 78.917,148.664 79.275 M189.321 79.972 C 189.390 80.202,189.524 80.472,189.617 80.572 C 189.711 80.672,189.693 80.484,189.578 80.154 C 189.343 79.479,189.125 79.325,189.321 79.972 M196.140 80.297 C 196.140 80.655,196.178 80.802,196.225 80.623 C 196.272 80.444,196.272 80.151,196.225 79.972 C 196.178 79.793,196.140 79.940,196.140 80.297 M184.791 80.390 C 184.785 80.595,184.849 81.097,184.934 81.506 C 185.063 82.131,185.087 82.160,185.087 81.691 C 185.086 81.040,184.808 79.819,184.791 80.390 M167.530 81.738 C 167.335 81.917,167.285 81.990,167.418 81.900 C 167.551 81.810,167.932 81.673,168.263 81.594 C 168.816 81.463,168.825 81.449,168.376 81.432 C 168.106 81.421,167.725 81.559,167.530 81.738 M193.680 81.962 C 193.834 82.066,194.119 82.152,194.315 82.153 C 194.791 82.157,194.643 82.051,193.959 81.898 C 193.552 81.807,193.477 81.824,193.680 81.962 M206.251 82.760 L 205.917 83.364 206.300 82.900 C 206.640 82.488,206.791 82.156,206.639 82.156 C 206.610 82.156,206.435 82.428,206.251 82.760 M118.227 83.326 C 117.446 84.242,117.439 84.259,118.103 83.643 C 118.691 83.097,119.293 82.321,119.105 82.350 C 119.076 82.355,118.681 82.794,118.227 83.326 M166.429 82.812 C 166.259 83.071,166.154 83.317,166.196 83.358 C 166.237 83.399,166.412 83.188,166.584 82.888 C 166.968 82.219,166.854 82.164,166.429 82.812 M140.000 83.360 C 140.223 83.818,140.437 84.161,140.476 84.122 C 140.560 84.038,139.809 82.528,139.683 82.528 C 139.635 82.528,139.778 82.902,140.000 83.360 M190.514 83.280 C 190.186 83.694,189.949 84.061,189.987 84.096 C 190.025 84.131,190.330 83.793,190.666 83.344 C 191.432 82.319,191.314 82.269,190.514 83.280 M133.255 83.597 C 133.178 84.265,133.201 86.132,133.288 86.273 C 133.348 86.370,133.398 85.777,133.398 84.954 C 133.398 83.717,133.323 83.007,133.255 83.597 M216.569 83.829 C 216.569 83.982,216.641 84.275,216.729 84.480 C 216.829 84.714,216.888 84.748,216.888 84.572 C 216.888 84.419,216.816 84.126,216.729 83.922 C 216.628 83.688,216.569 83.653,216.569 83.829 M116.868 84.402 C 116.514 84.608,116.422 85.130,116.740 85.130 C 116.848 85.130,116.881 85.041,116.814 84.932 C 116.747 84.823,116.846 84.616,117.035 84.473 C 117.436 84.169,117.338 84.128,116.868 84.402 M172.617 84.758 C 172.826 85.886,173.052 86.422,172.931 85.502 C 172.870 85.042,172.748 84.540,172.659 84.387 C 172.559 84.214,172.543 84.356,172.617 84.758 M141.109 84.935 C 141.000 85.247,140.951 85.502,140.999 85.502 C 141.125 85.502,141.476 84.536,141.384 84.444 C 141.341 84.402,141.218 84.623,141.109 84.935 M189.777 92.602 C 189.726 97.172,189.748 100.847,189.825 100.770 C 189.903 100.692,189.945 96.953,189.918 92.461 L 189.870 84.294 189.777 92.602 M177.629 85.316 C 177.776 86.118,177.882 86.269,177.878 85.672 C 177.877 85.425,177.793 85.098,177.693 84.944 C 177.564 84.748,177.545 84.858,177.629 85.316 M200.297 85.520 C 200.229 85.946,200.210 86.331,200.254 86.376 C 200.299 86.420,200.393 86.110,200.465 85.688 C 200.536 85.265,200.556 84.880,200.508 84.833 C 200.460 84.785,200.366 85.094,200.297 85.520 M165.478 86.059 C 165.478 86.520,165.514 86.708,165.559 86.478 C 165.603 86.248,165.603 85.871,165.559 85.641 C 165.514 85.411,165.478 85.599,165.478 86.059 M160.525 85.788 C 160.461 85.954,160.420 86.397,160.434 86.772 C 160.456 87.381,160.473 87.355,160.593 86.524 C 160.735 85.535,160.713 85.296,160.525 85.788 M217.060 87.082 C 217.109 88.002,217.180 88.789,217.218 88.832 C 217.346 88.977,217.250 86.340,217.109 85.874 C 217.033 85.618,217.010 86.162,217.060 87.082 M119.323 86.855 C 120.150 87.731,120.533 88.022,120.051 87.408 C 119.727 86.996,119.524 86.799,118.953 86.344 C 118.701 86.142,118.867 86.372,119.323 86.855 M205.062 86.803 C 205.062 87.161,205.100 87.307,205.147 87.128 C 205.193 86.949,205.193 86.657,205.147 86.478 C 205.100 86.299,205.062 86.445,205.062 86.803 M137.295 86.942 C 137.342 87.121,137.546 87.477,137.749 87.732 C 138.089 88.161,138.087 88.135,137.721 87.407 C 137.298 86.567,137.155 86.412,137.295 86.942 M173.123 89.591 C 173.123 91.176,173.152 91.824,173.186 91.032 C 173.221 90.239,173.221 88.943,173.186 88.151 C 173.152 87.358,173.123 88.007,173.123 89.591 M165.289 87.639 C 165.291 88.048,165.329 88.194,165.373 87.963 C 165.418 87.731,165.416 87.397,165.369 87.219 C 165.323 87.041,165.286 87.230,165.289 87.639 M107.152 92.333 L 107.156 97.491 109.991 97.498 L 112.826 97.506 110.040 97.447 L 107.255 97.388 107.201 92.281 L 107.147 87.175 107.152 92.333 M178.020 88.967 C 178.111 91.546,178.200 91.874,178.214 89.684 C 178.221 88.662,178.166 87.670,178.091 87.480 C 178.016 87.290,177.984 87.959,178.020 88.967 M114.035 87.734 C 114.097 87.836,114.260 87.918,114.397 87.918 C 114.534 87.918,114.905 88.214,115.222 88.575 C 115.540 88.937,115.799 89.162,115.799 89.076 C 115.799 88.853,114.654 87.808,114.256 87.668 C 114.057 87.599,113.967 87.625,114.035 87.734 M200.072 89.777 C 200.072 91.055,200.101 91.578,200.138 90.939 C 200.174 90.300,200.174 89.254,200.138 88.615 C 200.101 87.976,200.072 88.499,200.072 89.777 M133.198 88.778 C 133.239 89.886,133.404 90.014,133.404 88.940 C 133.404 88.474,133.351 88.060,133.285 88.020 C 133.220 87.979,133.181 88.321,133.198 88.778 M138.996 90.071 C 139.208 90.476,139.753 90.998,139.832 90.872 C 139.857 90.832,139.633 90.548,139.335 90.242 C 138.967 89.863,138.858 89.808,138.996 90.071 M165.284 91.357 C 165.279 91.766,165.339 92.519,165.419 93.030 C 165.535 93.775,165.565 93.830,165.570 93.309 C 165.574 92.951,165.513 92.198,165.435 91.636 C 165.312 90.746,165.293 90.710,165.284 91.357 M121.412 92.124 C 121.392 92.852,121.334 93.730,121.283 94.075 L 121.191 94.703 121.384 94.088 C 121.490 93.751,121.548 92.872,121.513 92.137 L 121.449 90.799 121.412 92.124 M133.256 91.589 C 133.178 92.327,133.196 93.262,133.288 93.205 C 133.408 93.131,133.455 91.450,133.338 91.450 C 133.301 91.450,133.265 91.513,133.256 91.589 M205.062 92.007 C 205.062 92.365,205.100 92.512,205.147 92.333 C 205.193 92.154,205.193 91.861,205.147 91.682 C 205.100 91.503,205.062 91.650,205.062 92.007 M160.412 92.488 C 160.413 92.888,160.488 93.331,160.578 93.473 C 160.677 93.630,160.703 93.378,160.643 92.822 C 160.521 91.690,160.408 91.526,160.412 92.488 M205.207 93.789 C 205.209 93.985,205.295 94.270,205.399 94.424 C 205.537 94.627,205.554 94.552,205.463 94.145 C 205.310 93.462,205.204 93.313,205.207 93.789 M116.091 94.158 C 116.023 94.431,116.003 94.689,116.047 94.733 C 116.091 94.777,116.182 94.590,116.251 94.318 C 116.319 94.045,116.339 93.786,116.295 93.743 C 116.251 93.699,116.160 93.886,116.091 94.158 M121.025 95.291 C 121.013 95.411,120.950 95.662,120.883 95.849 C 120.790 96.113,120.815 96.142,120.994 95.977 C 121.121 95.860,121.184 95.609,121.136 95.419 C 121.087 95.230,121.037 95.172,121.025 95.291 M214.033 96.468 C 213.727 96.672,213.559 96.836,213.662 96.835 C 213.848 96.832,214.859 96.107,214.684 96.102 C 214.633 96.100,214.340 96.265,214.033 96.468 M171.457 96.887 L 170.911 97.491 171.515 96.945 C 171.847 96.645,172.119 96.373,172.119 96.341 C 172.119 96.197,171.966 96.324,171.457 96.887 M212.361 97.301 C 211.849 97.547,211.499 97.753,211.581 97.759 C 211.786 97.774,213.383 97.038,213.383 96.928 C 213.383 96.807,213.400 96.800,212.361 97.301 M166.914 97.114 C 166.914 97.223,167.955 97.770,168.160 97.769 C 168.242 97.768,168.035 97.601,167.700 97.397 C 167.078 97.018,166.914 96.959,166.914 97.114 M221.769 98.177 C 221.757 98.656,221.813 99.090,221.894 99.140 C 221.975 99.190,222.012 98.923,221.976 98.546 C 221.868 97.397,221.791 97.261,221.769 98.177 M169.006 97.898 C 169.184 97.944,169.477 97.944,169.656 97.898 C 169.835 97.851,169.689 97.813,169.331 97.813 C 168.973 97.813,168.827 97.851,169.006 97.898 M209.433 97.901 C 209.663 97.945,210.039 97.945,210.270 97.901 C 210.500 97.856,210.311 97.820,209.851 97.820 C 209.391 97.820,209.203 97.856,209.433 97.901 M175.267 99.303 C 174.819 99.840,174.600 100.161,174.780 100.018 C 175.141 99.730,176.286 98.327,176.160 98.327 C 176.116 98.327,175.714 98.766,175.267 99.303 M202.230 98.763 C 202.230 98.792,202.495 99.061,202.818 99.361 C 203.405 99.906,203.406 99.906,203.051 99.404 C 202.754 98.985,202.230 98.575,202.230 98.763 M153.578 99.721 C 153.581 100.130,153.619 100.276,153.663 100.044 C 153.708 99.813,153.706 99.479,153.659 99.301 C 153.613 99.123,153.576 99.312,153.578 99.721 M215.506 100.182 C 215.405 100.282,214.991 100.536,214.586 100.746 C 214.166 100.964,214.048 101.075,214.312 101.005 C 214.765 100.884,215.799 100.241,215.799 100.080 C 215.799 99.952,215.702 99.986,215.506 100.182 M128.785 101.104 C 129.026 101.315,129.312 101.487,129.420 101.487 C 129.648 101.487,129.637 101.478,128.903 101.048 L 128.346 100.721 128.785 101.104 M152.881 101.128 C 152.256 101.528,152.342 101.598,153.058 101.271 C 153.319 101.153,153.532 100.985,153.532 100.900 C 153.532 100.705,153.552 100.698,152.881 101.128 M114.126 101.301 C 113.753 101.421,113.735 101.451,114.033 101.455 C 114.238 101.458,114.572 101.389,114.777 101.301 C 115.251 101.098,114.762 101.098,114.126 101.301 M167.100 101.675 C 167.254 101.773,167.623 101.854,167.921 101.856 C 168.640 101.860,168.484 101.752,167.565 101.612 C 167.059 101.534,166.911 101.554,167.100 101.675 M170.818 101.673 C 170.175 101.808,170.174 101.810,170.725 101.831 C 171.032 101.843,171.408 101.772,171.561 101.673 C 171.871 101.473,171.768 101.473,170.818 101.673 M207.233 101.731 C 207.317 101.815,207.711 101.856,208.107 101.821 L 208.829 101.758 207.955 101.668 C 207.474 101.619,207.149 101.647,207.233 101.731 M211.152 101.673 C 210.522 101.806,210.519 101.810,211.059 101.816 C 211.366 101.819,211.826 101.755,212.082 101.673 C 212.691 101.478,212.080 101.478,211.152 101.673 " stroke="none" fill="#8e9093" fill-rule="evenodd"></path></g></svg>