<svg id="svg" version="1.1" xmlns="http://www.w3.org/2000/svg" xmlns:xlink="http://www.w3.org/1999/xlink" width="400" height="400" viewBox="0, 0, 400,400"><g id="svgg"><path id="path0" d="M52.400 115.200 C 52.400 115.422,51.333 115.600,50.000 115.600 C 48.667 115.600,47.600 115.778,47.600 116.000 C 47.600 116.220,46.772 116.400,45.760 116.400 C 44.218 116.400,43.733 116.601,42.760 117.642 L 41.600 118.885 41.600 176.242 C 41.600 214.214,41.465 233.600,41.200 233.600 C 40.980 233.600,40.800 234.140,40.800 234.800 C 40.800 235.460,40.620 236.000,40.400 236.000 C 40.180 236.000,40.000 236.720,40.000 237.600 C 40.000 238.480,39.820 239.200,39.600 239.200 C 39.380 239.200,39.200 240.010,39.200 241.000 C 39.200 241.990,39.020 242.800,38.800 242.800 C 38.093 242.800,38.374 244.204,39.200 244.800 C 39.640 245.117,40.000 245.615,40.000 245.906 C 40.000 246.485,41.762 248.400,42.294 248.400 C 42.475 248.400,42.883 248.760,43.200 249.200 C 43.794 250.024,46.000 250.339,46.000 249.600 C 46.000 249.356,47.867 249.200,50.800 249.200 C 53.733 249.200,55.600 249.044,55.600 248.800 C 55.600 248.536,71.333 248.400,102.000 248.400 C 132.667 248.400,148.400 248.264,148.400 248.000 C 148.400 247.778,149.467 247.600,150.800 247.600 C 152.133 247.600,153.200 247.422,153.200 247.200 C 153.200 246.980,154.060 246.800,155.112 246.800 C 156.609 246.800,157.151 246.616,157.612 245.951 C 157.935 245.484,158.438 244.854,158.729 244.551 C 159.167 244.094,159.167 243.900,158.729 243.414 C 158.438 243.092,157.968 242.552,157.684 242.214 C 157.348 241.814,156.477 241.600,155.184 241.600 C 154.093 241.600,153.200 241.420,153.200 241.200 C 153.200 240.978,152.133 240.800,150.800 240.800 C 149.467 240.800,148.400 240.622,148.400 240.400 C 148.400 240.136,132.800 240.000,102.400 240.000 C 72.000 240.000,56.400 239.864,56.400 239.600 C 56.400 239.380,56.040 239.200,55.600 239.200 C 55.160 239.200,54.800 239.020,54.800 238.800 C 54.800 238.580,54.440 238.400,54.000 238.400 C 53.560 238.400,53.200 238.220,53.200 238.000 C 53.200 237.780,52.927 237.600,52.593 237.600 C 52.259 237.600,50.819 236.433,49.393 235.007 L 46.800 232.415 46.800 181.007 C 46.800 147.002,46.935 129.600,47.200 129.600 C 47.420 129.600,47.600 129.325,47.600 128.989 C 47.600 127.471,51.141 124.748,53.420 124.513 C 54.619 124.389,55.600 124.133,55.600 123.944 C 55.600 123.753,119.835 123.600,200.400 123.600 C 280.965 123.600,345.200 123.753,345.200 123.944 C 345.200 124.133,346.181 124.389,347.380 124.513 C 349.659 124.748,353.200 127.471,353.200 128.989 C 353.200 129.325,353.380 129.600,353.600 129.600 C 353.865 129.600,354.000 147.002,354.000 181.007 L 354.000 232.415 351.407 235.007 C 349.981 236.433,348.541 237.600,348.207 237.600 C 347.873 237.600,347.600 237.780,347.600 238.000 C 347.600 238.220,347.240 238.400,346.800 238.400 C 346.360 238.400,346.000 238.580,346.000 238.800 C 346.000 239.020,345.640 239.200,345.200 239.200 C 344.760 239.200,344.400 239.380,344.400 239.600 C 344.400 239.864,328.800 240.000,298.400 240.000 C 268.000 240.000,252.400 240.136,252.400 240.400 C 252.400 240.622,251.333 240.800,250.000 240.800 C 248.667 240.800,247.600 240.978,247.600 241.200 C 247.600 241.420,246.708 241.600,245.618 241.600 C 243.714 241.600,241.600 242.850,241.600 243.976 C 241.600 245.173,243.996 246.800,245.760 246.800 C 246.772 246.800,247.600 246.980,247.600 247.200 C 247.600 247.422,248.667 247.600,250.000 247.600 C 251.333 247.600,252.400 247.778,252.400 248.000 C 252.400 248.264,268.133 248.400,298.800 248.400 C 329.467 248.400,345.200 248.536,345.200 248.800 C 345.200 249.044,347.067 249.200,350.000 249.200 C 352.933 249.200,354.800 249.356,354.800 249.600 C 354.800 250.339,357.006 250.024,357.600 249.200 C 357.917 248.760,358.325 248.400,358.506 248.400 C 359.038 248.400,360.800 246.485,360.800 245.906 C 360.800 245.615,361.160 245.117,361.600 244.800 C 362.426 244.204,362.707 242.800,362.000 242.800 C 361.780 242.800,361.600 241.990,361.600 241.000 C 361.600 240.010,361.420 239.200,361.200 239.200 C 360.980 239.200,360.800 238.480,360.800 237.600 C 360.800 236.720,360.620 236.000,360.400 236.000 C 360.180 236.000,360.000 235.460,360.000 234.800 C 360.000 234.140,359.820 233.600,359.600 233.600 C 359.335 233.600,359.200 214.257,359.200 176.371 C 359.200 131.134,359.095 119.033,358.700 118.620 C 358.425 118.333,357.935 117.716,357.612 117.249 C 357.151 116.584,356.609 116.400,355.112 116.400 C 354.060 116.400,353.200 116.220,353.200 116.000 C 353.200 115.778,352.133 115.600,350.800 115.600 C 349.467 115.600,348.400 115.422,348.400 115.200 C 348.400 114.934,298.800 114.800,200.400 114.800 C 102.000 114.800,52.400 114.934,52.400 115.200 M345.200 118.400 C 345.200 118.620,346.100 118.800,347.200 118.800 C 348.300 118.800,349.200 118.980,349.200 119.200 C 349.200 119.420,348.300 119.600,347.200 119.600 C 346.100 119.600,345.200 119.780,345.200 120.000 C 345.200 120.266,296.667 120.400,200.400 120.400 C 104.133 120.400,55.600 120.266,55.600 120.000 C 55.600 119.780,54.700 119.600,53.600 119.600 C 52.500 119.600,51.600 119.420,51.600 119.200 C 51.600 118.980,52.500 118.800,53.600 118.800 C 54.700 118.800,55.600 118.620,55.600 118.400 C 55.600 118.134,104.133 118.000,200.400 118.000 C 296.667 118.000,345.200 118.134,345.200 118.400 M117.200 163.600 C 117.200 163.843,115.400 164.000,112.600 164.000 C 109.800 164.000,108.000 164.157,108.000 164.400 C 108.000 164.652,105.229 164.800,100.488 164.800 C 93.265 164.800,92.954 164.833,92.388 165.655 C 92.065 166.126,91.395 166.927,90.900 167.437 C 90.003 168.360,90.000 168.415,90.000 181.600 C 90.000 194.785,90.003 194.840,90.900 195.763 C 91.395 196.273,92.065 197.074,92.388 197.545 C 93.041 198.494,110.800 198.933,110.800 198.000 C 110.800 197.778,111.867 197.600,113.200 197.600 C 114.533 197.600,115.600 197.422,115.600 197.200 C 115.600 196.980,116.416 196.800,117.413 196.800 C 119.276 196.800,122.000 194.841,122.000 193.502 C 122.000 193.213,122.382 192.712,122.849 192.388 C 123.919 191.647,124.447 191.119,125.188 190.049 C 125.512 189.582,126.097 189.200,126.488 189.200 C 126.880 189.200,127.200 189.020,127.200 188.800 C 127.200 188.580,127.740 188.400,128.400 188.400 C 129.060 188.400,129.600 188.220,129.600 188.000 C 129.600 187.771,130.800 187.600,132.400 187.600 C 134.000 187.600,135.200 187.771,135.200 188.000 C 135.200 188.220,135.700 188.400,136.312 188.400 C 136.965 188.400,137.661 188.730,138.000 189.200 C 138.317 189.640,138.897 190.000,139.288 190.000 C 139.725 190.000,140.000 190.299,140.000 190.773 C 140.000 191.198,140.360 191.660,140.800 191.800 C 141.351 191.975,141.600 192.405,141.600 193.185 C 141.600 193.880,142.046 194.793,142.760 195.558 L 143.921 196.800 162.774 196.800 L 181.627 196.800 183.013 195.413 C 183.986 194.441,184.400 193.664,184.400 192.813 C 184.400 192.146,184.580 191.600,184.800 191.600 C 185.020 191.600,185.200 191.060,185.200 190.400 C 185.200 189.740,185.380 189.200,185.600 189.200 C 185.820 189.200,186.000 188.480,186.000 187.600 C 186.000 186.720,186.180 186.000,186.400 186.000 C 186.620 186.000,186.800 185.280,186.800 184.400 C 186.800 183.520,186.980 182.800,187.200 182.800 C 187.420 182.800,187.600 182.525,187.600 182.189 C 187.600 181.396,184.204 178.000,183.411 178.000 C 183.075 178.000,182.800 177.820,182.800 177.600 C 182.800 177.371,181.600 177.200,180.000 177.200 C 178.400 177.200,177.200 177.371,177.200 177.600 C 177.200 177.820,176.210 178.000,175.000 178.000 C 173.790 178.000,172.800 178.180,172.800 178.400 C 172.800 178.646,170.800 178.800,167.600 178.800 C 164.400 178.800,162.400 178.646,162.400 178.400 C 162.400 178.165,161.000 178.000,159.000 178.000 C 157.000 178.000,155.600 177.835,155.600 177.600 C 155.600 177.380,155.060 177.200,154.400 177.200 C 153.740 177.200,153.200 177.020,153.200 176.800 C 153.200 176.580,152.922 176.400,152.582 176.400 C 152.242 176.400,151.514 175.950,150.964 175.400 C 150.414 174.850,149.792 174.400,149.582 174.400 C 149.372 174.400,149.200 174.040,149.200 173.600 C 149.200 173.160,149.020 172.800,148.800 172.800 C 148.580 172.800,148.400 172.260,148.400 171.600 C 148.400 170.940,148.220 170.400,148.000 170.400 C 147.780 170.400,147.600 170.040,147.600 169.600 C 147.600 169.160,147.420 168.800,147.200 168.800 C 146.980 168.800,146.800 168.517,146.800 168.171 C 146.800 167.363,145.837 166.400,145.029 166.400 C 144.683 166.400,144.400 166.220,144.400 166.000 C 144.400 165.293,142.996 165.574,142.400 166.400 C 142.083 166.840,141.675 167.200,141.494 167.200 C 141.012 167.200,139.200 169.090,139.200 169.592 C 139.200 170.252,135.700 173.600,135.011 173.600 C 134.675 173.600,134.400 173.780,134.400 174.000 C 134.400 174.220,133.500 174.400,132.400 174.400 C 131.300 174.400,130.400 174.220,130.400 174.000 C 130.400 173.780,130.122 173.600,129.782 173.600 C 128.982 173.600,127.200 171.818,127.200 171.018 C 127.200 170.678,127.020 170.400,126.800 170.400 C 126.580 170.400,126.400 170.122,126.400 169.782 C 126.400 169.442,125.995 168.733,125.500 168.207 C 125.005 167.681,124.150 166.704,123.600 166.037 C 123.050 165.370,122.285 164.819,121.900 164.812 C 121.515 164.805,121.200 164.620,121.200 164.400 C 121.200 164.180,120.840 164.000,120.400 164.000 C 119.960 164.000,119.600 163.820,119.600 163.600 C 119.600 163.380,119.060 163.200,118.400 163.200 C 117.740 163.200,117.200 163.380,117.200 163.600 M231.200 166.000 C 231.200 166.220,230.917 166.400,230.571 166.400 C 229.763 166.400,228.800 167.363,228.800 168.171 C 228.800 168.517,228.620 168.800,228.400 168.800 C 228.180 168.800,228.000 169.160,228.000 169.600 C 228.000 170.040,227.820 170.400,227.600 170.400 C 227.380 170.400,227.200 171.120,227.200 172.000 C 227.200 172.880,227.020 173.600,226.800 173.600 C 226.580 173.600,226.400 173.968,226.400 174.418 C 226.400 174.868,225.995 175.653,225.500 176.163 C 225.005 176.673,224.335 177.474,224.012 177.945 C 223.688 178.415,223.103 178.800,222.712 178.800 C 222.320 178.800,222.000 178.980,222.000 179.200 C 222.000 179.420,221.475 179.600,220.833 179.600 C 220.192 179.600,219.562 179.825,219.433 180.100 C 219.247 180.500,219.153 180.500,218.967 180.100 C 218.826 179.799,217.949 179.600,216.767 179.600 C 215.685 179.600,214.800 179.420,214.800 179.200 C 214.800 178.978,213.733 178.800,212.400 178.800 C 211.067 178.800,210.000 178.622,210.000 178.400 C 210.000 177.589,205.822 177.937,205.200 178.800 C 204.883 179.240,204.385 179.600,204.094 179.600 C 203.363 179.600,201.600 181.426,201.600 182.182 C 201.600 182.522,201.780 182.800,202.000 182.800 C 202.240 182.800,202.400 184.400,202.400 186.800 C 202.400 189.200,202.560 190.800,202.800 190.800 C 203.020 190.800,203.200 191.610,203.200 192.600 C 203.200 193.590,203.380 194.400,203.600 194.400 C 203.820 194.400,204.000 194.683,204.000 195.029 C 204.000 195.837,204.963 196.800,205.771 196.800 C 206.117 196.800,206.400 196.980,206.400 197.200 C 206.400 197.454,209.400 197.600,214.600 197.600 C 219.800 197.600,222.800 197.454,222.800 197.200 C 222.800 196.980,223.790 196.800,225.000 196.800 C 226.210 196.800,227.200 196.620,227.200 196.400 C 227.200 196.180,228.100 196.000,229.200 196.000 C 230.300 196.000,231.200 195.820,231.200 195.600 C 231.200 195.349,233.667 195.200,237.800 195.200 C 241.933 195.200,244.400 195.349,244.400 195.600 C 244.400 195.820,245.300 196.000,246.400 196.000 C 247.500 196.000,248.400 196.180,248.400 196.400 C 248.400 196.622,249.467 196.800,250.800 196.800 C 252.133 196.800,253.200 196.978,253.200 197.200 C 253.200 197.457,257.067 197.600,264.000 197.600 C 270.933 197.600,274.800 197.457,274.800 197.200 C 274.800 196.949,277.333 196.800,281.600 196.800 C 285.867 196.800,288.400 196.949,288.400 197.200 C 288.400 197.455,291.800 197.600,297.800 197.600 C 303.800 197.600,307.200 197.455,307.200 197.200 C 307.200 196.980,307.393 196.800,307.629 196.800 C 308.266 196.800,309.200 195.747,309.200 195.029 C 309.200 194.683,309.380 194.400,309.600 194.400 C 309.820 194.400,310.000 193.590,310.000 192.600 C 310.000 191.610,309.820 190.800,309.600 190.800 C 309.378 190.800,309.200 189.733,309.200 188.400 C 309.200 187.067,309.022 186.000,308.800 186.000 C 308.580 186.000,308.400 185.119,308.400 184.042 C 308.400 181.249,306.856 179.600,304.240 179.600 C 303.228 179.600,302.400 179.420,302.400 179.200 C 302.400 178.978,301.333 178.800,300.000 178.800 C 298.667 178.800,297.600 178.622,297.600 178.400 C 297.600 178.180,296.700 178.000,295.600 178.000 C 294.500 178.000,293.600 177.820,293.600 177.600 C 293.600 177.380,293.240 177.200,292.800 177.200 C 292.360 177.200,292.000 177.020,292.000 176.800 C 292.000 176.580,291.812 176.400,291.582 176.400 C 291.352 176.400,290.714 175.950,290.164 175.400 C 289.614 174.850,288.889 174.400,288.553 174.400 C 287.831 174.400,286.800 173.453,286.800 172.789 C 286.800 172.532,286.260 171.817,285.600 171.200 C 284.940 170.583,284.400 169.875,284.400 169.626 C 284.400 169.377,283.770 168.543,283.000 167.773 L 281.600 166.373 280.200 167.773 C 279.430 168.543,278.800 169.377,278.800 169.626 C 278.800 169.875,278.260 170.583,277.600 171.200 C 276.940 171.817,276.400 172.532,276.400 172.789 C 276.400 173.366,275.404 174.400,274.847 174.400 C 274.621 174.400,273.986 174.850,273.436 175.400 C 272.886 175.950,272.158 176.400,271.818 176.400 C 271.478 176.400,271.200 176.580,271.200 176.800 C 271.200 177.020,270.840 177.200,270.400 177.200 C 269.960 177.200,269.600 177.380,269.600 177.600 C 269.600 177.852,266.867 178.000,262.200 178.000 C 257.533 178.000,254.800 178.148,254.800 178.400 C 254.800 178.620,254.080 178.800,253.200 178.800 C 252.320 178.800,251.600 178.980,251.600 179.200 C 251.600 179.420,251.240 179.600,250.800 179.600 C 250.360 179.600,250.000 179.780,250.000 180.000 C 250.000 180.220,249.722 180.400,249.382 180.400 C 248.582 180.400,246.800 182.182,246.800 182.982 C 246.800 183.322,246.620 183.600,246.400 183.600 C 246.180 183.600,246.000 184.100,246.000 184.712 C 246.000 185.365,245.670 186.061,245.200 186.400 C 244.760 186.717,244.400 187.297,244.400 187.688 C 244.400 188.696,244.084 188.582,242.759 187.100 C 240.913 185.034,240.800 184.868,240.800 184.217 C 240.800 183.878,240.620 183.600,240.400 183.600 C 240.180 183.600,240.000 183.060,240.000 182.400 C 240.000 181.740,239.820 181.200,239.600 181.200 C 239.380 181.200,239.200 180.840,239.200 180.400 C 239.200 179.960,239.020 179.600,238.800 179.600 C 238.580 179.600,238.400 179.060,238.400 178.400 C 238.400 177.740,238.220 177.200,238.000 177.200 C 237.780 177.200,237.600 176.570,237.600 175.800 C 237.600 175.030,237.420 174.400,237.200 174.400 C 236.974 174.400,236.800 173.261,236.800 171.782 C 236.800 169.099,235.767 167.200,234.306 167.200 C 234.015 167.200,233.517 166.840,233.200 166.400 C 232.604 165.574,231.200 165.293,231.200 166.000 M120.000 167.200 C 120.317 167.640,120.820 168.000,121.117 168.000 C 122.157 168.000,122.800 169.136,122.800 170.971 C 122.800 171.977,122.980 172.800,123.200 172.800 C 123.420 172.800,123.600 173.160,123.600 173.600 C 123.600 174.040,123.760 174.400,123.957 174.400 C 124.153 174.400,124.426 174.850,124.564 175.400 C 124.726 176.046,125.096 176.400,125.608 176.400 C 126.043 176.400,126.400 176.580,126.400 176.800 C 126.400 177.020,126.760 177.200,127.200 177.200 C 127.640 177.200,128.000 177.380,128.000 177.600 C 128.000 177.822,129.067 178.000,130.400 178.000 C 131.733 178.000,132.800 178.178,132.800 178.400 C 132.800 178.620,133.700 178.800,134.800 178.800 C 135.900 178.800,136.800 178.980,136.800 179.200 C 136.800 179.420,137.078 179.600,137.418 179.600 C 138.625 179.600,140.130 181.527,139.452 182.205 C 139.125 182.532,138.574 182.800,138.229 182.800 C 137.883 182.800,137.600 182.980,137.600 183.200 C 137.600 183.420,136.700 183.600,135.600 183.600 C 134.500 183.600,133.600 183.780,133.600 184.000 C 133.600 184.245,131.667 184.400,128.600 184.400 C 125.533 184.400,123.600 184.555,123.600 184.800 C 123.600 185.020,122.920 185.200,122.088 185.200 C 121.035 185.200,120.402 185.443,120.000 186.000 C 119.683 186.440,119.103 186.800,118.712 186.800 C 118.320 186.800,118.000 186.980,118.000 187.200 C 118.000 187.420,117.680 187.600,117.288 187.600 C 116.897 187.600,116.317 187.960,116.000 188.400 C 115.683 188.840,115.103 189.200,114.712 189.200 C 114.296 189.200,114.000 189.496,114.000 189.912 C 114.000 190.303,113.640 190.883,113.200 191.200 C 112.760 191.517,112.400 192.007,112.400 192.288 C 112.400 192.570,112.220 192.800,112.000 192.800 C 111.780 192.800,111.600 193.160,111.600 193.600 C 111.600 194.281,111.333 194.400,109.800 194.400 C 108.810 194.400,108.000 194.580,108.000 194.800 C 108.000 195.486,94.066 195.323,93.371 194.629 C 92.524 193.781,92.524 169.419,93.371 168.571 C 93.831 168.112,95.600 168.000,102.371 168.000 C 107.724 168.000,110.800 167.854,110.800 167.600 C 110.800 167.371,112.000 167.200,113.600 167.200 C 115.200 167.200,116.400 167.029,116.400 166.800 C 116.400 166.021,119.389 166.353,120.000 167.200 M282.229 174.171 C 282.543 174.486,282.800 174.852,282.800 174.985 C 282.800 175.457,285.582 178.000,286.098 178.000 C 286.387 178.000,286.883 178.360,287.200 178.800 C 287.517 179.240,288.097 179.600,288.488 179.600 C 288.880 179.600,289.200 179.780,289.200 180.000 C 289.200 180.220,289.560 180.400,290.000 180.400 C 290.440 180.400,290.800 180.580,290.800 180.800 C 290.800 181.020,291.250 181.200,291.800 181.200 C 292.700 181.200,292.800 181.360,292.800 182.800 C 292.800 183.680,292.620 184.400,292.400 184.400 C 292.180 184.400,292.000 184.921,292.000 185.558 C 292.000 187.315,290.053 189.200,288.240 189.200 C 287.448 189.200,286.800 189.380,286.800 189.600 C 286.800 189.846,284.800 190.000,281.600 190.000 C 278.400 190.000,276.400 189.846,276.400 189.600 C 276.400 189.380,275.854 189.200,275.187 189.200 C 273.636 189.200,271.200 186.887,271.200 185.413 C 271.200 184.856,271.020 184.400,270.800 184.400 C 270.580 184.400,270.400 183.680,270.400 182.800 C 270.400 181.289,270.467 181.200,271.600 181.200 C 272.260 181.200,272.800 181.020,272.800 180.800 C 272.800 180.580,273.160 180.400,273.600 180.400 C 274.040 180.400,274.400 180.220,274.400 180.000 C 274.400 179.780,274.630 179.600,274.912 179.600 C 275.193 179.600,275.683 179.240,276.000 178.800 C 276.317 178.360,276.813 178.000,277.102 178.000 C 277.611 178.000,280.400 175.460,280.400 174.996 C 280.400 174.754,281.309 173.641,281.529 173.615 C 281.599 173.607,281.914 173.857,282.229 174.171 M182.229 180.971 C 182.878 181.621,183.007 183.600,182.400 183.600 C 182.180 183.600,182.000 184.320,182.000 185.200 C 182.000 187.248,182.049 187.264,178.993 184.207 C 175.884 181.099,175.904 181.200,178.400 181.200 C 179.500 181.200,180.400 181.020,180.400 180.800 C 180.400 180.206,181.573 180.316,182.229 180.971 M213.200 226.800 C 213.200 227.039,211.667 227.200,209.400 227.200 C 207.133 227.200,205.600 227.361,205.600 227.600 C 205.600 227.820,205.325 228.000,204.989 228.000 C 203.505 228.000,200.800 231.480,200.800 233.389 C 200.800 234.385,200.980 235.200,201.200 235.200 C 201.420 235.200,201.600 235.560,201.600 236.000 C 201.600 236.533,201.867 236.800,202.400 236.800 C 202.840 236.800,203.200 236.980,203.200 237.200 C 203.200 237.431,204.467 237.600,206.200 237.600 C 207.933 237.600,209.200 237.769,209.200 238.000 C 209.200 238.220,210.100 238.400,211.200 238.400 C 212.300 238.400,213.200 238.580,213.200 238.800 C 213.200 239.020,213.740 239.200,214.400 239.200 C 215.060 239.200,215.600 239.380,215.600 239.600 C 215.600 239.820,216.140 240.000,216.800 240.000 C 217.460 240.000,218.000 240.180,218.000 240.400 C 218.000 240.994,219.173 240.884,219.829 240.229 C 220.143 239.914,220.400 239.374,220.400 239.029 C 220.400 238.683,220.580 238.400,220.800 238.400 C 221.020 238.400,221.200 238.040,221.200 237.600 C 221.200 237.160,221.380 236.800,221.600 236.800 C 221.820 236.800,222.000 236.440,222.000 236.000 C 222.000 235.560,222.180 235.200,222.400 235.200 C 222.620 235.200,222.800 234.840,222.800 234.400 C 222.800 233.960,222.980 233.600,223.200 233.600 C 223.420 233.600,223.600 233.255,223.600 232.833 C 223.600 232.412,223.816 231.995,224.081 231.906 C 224.345 231.818,223.360 230.546,221.888 229.073 L 219.215 226.400 216.207 226.400 C 214.469 226.400,213.200 226.569,213.200 226.800 M209.200 230.800 C 209.200 231.037,210.667 231.200,212.800 231.200 C 214.933 231.200,216.400 231.363,216.400 231.600 C 216.400 231.822,215.333 232.000,214.000 232.000 C 212.667 232.000,211.600 232.178,211.600 232.400 C 211.600 233.058,206.831 232.888,206.149 232.207 C 205.659 231.716,205.647 231.510,206.078 231.022 C 206.663 230.359,209.200 230.179,209.200 230.800 M46.400 238.400 C 47.696 239.720,49.036 240.800,49.378 240.800 C 49.720 240.800,50.000 240.974,50.000 241.186 C 50.000 241.399,50.900 241.692,52.000 241.838 C 53.100 241.984,54.000 242.260,54.000 242.452 C 54.000 242.647,73.962 242.800,99.600 242.800 C 129.733 242.800,145.200 242.936,145.200 243.200 C 145.200 243.420,146.100 243.600,147.200 243.600 C 148.300 243.600,149.200 243.780,149.200 244.000 C 149.200 244.220,148.300 244.400,147.200 244.400 C 146.100 244.400,145.200 244.580,145.200 244.800 C 145.200 245.064,129.467 245.200,98.800 245.200 C 68.133 245.200,52.400 245.336,52.400 245.600 C 52.400 245.829,51.200 246.000,49.600 246.000 C 48.000 246.000,46.800 246.171,46.800 246.400 C 46.800 247.407,43.912 246.791,42.737 245.532 C 41.557 244.270,41.371 241.273,42.447 240.867 C 42.641 240.793,42.800 240.208,42.800 239.567 C 42.800 238.925,42.980 238.400,43.200 238.400 C 43.420 238.400,43.600 237.860,43.600 237.200 C 43.600 235.596,43.682 235.631,46.400 238.400 M357.200 237.200 C 357.200 237.860,357.359 238.400,357.554 238.400 C 357.749 238.400,358.032 239.390,358.183 240.600 C 358.334 241.810,358.625 242.800,358.829 242.800 C 359.368 242.800,359.284 243.970,358.700 244.580 C 358.425 244.867,357.935 245.484,357.612 245.951 C 356.994 246.842,354.000 247.214,354.000 246.400 C 354.000 246.171,352.800 246.000,351.200 246.000 C 349.600 246.000,348.400 245.829,348.400 245.600 C 348.400 245.336,332.667 245.200,302.000 245.200 C 271.333 245.200,255.600 245.064,255.600 244.800 C 255.600 244.580,254.700 244.400,253.600 244.400 C 252.500 244.400,251.600 244.220,251.600 244.000 C 251.600 243.780,252.500 243.600,253.600 243.600 C 254.700 243.600,255.600 243.420,255.600 243.200 C 255.600 242.936,271.067 242.800,301.200 242.800 C 326.838 242.800,346.800 242.647,346.800 242.452 C 346.800 242.260,347.700 241.984,348.800 241.838 C 349.900 241.692,350.800 241.399,350.800 241.186 C 350.800 240.974,351.115 240.789,351.500 240.776 C 351.885 240.763,353.190 239.694,354.400 238.400 C 356.942 235.682,357.200 235.572,357.200 237.200 M193.600 238.800 C 193.600 239.020,193.240 239.200,192.800 239.200 C 192.360 239.200,192.000 239.372,192.000 239.582 C 192.000 240.078,190.078 242.000,189.582 242.000 C 189.372 242.000,189.200 242.360,189.200 242.800 C 189.200 243.240,189.020 243.600,188.800 243.600 C 188.580 243.600,188.400 243.960,188.400 244.400 C 188.400 244.840,188.580 245.200,188.800 245.200 C 189.020 245.200,189.200 245.476,189.200 245.813 C 189.200 246.499,191.742 249.200,192.387 249.200 C 192.614 249.200,192.800 249.380,192.800 249.600 C 192.800 249.820,193.160 250.000,193.600 250.000 C 194.040 250.000,194.400 249.820,194.400 249.600 C 194.400 249.380,194.675 249.200,195.011 249.200 C 195.804 249.200,199.200 245.804,199.200 245.011 C 199.200 244.675,199.380 244.400,199.600 244.400 C 199.820 244.400,200.000 243.590,200.000 242.600 C 200.000 241.610,199.820 240.800,199.600 240.800 C 199.380 240.800,199.200 240.440,199.200 240.000 C 199.200 239.467,198.933 239.200,198.400 239.200 C 197.960 239.200,197.600 239.020,197.600 238.800 C 197.600 238.580,196.700 238.400,195.600 238.400 C 194.500 238.400,193.600 238.580,193.600 238.800 M194.657 243.400 C 195.190 243.933,195.187 244.070,194.629 244.629 C 193.732 245.525,192.441 244.371,193.278 243.422 C 193.934 242.678,193.935 242.678,194.657 243.400 " stroke="none" fill="#84848c" fill-rule="evenodd"></path><path id="path1" d="M55.600 118.400 C 55.600 118.620,54.700 118.800,53.600 118.800 C 52.500 118.800,51.600 118.980,51.600 119.200 C 51.600 119.420,52.500 119.600,53.600 119.600 C 54.700 119.600,55.600 119.780,55.600 120.000 C 55.600 120.266,104.133 120.400,200.400 120.400 C 296.667 120.400,345.200 120.266,345.200 120.000 C 345.200 119.780,346.100 119.600,347.200 119.600 C 348.300 119.600,349.200 119.420,349.200 119.200 C 349.200 118.980,348.300 118.800,347.200 118.800 C 346.100 118.800,345.200 118.620,345.200 118.400 C 345.200 118.134,296.667 118.000,200.400 118.000 C 104.133 118.000,55.600 118.134,55.600 118.400 M116.400 166.800 C 116.400 167.029,115.200 167.200,113.600 167.200 C 112.000 167.200,110.800 167.371,110.800 167.600 C 110.800 167.854,107.724 168.000,102.371 168.000 C 95.600 168.000,93.831 168.112,93.371 168.571 C 92.524 169.419,92.524 193.781,93.371 194.629 C 94.066 195.323,108.000 195.486,108.000 194.800 C 108.000 194.580,108.810 194.400,109.800 194.400 C 111.333 194.400,111.600 194.281,111.600 193.600 C 111.600 193.160,111.780 192.800,112.000 192.800 C 112.220 192.800,112.400 192.570,112.400 192.288 C 112.400 192.007,112.760 191.517,113.200 191.200 C 113.640 190.883,114.000 190.303,114.000 189.912 C 114.000 189.496,114.296 189.200,114.712 189.200 C 115.103 189.200,115.683 188.840,116.000 188.400 C 116.317 187.960,116.897 187.600,117.288 187.600 C 117.680 187.600,118.000 187.420,118.000 187.200 C 118.000 186.980,118.320 186.800,118.712 186.800 C 119.103 186.800,119.683 186.440,120.000 186.000 C 120.402 185.443,121.035 185.200,122.088 185.200 C 122.920 185.200,123.600 185.020,123.600 184.800 C 123.600 184.555,125.533 184.400,128.600 184.400 C 131.667 184.400,133.600 184.245,133.600 184.000 C 133.600 183.780,134.500 183.600,135.600 183.600 C 136.700 183.600,137.600 183.420,137.600 183.200 C 137.600 182.980,137.883 182.800,138.229 182.800 C 138.574 182.800,139.125 182.532,139.452 182.205 C 140.130 181.527,138.625 179.600,137.418 179.600 C 137.078 179.600,136.800 179.420,136.800 179.200 C 136.800 178.980,135.900 178.800,134.800 178.800 C 133.700 178.800,132.800 178.620,132.800 178.400 C 132.800 178.178,131.733 178.000,130.400 178.000 C 129.067 178.000,128.000 177.822,128.000 177.600 C 128.000 177.380,127.640 177.200,127.200 177.200 C 126.760 177.200,126.400 177.020,126.400 176.800 C 126.400 176.580,126.043 176.400,125.608 176.400 C 125.096 176.400,124.726 176.046,124.564 175.400 C 124.426 174.850,124.153 174.400,123.957 174.400 C 123.760 174.400,123.600 174.040,123.600 173.600 C 123.600 173.160,123.420 172.800,123.200 172.800 C 122.980 172.800,122.800 171.977,122.800 170.971 C 122.800 169.136,122.157 168.000,121.117 168.000 C 120.820 168.000,120.317 167.640,120.000 167.200 C 119.389 166.353,116.400 166.021,116.400 166.800 M280.900 174.198 C 280.625 174.511,280.400 174.870,280.400 174.996 C 280.400 175.460,277.611 178.000,277.102 178.000 C 276.813 178.000,276.317 178.360,276.000 178.800 C 275.683 179.240,275.193 179.600,274.912 179.600 C 274.630 179.600,274.400 179.780,274.400 180.000 C 274.400 180.220,274.040 180.400,273.600 180.400 C 273.160 180.400,272.800 180.580,272.800 180.800 C 272.800 181.020,272.260 181.200,271.600 181.200 C 270.467 181.200,270.400 181.289,270.400 182.800 C 270.400 183.680,270.580 184.400,270.800 184.400 C 271.020 184.400,271.200 184.856,271.200 185.413 C 271.200 186.887,273.636 189.200,275.187 189.200 C 275.854 189.200,276.400 189.380,276.400 189.600 C 276.400 189.846,278.400 190.000,281.600 190.000 C 284.800 190.000,286.800 189.846,286.800 189.600 C 286.800 189.380,287.448 189.200,288.240 189.200 C 290.053 189.200,292.000 187.315,292.000 185.558 C 292.000 184.921,292.180 184.400,292.400 184.400 C 292.620 184.400,292.800 183.680,292.800 182.800 C 292.800 181.360,292.700 181.200,291.800 181.200 C 291.250 181.200,290.800 181.020,290.800 180.800 C 290.800 180.580,290.440 180.400,290.000 180.400 C 289.560 180.400,289.200 180.220,289.200 180.000 C 289.200 179.780,288.880 179.600,288.488 179.600 C 288.097 179.600,287.517 179.240,287.200 178.800 C 286.883 178.360,286.387 178.000,286.098 178.000 C 285.582 178.000,282.800 175.457,282.800 174.985 C 282.800 174.022,281.522 173.492,280.900 174.198 M180.400 180.800 C 180.400 181.020,179.500 181.200,178.400 181.200 C 175.904 181.200,175.884 181.099,178.993 184.207 C 182.049 187.264,182.000 187.248,182.000 185.200 C 182.000 184.320,182.180 183.600,182.400 183.600 C 183.007 183.600,182.878 181.621,182.229 180.971 C 181.573 180.316,180.400 180.206,180.400 180.800 M206.078 231.022 C 205.647 231.510,205.659 231.716,206.149 232.207 C 206.831 232.888,211.600 233.058,211.600 232.400 C 211.600 232.178,212.667 232.000,214.000 232.000 C 215.333 232.000,216.400 231.822,216.400 231.600 C 216.400 231.363,214.933 231.200,212.800 231.200 C 210.667 231.200,209.200 231.037,209.200 230.800 C 209.200 230.179,206.663 230.359,206.078 231.022 M43.600 237.200 C 43.600 237.860,43.420 238.400,43.200 238.400 C 42.980 238.400,42.800 238.925,42.800 239.567 C 42.800 240.208,42.641 240.793,42.447 240.867 C 41.371 241.273,41.557 244.270,42.737 245.532 C 43.912 246.791,46.800 247.407,46.800 246.400 C 46.800 246.171,48.000 246.000,49.600 246.000 C 51.200 246.000,52.400 245.829,52.400 245.600 C 52.400 245.336,68.133 245.200,98.800 245.200 C 129.467 245.200,145.200 245.064,145.200 244.800 C 145.200 244.580,146.100 244.400,147.200 244.400 C 148.300 244.400,149.200 244.220,149.200 244.000 C 149.200 243.780,148.300 243.600,147.200 243.600 C 146.100 243.600,145.200 243.420,145.200 243.200 C 145.200 242.936,129.733 242.800,99.600 242.800 C 73.962 242.800,54.000 242.647,54.000 242.452 C 54.000 242.260,53.100 241.984,52.000 241.838 C 50.900 241.692,50.000 241.399,50.000 241.186 C 50.000 240.974,49.720 240.800,49.378 240.800 C 49.036 240.800,47.696 239.720,46.400 238.400 C 43.682 235.631,43.600 235.596,43.600 237.200 M354.400 238.400 C 353.190 239.694,351.885 240.763,351.500 240.776 C 351.115 240.789,350.800 240.974,350.800 241.186 C 350.800 241.399,349.900 241.692,348.800 241.838 C 347.700 241.984,346.800 242.260,346.800 242.452 C 346.800 242.647,326.838 242.800,301.200 242.800 C 271.067 242.800,255.600 242.936,255.600 243.200 C 255.600 243.420,254.700 243.600,253.600 243.600 C 252.500 243.600,251.600 243.780,251.600 244.000 C 251.600 244.220,252.500 244.400,253.600 244.400 C 254.700 244.400,255.600 244.580,255.600 244.800 C 255.600 245.064,271.333 245.200,302.000 245.200 C 332.667 245.200,348.400 245.336,348.400 245.600 C 348.400 245.829,349.600 246.000,351.200 246.000 C 352.800 246.000,354.000 246.171,354.000 246.400 C 354.000 247.214,356.994 246.842,357.612 245.951 C 357.935 245.484,358.425 244.867,358.700 244.580 C 359.284 243.970,359.368 242.800,358.829 242.800 C 358.625 242.800,358.334 241.810,358.183 240.600 C 358.032 239.390,357.749 238.400,357.554 238.400 C 357.359 238.400,357.200 237.860,357.200 237.200 C 357.200 235.572,356.942 235.682,354.400 238.400 M193.278 243.422 C 192.441 244.371,193.732 245.525,194.629 244.629 C 195.187 244.070,195.190 243.933,194.657 243.400 C 193.935 242.678,193.934 242.678,193.278 243.422 " stroke="none" fill="#94949c" fill-rule="evenodd"></path><path id="path2" d="M0.000 200.000 L 0.000 400.000 200.000 400.000 L 400.000 400.000 400.000 200.000 L 400.000 0.000 200.000 0.000 L 0.000 0.000 0.000 200.000 M351.600 110.400 C 351.600 110.633,352.933 110.800,354.800 110.800 C 356.667 110.800,358.000 110.967,358.000 111.200 C 358.000 111.420,358.270 111.600,358.600 111.600 C 358.930 111.600,359.200 111.780,359.200 112.000 C 359.200 112.220,359.476 112.400,359.813 112.400 C 360.609 112.400,363.200 114.991,363.200 115.787 C 363.200 116.124,363.380 116.400,363.600 116.400 C 363.820 116.400,364.000 116.760,364.000 117.200 C 364.000 117.640,364.180 118.000,364.400 118.000 C 364.665 118.000,364.800 137.667,364.800 176.200 C 364.800 214.733,364.935 234.400,365.200 234.400 C 365.437 234.400,365.600 235.867,365.600 238.000 C 365.600 240.133,365.763 241.600,366.000 241.600 C 366.220 241.600,366.400 242.230,366.400 243.000 C 366.400 243.770,366.220 244.400,366.000 244.400 C 365.780 244.400,365.600 244.940,365.600 245.600 C 365.600 246.260,365.420 246.800,365.200 246.800 C 364.980 246.800,364.800 247.160,364.800 247.600 C 364.800 248.040,364.620 248.400,364.400 248.400 C 364.180 248.400,364.000 248.678,364.000 249.018 C 364.000 249.818,362.218 251.600,361.418 251.600 C 361.078 251.600,360.800 251.780,360.800 252.000 C 360.800 252.220,360.440 252.400,360.000 252.400 C 359.560 252.400,359.200 252.580,359.200 252.800 C 359.200 253.020,358.750 253.200,358.200 253.200 C 357.650 253.200,357.200 253.380,357.200 253.600 C 357.200 253.829,356.000 254.000,354.400 254.000 C 352.800 254.000,351.600 253.829,351.600 253.600 C 351.600 253.335,334.267 253.200,300.400 253.200 C 266.533 253.200,249.200 253.065,249.200 252.800 C 249.200 252.567,247.867 252.400,246.000 252.400 C 244.133 252.400,242.800 252.233,242.800 252.000 C 242.800 251.780,242.530 251.600,242.200 251.600 C 241.870 251.600,241.600 251.420,241.600 251.200 C 241.600 250.980,241.324 250.800,240.987 250.800 C 240.191 250.800,237.600 248.209,237.600 247.413 C 237.600 247.076,237.420 246.800,237.200 246.800 C 236.980 246.800,236.800 246.440,236.800 246.000 C 236.800 245.560,236.620 245.200,236.400 245.200 C 236.180 245.200,236.000 244.480,236.000 243.600 C 236.000 242.720,236.180 242.000,236.400 242.000 C 236.620 242.000,236.800 241.550,236.800 241.000 C 236.800 240.450,236.980 240.000,237.200 240.000 C 237.420 240.000,237.600 239.717,237.600 239.371 C 237.600 239.026,237.857 238.486,238.171 238.171 C 238.486 237.857,239.026 237.600,239.371 237.600 C 239.717 237.600,240.000 237.420,240.000 237.200 C 240.000 236.980,240.450 236.800,241.000 236.800 C 241.550 236.800,242.000 236.620,242.000 236.400 C 242.000 236.163,243.467 236.000,245.600 236.000 C 247.733 236.000,249.200 235.837,249.200 235.600 C 249.200 235.336,265.333 235.200,296.800 235.200 C 328.267 235.200,344.400 235.064,344.400 234.800 C 344.400 234.580,344.676 234.400,345.013 234.400 C 345.351 234.400,346.251 233.776,347.013 233.013 L 348.400 231.627 348.400 181.600 L 348.400 131.573 347.013 130.187 C 346.251 129.424,345.351 128.800,345.013 128.800 C 344.676 128.800,344.400 128.620,344.400 128.400 C 344.400 128.134,296.133 128.000,200.400 128.000 C 104.667 128.000,56.400 128.134,56.400 128.400 C 56.400 128.620,56.124 128.800,55.787 128.800 C 55.449 128.800,54.549 129.424,53.787 130.187 L 52.400 131.573 52.400 181.600 L 52.400 231.627 53.787 233.013 C 54.549 233.776,55.449 234.400,55.787 234.400 C 56.124 234.400,56.400 234.580,56.400 234.800 C 56.400 235.064,72.533 235.200,104.000 235.200 C 135.467 235.200,151.600 235.336,151.600 235.600 C 151.600 235.833,152.933 236.000,154.800 236.000 C 156.667 236.000,158.000 236.167,158.000 236.400 C 158.000 236.620,158.270 236.800,158.600 236.800 C 158.930 236.800,159.200 236.980,159.200 237.200 C 159.200 237.420,159.476 237.600,159.813 237.600 C 160.609 237.600,163.200 240.191,163.200 240.987 C 163.200 241.324,163.380 241.600,163.600 241.600 C 163.820 241.600,164.000 241.870,164.000 242.200 C 164.000 242.530,164.180 242.800,164.400 242.800 C 164.620 242.800,164.800 243.340,164.800 244.000 C 164.800 244.660,164.620 245.200,164.400 245.200 C 164.180 245.200,164.000 245.560,164.000 246.000 C 164.000 246.440,163.820 246.800,163.600 246.800 C 163.380 246.800,163.200 247.076,163.200 247.413 C 163.200 248.209,160.609 250.800,159.813 250.800 C 159.476 250.800,159.200 250.980,159.200 251.200 C 159.200 251.420,158.930 251.600,158.600 251.600 C 158.270 251.600,158.000 251.780,158.000 252.000 C 158.000 252.233,156.667 252.400,154.800 252.400 C 152.933 252.400,151.600 252.567,151.600 252.800 C 151.600 253.065,134.267 253.200,100.400 253.200 C 66.533 253.200,49.200 253.335,49.200 253.600 C 49.200 253.829,48.000 254.000,46.400 254.000 C 44.800 254.000,43.600 253.829,43.600 253.600 C 43.600 253.380,43.150 253.200,42.600 253.200 C 42.050 253.200,41.600 253.020,41.600 252.800 C 41.600 252.580,41.240 252.400,40.800 252.400 C 40.360 252.400,40.000 252.220,40.000 252.000 C 40.000 251.780,39.722 251.600,39.382 251.600 C 38.582 251.600,36.800 249.818,36.800 249.018 C 36.800 248.678,36.620 248.400,36.400 248.400 C 36.180 248.400,36.000 248.040,36.000 247.600 C 36.000 247.160,35.820 246.800,35.600 246.800 C 35.380 246.800,35.200 246.260,35.200 245.600 C 35.200 244.940,35.020 244.400,34.800 244.400 C 34.580 244.400,34.400 243.770,34.400 243.000 C 34.400 242.230,34.580 241.600,34.800 241.600 C 35.037 241.600,35.200 240.133,35.200 238.000 C 35.200 235.867,35.363 234.400,35.600 234.400 C 35.865 234.400,36.000 214.733,36.000 176.200 C 36.000 137.667,36.135 118.000,36.400 118.000 C 36.620 118.000,36.800 117.640,36.800 117.200 C 36.800 116.760,36.980 116.400,37.200 116.400 C 37.420 116.400,37.600 116.124,37.600 115.787 C 37.600 114.991,40.191 112.400,40.987 112.400 C 41.324 112.400,41.600 112.220,41.600 112.000 C 41.600 111.780,41.870 111.600,42.200 111.600 C 42.530 111.600,42.800 111.420,42.800 111.200 C 42.800 110.967,44.133 110.800,46.000 110.800 C 47.867 110.800,49.200 110.633,49.200 110.400 C 49.200 110.134,99.867 110.000,200.400 110.000 C 300.933 110.000,351.600 110.134,351.600 110.400 M120.400 159.600 C 120.400 159.820,121.120 160.000,122.000 160.000 C 122.880 160.000,123.600 160.180,123.600 160.400 C 123.600 160.620,123.870 160.800,124.200 160.800 C 124.530 160.800,124.800 160.980,124.800 161.200 C 124.800 161.420,125.075 161.600,125.411 161.600 C 125.746 161.600,126.826 162.405,127.811 163.389 C 128.795 164.374,129.600 165.454,129.600 165.789 C 129.600 166.125,129.780 166.400,130.000 166.400 C 130.220 166.400,130.400 166.760,130.400 167.200 C 130.400 167.640,130.580 168.000,130.800 168.000 C 131.020 168.000,131.200 168.360,131.200 168.800 C 131.200 169.240,131.303 169.600,131.429 169.600 C 131.866 169.600,132.800 168.454,132.800 167.917 C 132.800 167.620,133.160 167.117,133.600 166.800 C 134.040 166.483,134.400 165.980,134.400 165.683 C 134.400 164.987,135.387 164.000,136.083 164.000 C 136.380 164.000,136.883 163.640,137.200 163.200 C 137.517 162.760,138.097 162.400,138.488 162.400 C 138.880 162.400,139.200 162.220,139.200 162.000 C 139.200 161.780,139.740 161.600,140.400 161.600 C 141.060 161.600,141.600 161.420,141.600 161.200 C 141.600 160.980,142.035 160.800,142.567 160.800 C 143.098 160.800,143.638 160.575,143.767 160.300 C 143.953 159.900,144.047 159.900,144.233 160.300 C 144.362 160.575,144.812 160.800,145.233 160.800 C 145.655 160.800,146.000 160.980,146.000 161.200 C 146.000 161.420,146.360 161.600,146.800 161.600 C 147.240 161.600,147.600 161.780,147.600 162.000 C 147.600 162.220,147.878 162.400,148.218 162.400 C 149.018 162.400,150.800 164.182,150.800 164.982 C 150.800 165.322,150.980 165.600,151.200 165.600 C 151.420 165.600,151.600 165.960,151.600 166.400 C 151.600 166.840,151.780 167.200,152.000 167.200 C 152.220 167.200,152.400 167.560,152.400 168.000 C 152.400 168.440,152.580 168.800,152.800 168.800 C 153.020 168.800,153.200 169.076,153.200 169.413 C 153.200 170.537,155.864 172.800,157.187 172.800 C 157.854 172.800,158.400 172.980,158.400 173.200 C 158.400 173.453,161.333 173.600,166.400 173.600 C 171.467 173.600,174.400 173.453,174.400 173.200 C 174.400 172.957,176.200 172.800,179.000 172.800 C 181.800 172.800,183.600 172.957,183.600 173.200 C 183.600 173.420,184.140 173.600,184.800 173.600 C 185.460 173.600,186.000 173.760,186.000 173.955 C 186.000 174.151,186.657 174.434,187.459 174.585 C 189.122 174.897,192.000 177.589,192.000 178.833 C 192.000 179.255,192.180 179.600,192.400 179.600 C 192.620 179.600,192.800 179.945,192.800 180.367 C 192.800 180.788,193.025 181.238,193.300 181.367 C 193.700 181.553,193.700 181.647,193.300 181.833 C 193.025 181.962,192.800 182.771,192.800 183.633 C 192.800 184.495,192.638 185.200,192.439 185.200 C 192.241 185.200,191.953 186.280,191.800 187.600 C 191.647 188.920,191.359 190.000,191.161 190.000 C 190.962 190.000,190.800 190.630,190.800 191.400 C 190.800 192.170,190.620 192.800,190.400 192.800 C 190.180 192.800,190.000 193.340,190.000 194.000 C 190.000 194.660,189.820 195.200,189.600 195.200 C 189.380 195.200,189.200 195.560,189.200 196.000 C 189.200 196.440,189.020 196.800,188.800 196.800 C 188.580 196.800,188.400 197.076,188.400 197.413 C 188.400 197.751,187.776 198.651,187.013 199.413 C 186.251 200.176,185.351 200.800,185.013 200.800 C 184.676 200.800,184.400 200.980,184.400 201.200 C 184.400 201.420,184.040 201.600,183.600 201.600 C 183.160 201.600,182.800 201.780,182.800 202.000 C 182.800 202.261,175.867 202.400,162.800 202.400 C 149.733 202.400,142.800 202.261,142.800 202.000 C 142.800 201.780,142.530 201.600,142.200 201.600 C 141.870 201.600,141.600 201.420,141.600 201.200 C 141.600 200.980,141.324 200.800,140.987 200.800 C 140.191 200.800,137.600 198.209,137.600 197.413 C 137.600 197.076,137.420 196.800,137.200 196.800 C 136.980 196.800,136.800 196.440,136.800 196.000 C 136.800 195.560,136.620 195.200,136.400 195.200 C 136.180 195.200,136.000 194.922,136.000 194.582 C 136.000 194.242,135.516 193.480,134.925 192.888 C 132.769 190.732,127.200 191.953,127.200 194.582 C 127.200 194.922,127.020 195.200,126.800 195.200 C 126.580 195.200,126.400 195.560,126.400 196.000 C 126.400 196.440,126.220 196.800,126.000 196.800 C 125.780 196.800,125.600 197.083,125.600 197.429 C 125.600 197.774,125.375 198.292,125.100 198.580 C 124.825 198.867,124.335 199.484,124.012 199.951 C 123.688 200.418,123.103 200.800,122.712 200.800 C 122.320 200.800,122.000 200.980,122.000 201.200 C 122.000 201.420,121.640 201.600,121.200 201.600 C 120.760 201.600,120.400 201.780,120.400 202.000 C 120.400 202.233,119.067 202.400,117.200 202.400 C 115.333 202.400,114.000 202.567,114.000 202.800 C 114.000 203.057,110.200 203.200,103.400 203.200 C 96.600 203.200,92.800 203.057,92.800 202.800 C 92.800 202.580,92.390 202.400,91.888 202.400 C 91.387 202.400,90.717 202.040,90.400 201.600 C 90.083 201.160,89.580 200.800,89.283 200.800 C 88.587 200.800,87.600 199.813,87.600 199.117 C 87.600 198.820,87.240 198.317,86.800 198.000 C 86.330 197.661,86.000 196.965,86.000 196.312 C 86.000 195.700,85.820 195.200,85.600 195.200 C 85.341 195.200,85.200 190.400,85.200 181.600 C 85.200 172.800,85.341 168.000,85.600 168.000 C 85.820 168.000,86.000 167.500,86.000 166.888 C 86.000 166.235,86.330 165.539,86.800 165.200 C 87.240 164.883,87.600 164.380,87.600 164.083 C 87.600 163.387,88.587 162.400,89.283 162.400 C 89.580 162.400,90.083 162.040,90.400 161.600 C 90.717 161.160,91.387 160.800,91.888 160.800 C 92.390 160.800,92.800 160.620,92.800 160.400 C 92.800 160.143,96.600 160.000,103.400 160.000 C 110.200 160.000,114.000 159.857,114.000 159.600 C 114.000 159.367,115.333 159.200,117.200 159.200 C 119.067 159.200,120.400 159.367,120.400 159.600 M232.000 160.400 C 232.000 160.620,232.540 160.800,233.200 160.800 C 233.860 160.800,234.400 160.980,234.400 161.200 C 234.400 161.420,234.940 161.600,235.600 161.600 C 236.260 161.600,236.800 161.780,236.800 162.000 C 236.800 162.220,237.120 162.400,237.512 162.400 C 237.903 162.400,238.483 162.760,238.800 163.200 C 239.117 163.640,239.620 164.000,239.917 164.000 C 240.695 164.000,241.423 164.841,241.740 166.104 C 241.891 166.707,242.192 167.200,242.408 167.200 C 242.623 167.200,242.800 167.560,242.800 168.000 C 242.800 168.440,242.980 168.800,243.200 168.800 C 243.420 168.800,243.600 169.083,243.600 169.429 C 243.600 169.774,243.857 170.314,244.171 170.629 C 244.486 170.943,245.026 171.200,245.371 171.200 C 245.717 171.200,246.000 171.380,246.000 171.600 C 246.000 171.820,246.720 172.000,247.600 172.000 C 248.480 172.000,249.200 172.180,249.200 172.400 C 249.200 172.656,252.937 172.800,259.611 172.800 L 270.021 172.800 271.811 171.011 C 272.795 170.026,273.600 168.946,273.600 168.611 C 273.600 168.275,273.760 168.000,273.955 168.000 C 274.151 168.000,274.432 167.353,274.581 166.561 C 274.870 165.019,277.139 162.400,278.187 162.400 C 278.524 162.400,278.800 162.220,278.800 162.000 C 278.800 161.780,279.160 161.600,279.600 161.600 C 280.040 161.600,280.400 161.420,280.400 161.200 C 280.400 160.980,280.940 160.800,281.600 160.800 C 282.260 160.800,282.800 160.980,282.800 161.200 C 282.800 161.420,283.160 161.600,283.600 161.600 C 284.040 161.600,284.400 161.780,284.400 162.000 C 284.400 162.220,284.676 162.400,285.013 162.400 C 285.809 162.400,288.400 164.991,288.400 165.787 C 288.400 166.124,288.580 166.400,288.800 166.400 C 289.020 166.400,289.200 166.760,289.200 167.200 C 289.200 167.640,289.380 168.000,289.600 168.000 C 289.820 168.000,290.000 168.278,290.000 168.618 C 290.000 168.958,290.405 169.653,290.900 170.163 C 291.395 170.673,292.065 171.474,292.388 171.945 C 292.751 172.472,293.403 172.800,294.088 172.800 C 294.700 172.800,295.200 172.980,295.200 173.200 C 295.200 173.448,297.333 173.600,300.800 173.600 C 304.267 173.600,306.400 173.752,306.400 174.000 C 306.400 174.220,306.837 174.400,307.371 174.400 C 307.906 174.400,308.613 174.670,308.943 175.000 C 309.273 175.330,309.744 175.600,309.990 175.600 C 310.612 175.600,312.400 177.450,312.400 178.094 C 312.400 178.385,312.760 178.883,313.200 179.200 C 313.670 179.539,314.000 180.235,314.000 180.888 C 314.000 181.500,314.180 182.000,314.400 182.000 C 314.647 182.000,314.800 184.067,314.800 187.400 C 314.800 190.733,314.953 192.800,315.200 192.800 C 315.420 192.800,315.600 193.160,315.600 193.600 C 315.600 194.040,315.420 194.400,315.200 194.400 C 314.980 194.400,314.800 194.760,314.800 195.200 C 314.800 195.640,314.620 196.000,314.400 196.000 C 314.180 196.000,314.000 196.360,314.000 196.800 C 314.000 197.240,313.820 197.600,313.600 197.600 C 313.380 197.600,313.200 197.878,313.200 198.218 C 313.200 199.018,311.418 200.800,310.618 200.800 C 310.278 200.800,310.000 200.980,310.000 201.200 C 310.000 201.420,309.640 201.600,309.200 201.600 C 308.760 201.600,308.400 201.780,308.400 202.000 C 308.400 202.220,308.130 202.400,307.800 202.400 C 307.470 202.400,307.200 202.580,307.200 202.800 C 307.200 203.053,304.400 203.200,299.600 203.200 C 294.800 203.200,292.000 203.053,292.000 202.800 C 292.000 202.544,288.267 202.400,281.600 202.400 C 274.933 202.400,271.200 202.544,271.200 202.800 C 271.200 203.053,268.333 203.200,263.400 203.200 C 258.467 203.200,255.600 203.053,255.600 202.800 C 255.600 202.552,253.467 202.400,250.000 202.400 C 246.533 202.400,244.400 202.248,244.400 202.000 C 244.400 201.749,241.933 201.600,237.800 201.600 C 233.667 201.600,231.200 201.749,231.200 202.000 C 231.200 202.247,229.133 202.400,225.800 202.400 C 222.467 202.400,220.400 202.553,220.400 202.800 C 220.400 203.051,217.800 203.200,213.400 203.200 C 209.000 203.200,206.400 203.051,206.400 202.800 C 206.400 202.580,206.040 202.400,205.600 202.400 C 205.160 202.400,204.800 202.220,204.800 202.000 C 204.800 201.780,204.440 201.600,204.000 201.600 C 203.560 201.600,203.200 201.420,203.200 201.200 C 203.200 200.980,202.922 200.800,202.582 200.800 C 201.782 200.800,200.000 199.018,200.000 198.218 C 200.000 197.878,199.820 197.600,199.600 197.600 C 199.380 197.600,199.200 197.240,199.200 196.800 C 199.200 196.360,199.020 196.000,198.800 196.000 C 198.580 196.000,198.400 195.640,198.400 195.200 C 198.400 194.760,198.220 194.400,198.000 194.400 C 197.780 194.400,197.600 193.590,197.600 192.600 C 197.600 191.610,197.420 190.800,197.200 190.800 C 196.980 190.800,196.800 190.080,196.800 189.200 C 196.800 188.320,196.620 187.600,196.400 187.600 C 196.180 187.600,196.000 186.880,196.000 186.000 C 196.000 185.120,195.820 184.400,195.600 184.400 C 195.380 184.400,195.200 183.875,195.200 183.233 C 195.200 182.592,194.975 181.962,194.700 181.833 C 194.300 181.647,194.300 181.553,194.700 181.367 C 194.975 181.238,195.200 180.828,195.200 180.455 C 195.200 180.082,195.560 179.517,196.000 179.200 C 196.440 178.883,196.800 178.380,196.800 178.083 C 196.800 177.387,197.787 176.400,198.483 176.400 C 198.780 176.400,199.282 176.041,199.598 175.602 C 199.972 175.084,200.844 174.716,202.087 174.551 C 203.139 174.411,204.000 174.140,204.000 173.948 C 204.000 173.757,204.540 173.600,205.200 173.600 C 205.860 173.600,206.400 173.420,206.400 173.200 C 206.400 172.980,206.760 172.800,207.200 172.800 C 207.640 172.800,208.000 172.980,208.000 173.200 C 208.000 173.447,210.056 173.600,213.367 173.600 C 217.238 173.600,218.779 173.736,218.896 174.089 C 219.095 174.685,221.200 172.691,221.200 171.906 C 221.200 171.615,221.560 171.117,222.000 170.800 C 222.440 170.483,222.800 169.903,222.800 169.512 C 222.800 169.120,222.980 168.800,223.200 168.800 C 223.420 168.800,223.600 168.440,223.600 168.000 C 223.600 167.560,223.760 167.200,223.955 167.200 C 224.151 167.200,224.433 166.550,224.582 165.755 C 224.874 164.201,226.376 162.400,227.382 162.400 C 227.722 162.400,228.000 162.220,228.000 162.000 C 228.000 161.780,228.360 161.600,228.800 161.600 C 229.240 161.600,229.600 161.420,229.600 161.200 C 229.600 160.980,229.960 160.800,230.400 160.800 C 230.840 160.800,231.200 160.620,231.200 160.400 C 231.200 160.180,231.380 160.000,231.600 160.000 C 231.820 160.000,232.000 160.180,232.000 160.400 M219.600 220.000 C 219.600 220.220,219.960 220.400,220.400 220.400 C 220.840 220.400,221.200 220.580,221.200 220.800 C 221.200 221.020,221.520 221.200,221.912 221.200 C 222.303 221.200,222.883 221.560,223.200 222.000 C 223.517 222.440,223.925 222.800,224.106 222.800 C 224.288 222.800,224.853 223.205,225.363 223.700 C 225.873 224.195,226.674 224.865,227.145 225.188 C 227.615 225.512,228.000 226.057,228.000 226.400 C 228.000 226.743,228.360 227.283,228.800 227.600 C 229.240 227.917,229.600 228.497,229.600 228.888 C 229.600 229.280,229.780 229.600,230.000 229.600 C 230.220 229.600,230.400 229.945,230.400 230.367 C 230.400 230.788,230.625 231.238,230.900 231.367 C 231.300 231.553,231.300 231.647,230.900 231.833 C 230.625 231.962,230.400 232.412,230.400 232.833 C 230.400 233.255,230.220 233.600,230.000 233.600 C 229.780 233.600,229.600 234.140,229.600 234.800 C 229.600 235.460,229.420 236.000,229.200 236.000 C 228.980 236.000,228.800 236.360,228.800 236.800 C 228.800 237.240,228.620 237.600,228.400 237.600 C 228.180 237.600,228.000 237.960,228.000 238.400 C 228.000 238.840,227.820 239.200,227.600 239.200 C 227.380 239.200,227.200 239.560,227.200 240.000 C 227.200 240.440,227.020 240.800,226.800 240.800 C 226.580 240.800,226.400 241.070,226.400 241.400 C 226.400 241.730,226.220 242.000,226.000 242.000 C 225.780 242.000,225.600 242.360,225.600 242.800 C 225.600 243.240,225.420 243.600,225.200 243.600 C 224.980 243.600,224.800 243.947,224.800 244.371 C 224.800 244.796,224.530 245.413,224.200 245.743 C 223.870 246.073,223.600 246.549,223.600 246.800 C 223.600 247.426,222.576 248.400,221.917 248.400 C 221.620 248.400,221.117 248.760,220.800 249.200 C 220.166 250.079,214.000 250.442,214.000 249.600 C 214.000 249.380,213.364 249.200,212.587 249.200 C 210.974 249.200,208.400 247.015,208.400 245.646 C 208.400 244.337,207.953 243.600,207.157 243.600 C 206.515 243.600,206.400 243.904,206.400 245.600 C 206.400 246.700,206.220 247.600,206.000 247.600 C 205.778 247.600,205.600 248.667,205.600 250.000 C 205.600 251.333,205.422 252.400,205.200 252.400 C 204.980 252.400,204.800 252.683,204.800 253.029 C 204.800 253.837,203.837 254.800,203.029 254.800 C 202.683 254.800,202.400 254.980,202.400 255.200 C 202.400 255.422,201.333 255.600,200.000 255.600 C 198.667 255.600,197.600 255.778,197.600 256.000 C 197.600 256.220,196.586 256.400,195.347 256.400 C 193.049 256.400,191.600 257.274,191.600 258.661 C 191.600 258.958,191.420 259.200,191.200 259.200 C 190.980 259.200,190.800 259.560,190.800 260.000 C 190.800 260.440,190.620 260.800,190.400 260.800 C 190.180 260.800,190.000 261.340,190.000 262.000 C 190.000 262.660,189.820 263.200,189.600 263.200 C 189.380 263.200,189.200 263.740,189.200 264.400 C 189.200 265.060,189.020 265.600,188.800 265.600 C 188.580 265.600,188.400 266.320,188.400 267.200 C 188.400 268.080,188.220 268.800,188.000 268.800 C 187.780 268.800,187.600 269.120,187.600 269.512 C 187.600 269.903,187.240 270.483,186.800 270.800 C 186.360 271.117,186.000 271.620,186.000 271.917 C 186.000 272.576,185.026 273.600,184.400 273.600 C 184.149 273.600,183.673 273.870,183.343 274.200 C 183.013 274.530,182.229 274.800,181.600 274.800 C 180.971 274.800,180.187 274.530,179.857 274.200 C 179.527 273.870,179.051 273.600,178.800 273.600 C 178.174 273.600,177.200 272.576,177.200 271.917 C 177.200 271.620,176.840 271.117,176.400 270.800 C 175.501 270.152,175.117 254.800,176.000 254.800 C 176.220 254.800,176.400 254.260,176.400 253.600 C 176.400 252.940,176.580 252.400,176.800 252.400 C 177.020 252.400,177.200 252.040,177.200 251.600 C 177.200 251.160,177.380 250.800,177.600 250.800 C 177.820 250.800,178.000 250.512,178.000 250.160 C 178.000 249.809,178.540 249.017,179.200 248.400 C 179.860 247.783,180.400 247.031,180.400 246.728 C 180.400 246.425,180.760 245.917,181.200 245.600 C 181.640 245.283,182.000 244.703,182.000 244.312 C 182.000 243.920,182.180 243.600,182.400 243.600 C 182.620 243.600,182.800 243.150,182.800 242.600 C 182.800 242.050,182.980 241.600,183.200 241.600 C 183.420 241.600,183.600 241.280,183.600 240.888 C 183.600 240.497,183.960 239.917,184.400 239.600 C 184.840 239.283,185.200 238.787,185.200 238.498 C 185.200 237.816,187.816 235.200,188.498 235.200 C 188.787 235.200,189.283 234.840,189.600 234.400 C 189.917 233.960,190.497 233.600,190.888 233.600 C 191.280 233.600,191.600 233.420,191.600 233.200 C 191.600 232.980,191.968 232.800,192.418 232.800 C 193.379 232.800,195.200 231.110,195.200 230.218 C 195.200 229.878,195.380 229.600,195.600 229.600 C 195.820 229.600,196.000 229.325,196.000 228.989 C 196.000 227.901,199.411 224.872,200.965 224.580 C 201.754 224.432,202.400 224.151,202.400 223.955 C 202.400 223.760,202.940 223.600,203.600 223.600 C 204.260 223.600,204.800 223.420,204.800 223.200 C 204.800 222.980,205.610 222.800,206.600 222.800 C 207.590 222.800,208.400 222.620,208.400 222.400 C 208.400 222.180,209.300 222.000,210.400 222.000 C 211.500 222.000,212.400 221.820,212.400 221.600 C 212.400 221.380,213.300 221.200,214.400 221.200 C 215.500 221.200,216.400 221.020,216.400 220.800 C 216.400 220.580,216.940 220.400,217.600 220.400 C 218.260 220.400,218.800 220.220,218.800 220.000 C 218.800 219.780,218.980 219.600,219.200 219.600 C 219.420 219.600,219.600 219.780,219.600 220.000 " stroke="none" fill="#3c3c44" fill-rule="evenodd"></path><path id="path3" d="M49.200 110.400 C 49.200 110.633,47.867 110.800,46.000 110.800 C 44.133 110.800,42.800 110.967,42.800 111.200 C 42.800 111.420,42.530 111.600,42.200 111.600 C 41.870 111.600,41.600 111.780,41.600 112.000 C 41.600 112.220,41.324 112.400,40.987 112.400 C 40.191 112.400,37.600 114.991,37.600 115.787 C 37.600 116.124,37.420 116.400,37.200 116.400 C 36.980 116.400,36.800 116.760,36.800 117.200 C 36.800 117.640,36.620 118.000,36.400 118.000 C 36.135 118.000,36.000 137.667,36.000 176.200 C 36.000 214.733,35.865 234.400,35.600 234.400 C 35.363 234.400,35.200 235.867,35.200 238.000 C 35.200 240.133,35.037 241.600,34.800 241.600 C 34.580 241.600,34.400 242.230,34.400 243.000 C 34.400 243.770,34.580 244.400,34.800 244.400 C 35.020 244.400,35.200 244.940,35.200 245.600 C 35.200 246.260,35.380 246.800,35.600 246.800 C 35.820 246.800,36.000 247.160,36.000 247.600 C 36.000 248.040,36.180 248.400,36.400 248.400 C 36.620 248.400,36.800 248.678,36.800 249.018 C 36.800 249.818,38.582 251.600,39.382 251.600 C 39.722 251.600,40.000 251.780,40.000 252.000 C 40.000 252.220,40.360 252.400,40.800 252.400 C 41.240 252.400,41.600 252.580,41.600 252.800 C 41.600 253.020,42.050 253.200,42.600 253.200 C 43.150 253.200,43.600 253.380,43.600 253.600 C 43.600 253.829,44.800 254.000,46.400 254.000 C 48.000 254.000,49.200 253.829,49.200 253.600 C 49.200 253.335,66.533 253.200,100.400 253.200 C 134.267 253.200,151.600 253.065,151.600 252.800 C 151.600 252.567,152.933 252.400,154.800 252.400 C 156.667 252.400,158.000 252.233,158.000 252.000 C 158.000 251.780,158.270 251.600,158.600 251.600 C 158.930 251.600,159.200 251.420,159.200 251.200 C 159.200 250.980,159.476 250.800,159.813 250.800 C 160.609 250.800,163.200 248.209,163.200 247.413 C 163.200 247.076,163.380 246.800,163.600 246.800 C 163.820 246.800,164.000 246.440,164.000 246.000 C 164.000 245.560,164.180 245.200,164.400 245.200 C 164.620 245.200,164.800 244.660,164.800 244.000 C 164.800 243.340,164.620 242.800,164.400 242.800 C 164.180 242.800,164.000 242.530,164.000 242.200 C 164.000 241.870,163.820 241.600,163.600 241.600 C 163.380 241.600,163.200 241.324,163.200 240.987 C 163.200 240.191,160.609 237.600,159.813 237.600 C 159.476 237.600,159.200 237.420,159.200 237.200 C 159.200 236.980,158.930 236.800,158.600 236.800 C 158.270 236.800,158.000 236.620,158.000 236.400 C 158.000 236.167,156.667 236.000,154.800 236.000 C 152.933 236.000,151.600 235.833,151.600 235.600 C 151.600 235.336,135.467 235.200,104.000 235.200 C 72.533 235.200,56.400 235.064,56.400 234.800 C 56.400 234.580,56.124 234.400,55.787 234.400 C 55.449 234.400,54.549 233.776,53.787 233.013 L 52.400 231.627 52.400 181.600 L 52.400 131.573 53.787 130.187 C 54.549 129.424,55.449 128.800,55.787 128.800 C 56.124 128.800,56.400 128.620,56.400 128.400 C 56.400 128.134,104.667 128.000,200.400 128.000 C 296.133 128.000,344.400 128.134,344.400 128.400 C 344.400 128.620,344.676 128.800,345.013 128.800 C 345.351 128.800,346.251 129.424,347.013 130.187 L 348.400 131.573 348.400 181.600 L 348.400 231.627 347.013 233.013 C 346.251 233.776,345.351 234.400,345.013 234.400 C 344.676 234.400,344.400 234.580,344.400 234.800 C 344.400 235.064,328.267 235.200,296.800 235.200 C 265.333 235.200,249.200 235.336,249.200 235.600 C 249.200 235.837,247.733 236.000,245.600 236.000 C 243.467 236.000,242.000 236.163,242.000 236.400 C 242.000 236.620,241.550 236.800,241.000 236.800 C 240.450 236.800,240.000 236.980,240.000 237.200 C 240.000 237.420,239.717 237.600,239.371 237.600 C 239.026 237.600,238.486 237.857,238.171 238.171 C 237.857 238.486,237.600 239.026,237.600 239.371 C 237.600 239.717,237.420 240.000,237.200 240.000 C 236.980 240.000,236.800 240.450,236.800 241.000 C 236.800 241.550,236.620 242.000,236.400 242.000 C 236.180 242.000,236.000 242.720,236.000 243.600 C 236.000 244.480,236.180 245.200,236.400 245.200 C 236.620 245.200,236.800 245.560,236.800 246.000 C 236.800 246.440,236.980 246.800,237.200 246.800 C 237.420 246.800,237.600 247.076,237.600 247.413 C 237.600 248.209,240.191 250.800,240.987 250.800 C 241.324 250.800,241.600 250.980,241.600 251.200 C 241.600 251.420,241.870 251.600,242.200 251.600 C 242.530 251.600,242.800 251.780,242.800 252.000 C 242.800 252.233,244.133 252.400,246.000 252.400 C 247.867 252.400,249.200 252.567,249.200 252.800 C 249.200 253.065,266.533 253.200,300.400 253.200 C 334.267 253.200,351.600 253.335,351.600 253.600 C 351.600 253.829,352.800 254.000,354.400 254.000 C 356.000 254.000,357.200 253.829,357.200 253.600 C 357.200 253.380,357.650 253.200,358.200 253.200 C 358.750 253.200,359.200 253.020,359.200 252.800 C 359.200 252.580,359.560 252.400,360.000 252.400 C 360.440 252.400,360.800 252.220,360.800 252.000 C 360.800 251.780,361.078 251.600,361.418 251.600 C 362.218 251.600,364.000 249.818,364.000 249.018 C 364.000 248.678,364.180 248.400,364.400 248.400 C 364.620 248.400,364.800 248.040,364.800 247.600 C 364.800 247.160,364.980 246.800,365.200 246.800 C 365.420 246.800,365.600 246.260,365.600 245.600 C 365.600 244.940,365.780 244.400,366.000 244.400 C 366.220 244.400,366.400 243.770,366.400 243.000 C 366.400 242.230,366.220 241.600,366.000 241.600 C 365.763 241.600,365.600 240.133,365.600 238.000 C 365.600 235.867,365.437 234.400,365.200 234.400 C 364.935 234.400,364.800 214.733,364.800 176.200 C 364.800 137.667,364.665 118.000,364.400 118.000 C 364.180 118.000,364.000 117.640,364.000 117.200 C 364.000 116.760,363.820 116.400,363.600 116.400 C 363.380 116.400,363.200 116.124,363.200 115.787 C 363.200 114.991,360.609 112.400,359.813 112.400 C 359.476 112.400,359.200 112.220,359.200 112.000 C 359.200 111.780,358.930 111.600,358.600 111.600 C 358.270 111.600,358.000 111.420,358.000 111.200 C 358.000 110.967,356.667 110.800,354.800 110.800 C 352.933 110.800,351.600 110.633,351.600 110.400 C 351.600 110.134,300.933 110.000,200.400 110.000 C 99.867 110.000,49.200 110.134,49.200 110.400 M348.400 115.200 C 348.400 115.422,349.467 115.600,350.800 115.600 C 352.133 115.600,353.200 115.778,353.200 116.000 C 353.200 116.220,354.060 116.400,355.112 116.400 C 356.609 116.400,357.151 116.584,357.612 117.249 C 357.935 117.716,358.425 118.333,358.700 118.620 C 359.095 119.033,359.200 131.134,359.200 176.371 C 359.200 214.257,359.335 233.600,359.600 233.600 C 359.820 233.600,360.000 234.140,360.000 234.800 C 360.000 235.460,360.180 236.000,360.400 236.000 C 360.620 236.000,360.800 236.720,360.800 237.600 C 360.800 238.480,360.980 239.200,361.200 239.200 C 361.420 239.200,361.600 240.010,361.600 241.000 C 361.600 241.990,361.780 242.800,362.000 242.800 C 362.707 242.800,362.426 244.204,361.600 244.800 C 361.160 245.117,360.800 245.615,360.800 245.906 C 360.800 246.485,359.038 248.400,358.506 248.400 C 358.325 248.400,357.917 248.760,357.600 249.200 C 357.006 250.024,354.800 250.339,354.800 249.600 C 354.800 249.356,352.933 249.200,350.000 249.200 C 347.067 249.200,345.200 249.044,345.200 248.800 C 345.200 248.536,329.467 248.400,298.800 248.400 C 268.133 248.400,252.400 248.264,252.400 248.000 C 252.400 247.778,251.333 247.600,250.000 247.600 C 248.667 247.600,247.600 247.422,247.600 247.200 C 247.600 246.980,246.772 246.800,245.760 246.800 C 243.996 246.800,241.600 245.173,241.600 243.976 C 241.600 242.850,243.714 241.600,245.618 241.600 C 246.708 241.600,247.600 241.420,247.600 241.200 C 247.600 240.978,248.667 240.800,250.000 240.800 C 251.333 240.800,252.400 240.622,252.400 240.400 C 252.400 240.136,268.000 240.000,298.400 240.000 C 328.800 240.000,344.400 239.864,344.400 239.600 C 344.400 239.380,344.760 239.200,345.200 239.200 C 345.640 239.200,346.000 239.020,346.000 238.800 C 346.000 238.580,346.360 238.400,346.800 238.400 C 347.240 238.400,347.600 238.220,347.600 238.000 C 347.600 237.780,347.873 237.600,348.207 237.600 C 348.541 237.600,349.981 236.433,351.407 235.007 L 354.000 232.415 354.000 181.007 C 354.000 147.002,353.865 129.600,353.600 129.600 C 353.380 129.600,353.200 129.325,353.200 128.989 C 353.200 127.471,349.659 124.748,347.380 124.513 C 346.181 124.389,345.200 124.133,345.200 123.944 C 345.200 123.753,280.965 123.600,200.400 123.600 C 119.835 123.600,55.600 123.753,55.600 123.944 C 55.600 124.133,54.619 124.389,53.420 124.513 C 51.141 124.748,47.600 127.471,47.600 128.989 C 47.600 129.325,47.420 129.600,47.200 129.600 C 46.935 129.600,46.800 147.002,46.800 181.007 L 46.800 232.415 49.393 235.007 C 50.819 236.433,52.259 237.600,52.593 237.600 C 52.927 237.600,53.200 237.780,53.200 238.000 C 53.200 238.220,53.560 238.400,54.000 238.400 C 54.440 238.400,54.800 238.580,54.800 238.800 C 54.800 239.020,55.160 239.200,55.600 239.200 C 56.040 239.200,56.400 239.380,56.400 239.600 C 56.400 239.864,72.000 240.000,102.400 240.000 C 132.800 240.000,148.400 240.136,148.400 240.400 C 148.400 240.622,149.467 240.800,150.800 240.800 C 152.133 240.800,153.200 240.978,153.200 241.200 C 153.200 241.420,154.093 241.600,155.184 241.600 C 156.477 241.600,157.348 241.814,157.684 242.214 C 157.968 242.552,158.438 243.092,158.729 243.414 C 159.167 243.900,159.167 244.094,158.729 244.551 C 158.438 244.854,157.935 245.484,157.612 245.951 C 157.151 246.616,156.609 246.800,155.112 246.800 C 154.060 246.800,153.200 246.980,153.200 247.200 C 153.200 247.422,152.133 247.600,150.800 247.600 C 149.467 247.600,148.400 247.778,148.400 248.000 C 148.400 248.264,132.667 248.400,102.000 248.400 C 71.333 248.400,55.600 248.536,55.600 248.800 C 55.600 249.044,53.733 249.200,50.800 249.200 C 47.867 249.200,46.000 249.356,46.000 249.600 C 46.000 250.339,43.794 250.024,43.200 249.200 C 42.883 248.760,42.475 248.400,42.294 248.400 C 41.762 248.400,40.000 246.485,40.000 245.906 C 40.000 245.615,39.640 245.117,39.200 244.800 C 38.374 244.204,38.093 242.800,38.800 242.800 C 39.020 242.800,39.200 241.990,39.200 241.000 C 39.200 240.010,39.380 239.200,39.600 239.200 C 39.820 239.200,40.000 238.480,40.000 237.600 C 40.000 236.720,40.180 236.000,40.400 236.000 C 40.620 236.000,40.800 235.460,40.800 234.800 C 40.800 234.140,40.980 233.600,41.200 233.600 C 41.465 233.600,41.600 214.214,41.600 176.242 L 41.600 118.885 42.760 117.642 C 43.733 116.601,44.218 116.400,45.760 116.400 C 46.772 116.400,47.600 116.220,47.600 116.000 C 47.600 115.778,48.667 115.600,50.000 115.600 C 51.333 115.600,52.400 115.422,52.400 115.200 C 52.400 114.934,102.000 114.800,200.400 114.800 C 298.800 114.800,348.400 114.934,348.400 115.200 M114.000 159.600 C 114.000 159.857,110.200 160.000,103.400 160.000 C 96.600 160.000,92.800 160.143,92.800 160.400 C 92.800 160.620,92.390 160.800,91.888 160.800 C 91.387 160.800,90.717 161.160,90.400 161.600 C 90.083 162.040,89.580 162.400,89.283 162.400 C 88.587 162.400,87.600 163.387,87.600 164.083 C 87.600 164.380,87.240 164.883,86.800 165.200 C 86.330 165.539,86.000 166.235,86.000 166.888 C 86.000 167.500,85.820 168.000,85.600 168.000 C 85.341 168.000,85.200 172.800,85.200 181.600 C 85.200 190.400,85.341 195.200,85.600 195.200 C 85.820 195.200,86.000 195.700,86.000 196.312 C 86.000 196.965,86.330 197.661,86.800 198.000 C 87.240 198.317,87.600 198.820,87.600 199.117 C 87.600 199.813,88.587 200.800,89.283 200.800 C 89.580 200.800,90.083 201.160,90.400 201.600 C 90.717 202.040,91.387 202.400,91.888 202.400 C 92.390 202.400,92.800 202.580,92.800 202.800 C 92.800 203.057,96.600 203.200,103.400 203.200 C 110.200 203.200,114.000 203.057,114.000 202.800 C 114.000 202.567,115.333 202.400,117.200 202.400 C 119.067 202.400,120.400 202.233,120.400 202.000 C 120.400 201.780,120.760 201.600,121.200 201.600 C 121.640 201.600,122.000 201.420,122.000 201.200 C 122.000 200.980,122.320 200.800,122.712 200.800 C 123.103 200.800,123.688 200.418,124.012 199.951 C 124.335 199.484,124.825 198.867,125.100 198.580 C 125.375 198.292,125.600 197.774,125.600 197.429 C 125.600 197.083,125.780 196.800,126.000 196.800 C 126.220 196.800,126.400 196.440,126.400 196.000 C 126.400 195.560,126.580 195.200,126.800 195.200 C 127.020 195.200,127.200 194.922,127.200 194.582 C 127.200 194.242,127.684 193.480,128.275 192.888 C 130.431 190.732,136.000 191.953,136.000 194.582 C 136.000 194.922,136.180 195.200,136.400 195.200 C 136.620 195.200,136.800 195.560,136.800 196.000 C 136.800 196.440,136.980 196.800,137.200 196.800 C 137.420 196.800,137.600 197.076,137.600 197.413 C 137.600 198.209,140.191 200.800,140.987 200.800 C 141.324 200.800,141.600 200.980,141.600 201.200 C 141.600 201.420,141.870 201.600,142.200 201.600 C 142.530 201.600,142.800 201.780,142.800 202.000 C 142.800 202.261,149.733 202.400,162.800 202.400 C 175.867 202.400,182.800 202.261,182.800 202.000 C 182.800 201.780,183.160 201.600,183.600 201.600 C 184.040 201.600,184.400 201.420,184.400 201.200 C 184.400 200.980,184.676 200.800,185.013 200.800 C 185.351 200.800,186.251 200.176,187.013 199.413 C 187.776 198.651,188.400 197.751,188.400 197.413 C 188.400 197.076,188.580 196.800,188.800 196.800 C 189.020 196.800,189.200 196.440,189.200 196.000 C 189.200 195.560,189.380 195.200,189.600 195.200 C 189.820 195.200,190.000 194.660,190.000 194.000 C 190.000 193.340,190.180 192.800,190.400 192.800 C 190.620 192.800,190.800 192.170,190.800 191.400 C 190.800 190.630,190.969 190.000,191.176 190.000 C 191.382 190.000,191.676 188.740,191.827 187.200 C 191.979 185.660,192.260 184.400,192.452 184.400 C 192.643 184.400,192.800 183.875,192.800 183.233 C 192.800 182.592,193.025 181.962,193.300 181.833 C 193.700 181.647,193.700 181.553,193.300 181.367 C 193.025 181.238,192.800 180.788,192.800 180.367 C 192.800 179.945,192.620 179.600,192.400 179.600 C 192.180 179.600,192.000 179.255,192.000 178.833 C 192.000 177.589,189.122 174.897,187.459 174.585 C 186.657 174.434,186.000 174.151,186.000 173.955 C 186.000 173.760,185.460 173.600,184.800 173.600 C 184.140 173.600,183.600 173.420,183.600 173.200 C 183.600 172.957,181.800 172.800,179.000 172.800 C 176.200 172.800,174.400 172.957,174.400 173.200 C 174.400 173.453,171.467 173.600,166.400 173.600 C 161.333 173.600,158.400 173.453,158.400 173.200 C 158.400 172.980,157.854 172.800,157.187 172.800 C 155.864 172.800,153.200 170.537,153.200 169.413 C 153.200 169.076,153.020 168.800,152.800 168.800 C 152.580 168.800,152.400 168.440,152.400 168.000 C 152.400 167.560,152.220 167.200,152.000 167.200 C 151.780 167.200,151.600 166.840,151.600 166.400 C 151.600 165.960,151.420 165.600,151.200 165.600 C 150.980 165.600,150.800 165.322,150.800 164.982 C 150.800 164.182,149.018 162.400,148.218 162.400 C 147.878 162.400,147.600 162.220,147.600 162.000 C 147.600 161.780,147.240 161.600,146.800 161.600 C 146.360 161.600,146.000 161.420,146.000 161.200 C 146.000 160.980,145.655 160.800,145.233 160.800 C 144.812 160.800,144.362 160.575,144.233 160.300 C 144.047 159.900,143.953 159.900,143.767 160.300 C 143.638 160.575,143.098 160.800,142.567 160.800 C 142.035 160.800,141.600 160.980,141.600 161.200 C 141.600 161.420,141.060 161.600,140.400 161.600 C 139.740 161.600,139.200 161.780,139.200 162.000 C 139.200 162.220,138.880 162.400,138.488 162.400 C 138.097 162.400,137.517 162.760,137.200 163.200 C 136.883 163.640,136.303 164.000,135.912 164.000 C 135.496 164.000,135.200 164.296,135.200 164.712 C 135.200 165.103,134.840 165.683,134.400 166.000 C 133.960 166.317,133.600 166.897,133.600 167.288 C 133.600 167.680,133.420 168.000,133.200 168.000 C 132.980 168.000,132.800 168.360,132.800 168.800 C 132.800 169.736,131.804 169.861,130.971 169.029 C 130.657 168.714,130.400 167.994,130.400 167.429 C 130.400 166.863,130.220 166.400,130.000 166.400 C 129.780 166.400,129.600 166.125,129.600 165.789 C 129.600 165.454,128.795 164.374,127.811 163.389 C 126.826 162.405,125.746 161.600,125.411 161.600 C 125.075 161.600,124.800 161.420,124.800 161.200 C 124.800 160.980,124.350 160.800,123.800 160.800 C 123.250 160.800,122.800 160.620,122.800 160.400 C 122.800 160.180,122.260 160.000,121.600 160.000 C 120.940 160.000,120.400 159.820,120.400 159.600 C 120.400 159.367,119.067 159.200,117.200 159.200 C 115.333 159.200,114.000 159.367,114.000 159.600 M231.200 160.400 C 231.200 160.620,230.840 160.800,230.400 160.800 C 229.960 160.800,229.600 160.980,229.600 161.200 C 229.600 161.420,229.240 161.600,228.800 161.600 C 228.360 161.600,228.000 161.780,228.000 162.000 C 228.000 162.220,227.722 162.400,227.382 162.400 C 226.376 162.400,224.874 164.201,224.582 165.755 C 224.433 166.550,224.151 167.200,223.955 167.200 C 223.760 167.200,223.600 167.560,223.600 168.000 C 223.600 168.440,223.420 168.800,223.200 168.800 C 222.980 168.800,222.800 169.120,222.800 169.512 C 222.800 169.903,222.440 170.483,222.000 170.800 C 221.560 171.117,221.200 171.615,221.200 171.906 C 221.200 172.691,219.095 174.685,218.896 174.089 C 218.779 173.736,217.238 173.600,213.367 173.600 C 210.056 173.600,208.000 173.447,208.000 173.200 C 208.000 172.980,207.640 172.800,207.200 172.800 C 206.760 172.800,206.400 172.980,206.400 173.200 C 206.400 173.420,205.860 173.600,205.200 173.600 C 204.540 173.600,204.000 173.757,204.000 173.948 C 204.000 174.140,203.139 174.411,202.087 174.551 C 200.844 174.716,199.972 175.084,199.598 175.602 C 199.282 176.041,198.703 176.400,198.312 176.400 C 197.896 176.400,197.600 176.696,197.600 177.112 C 197.600 177.503,197.240 178.083,196.800 178.400 C 196.360 178.717,196.000 179.297,196.000 179.688 C 196.000 180.080,195.820 180.400,195.600 180.400 C 195.380 180.400,195.200 181.300,195.200 182.400 C 195.200 183.500,195.380 184.400,195.600 184.400 C 195.820 184.400,196.000 184.940,196.000 185.600 C 196.000 186.260,196.180 186.800,196.400 186.800 C 196.620 186.800,196.800 187.700,196.800 188.800 C 196.800 189.900,196.980 190.800,197.200 190.800 C 197.420 190.800,197.600 191.610,197.600 192.600 C 197.600 193.590,197.780 194.400,198.000 194.400 C 198.220 194.400,198.400 194.760,198.400 195.200 C 198.400 195.640,198.580 196.000,198.800 196.000 C 199.020 196.000,199.200 196.360,199.200 196.800 C 199.200 197.240,199.380 197.600,199.600 197.600 C 199.820 197.600,200.000 197.878,200.000 198.218 C 200.000 199.018,201.782 200.800,202.582 200.800 C 202.922 200.800,203.200 200.980,203.200 201.200 C 203.200 201.420,203.560 201.600,204.000 201.600 C 204.440 201.600,204.800 201.780,204.800 202.000 C 204.800 202.220,205.160 202.400,205.600 202.400 C 206.040 202.400,206.400 202.580,206.400 202.800 C 206.400 203.051,209.000 203.200,213.400 203.200 C 217.800 203.200,220.400 203.051,220.400 202.800 C 220.400 202.553,222.467 202.400,225.800 202.400 C 229.133 202.400,231.200 202.247,231.200 202.000 C 231.200 201.749,233.667 201.600,237.800 201.600 C 241.933 201.600,244.400 201.749,244.400 202.000 C 244.400 202.248,246.533 202.400,250.000 202.400 C 253.467 202.400,255.600 202.552,255.600 202.800 C 255.600 203.053,258.467 203.200,263.400 203.200 C 268.333 203.200,271.200 203.053,271.200 202.800 C 271.200 202.544,274.933 202.400,281.600 202.400 C 288.267 202.400,292.000 202.544,292.000 202.800 C 292.000 203.053,294.800 203.200,299.600 203.200 C 304.400 203.200,307.200 203.053,307.200 202.800 C 307.200 202.580,307.470 202.400,307.800 202.400 C 308.130 202.400,308.400 202.220,308.400 202.000 C 308.400 201.780,308.760 201.600,309.200 201.600 C 309.640 201.600,310.000 201.420,310.000 201.200 C 310.000 200.980,310.278 200.800,310.618 200.800 C 311.418 200.800,313.200 199.018,313.200 198.218 C 313.200 197.878,313.380 197.600,313.600 197.600 C 313.820 197.600,314.000 197.240,314.000 196.800 C 314.000 196.360,314.180 196.000,314.400 196.000 C 314.620 196.000,314.800 195.640,314.800 195.200 C 314.800 194.760,314.980 194.400,315.200 194.400 C 315.420 194.400,315.600 194.040,315.600 193.600 C 315.600 193.160,315.420 192.800,315.200 192.800 C 314.953 192.800,314.800 190.733,314.800 187.400 C 314.800 184.067,314.647 182.000,314.400 182.000 C 314.180 182.000,314.000 181.500,314.000 180.888 C 314.000 180.235,313.670 179.539,313.200 179.200 C 312.760 178.883,312.400 178.385,312.400 178.094 C 312.400 177.450,310.612 175.600,309.990 175.600 C 309.744 175.600,309.273 175.330,308.943 175.000 C 308.613 174.670,307.906 174.400,307.371 174.400 C 306.837 174.400,306.400 174.220,306.400 174.000 C 306.400 173.752,304.267 173.600,300.800 173.600 C 297.333 173.600,295.200 173.448,295.200 173.200 C 295.200 172.980,294.700 172.800,294.088 172.800 C 293.403 172.800,292.751 172.472,292.388 171.945 C 292.065 171.474,291.395 170.673,290.900 170.163 C 290.405 169.653,290.000 168.958,290.000 168.618 C 290.000 168.278,289.820 168.000,289.600 168.000 C 289.380 168.000,289.200 167.640,289.200 167.200 C 289.200 166.760,289.020 166.400,288.800 166.400 C 288.580 166.400,288.400 166.124,288.400 165.787 C 288.400 164.991,285.809 162.400,285.013 162.400 C 284.676 162.400,284.400 162.220,284.400 162.000 C 284.400 161.780,284.040 161.600,283.600 161.600 C 283.160 161.600,282.800 161.420,282.800 161.200 C 282.800 160.980,282.260 160.800,281.600 160.800 C 280.940 160.800,280.400 160.980,280.400 161.200 C 280.400 161.420,280.040 161.600,279.600 161.600 C 279.160 161.600,278.800 161.780,278.800 162.000 C 278.800 162.220,278.524 162.400,278.187 162.400 C 277.139 162.400,274.870 165.019,274.581 166.561 C 274.432 167.353,274.151 168.000,273.955 168.000 C 273.760 168.000,273.600 168.275,273.600 168.611 C 273.600 168.946,272.795 170.026,271.811 171.011 L 270.021 172.800 259.611 172.800 C 252.937 172.800,249.200 172.656,249.200 172.400 C 249.200 172.180,248.300 172.000,247.200 172.000 C 246.100 172.000,245.200 171.820,245.200 171.600 C 245.200 171.380,244.840 171.200,244.400 171.200 C 243.867 171.200,243.600 170.933,243.600 170.400 C 243.600 169.960,243.420 169.600,243.200 169.600 C 242.980 169.600,242.800 169.240,242.800 168.800 C 242.800 168.360,242.620 168.000,242.400 168.000 C 242.180 168.000,242.000 167.653,242.000 167.229 C 242.000 166.804,241.730 166.187,241.400 165.857 C 241.070 165.527,240.800 164.974,240.800 164.629 C 240.800 164.283,240.480 164.000,240.088 164.000 C 239.697 164.000,239.117 163.640,238.800 163.200 C 238.483 162.760,237.903 162.400,237.512 162.400 C 237.120 162.400,236.800 162.220,236.800 162.000 C 236.800 161.780,236.260 161.600,235.600 161.600 C 234.940 161.600,234.400 161.420,234.400 161.200 C 234.400 160.980,233.860 160.800,233.200 160.800 C 232.540 160.800,232.000 160.620,232.000 160.400 C 232.000 160.180,231.820 160.000,231.600 160.000 C 231.380 160.000,231.200 160.180,231.200 160.400 M119.600 163.600 C 119.600 163.820,119.960 164.000,120.400 164.000 C 120.840 164.000,121.200 164.180,121.200 164.400 C 121.200 164.620,121.515 164.805,121.900 164.812 C 122.285 164.819,123.050 165.370,123.600 166.037 C 124.150 166.704,125.005 167.681,125.500 168.207 C 125.995 168.733,126.400 169.442,126.400 169.782 C 126.400 170.122,126.580 170.400,126.800 170.400 C 127.020 170.400,127.200 170.678,127.200 171.018 C 127.200 171.818,128.982 173.600,129.782 173.600 C 130.122 173.600,130.400 173.780,130.400 174.000 C 130.400 174.220,131.300 174.400,132.400 174.400 C 133.500 174.400,134.400 174.220,134.400 174.000 C 134.400 173.780,134.675 173.600,135.011 173.600 C 135.700 173.600,139.200 170.252,139.200 169.592 C 139.200 169.090,141.012 167.200,141.494 167.200 C 141.675 167.200,142.083 166.840,142.400 166.400 C 142.996 165.574,144.400 165.293,144.400 166.000 C 144.400 166.220,144.683 166.400,145.029 166.400 C 145.837 166.400,146.800 167.363,146.800 168.171 C 146.800 168.517,146.980 168.800,147.200 168.800 C 147.420 168.800,147.600 169.160,147.600 169.600 C 147.600 170.040,147.780 170.400,148.000 170.400 C 148.220 170.400,148.400 170.940,148.400 171.600 C 148.400 172.260,148.580 172.800,148.800 172.800 C 149.020 172.800,149.200 173.160,149.200 173.600 C 149.200 174.040,149.372 174.400,149.582 174.400 C 149.792 174.400,150.414 174.850,150.964 175.400 C 151.514 175.950,152.242 176.400,152.582 176.400 C 152.922 176.400,153.200 176.580,153.200 176.800 C 153.200 177.020,153.740 177.200,154.400 177.200 C 155.060 177.200,155.600 177.380,155.600 177.600 C 155.600 177.835,157.000 178.000,159.000 178.000 C 161.000 178.000,162.400 178.165,162.400 178.400 C 162.400 178.646,164.400 178.800,167.600 178.800 C 170.800 178.800,172.800 178.646,172.800 178.400 C 172.800 178.180,173.790 178.000,175.000 178.000 C 176.210 178.000,177.200 177.820,177.200 177.600 C 177.200 177.371,178.400 177.200,180.000 177.200 C 181.600 177.200,182.800 177.371,182.800 177.600 C 182.800 177.820,183.075 178.000,183.411 178.000 C 184.204 178.000,187.600 181.396,187.600 182.189 C 187.600 182.525,187.420 182.800,187.200 182.800 C 186.980 182.800,186.800 183.520,186.800 184.400 C 186.800 185.280,186.620 186.000,186.400 186.000 C 186.180 186.000,186.000 186.720,186.000 187.600 C 186.000 188.480,185.820 189.200,185.600 189.200 C 185.380 189.200,185.200 189.740,185.200 190.400 C 185.200 191.060,185.020 191.600,184.800 191.600 C 184.580 191.600,184.400 192.146,184.400 192.813 C 184.400 193.664,183.986 194.441,183.013 195.413 L 181.627 196.800 162.774 196.800 L 143.921 196.800 142.760 195.558 C 142.046 194.793,141.600 193.880,141.600 193.185 C 141.600 192.405,141.351 191.975,140.800 191.800 C 140.360 191.660,140.000 191.198,140.000 190.773 C 140.000 190.299,139.725 190.000,139.288 190.000 C 138.897 190.000,138.317 189.640,138.000 189.200 C 137.661 188.730,136.965 188.400,136.312 188.400 C 135.700 188.400,135.200 188.220,135.200 188.000 C 135.200 187.771,134.000 187.600,132.400 187.600 C 130.800 187.600,129.600 187.771,129.600 188.000 C 129.600 188.220,129.060 188.400,128.400 188.400 C 127.740 188.400,127.200 188.580,127.200 188.800 C 127.200 189.020,126.880 189.200,126.488 189.200 C 126.097 189.200,125.512 189.582,125.188 190.049 C 124.447 191.119,123.919 191.647,122.849 192.388 C 122.382 192.712,122.000 193.213,122.000 193.502 C 122.000 194.841,119.276 196.800,117.413 196.800 C 116.416 196.800,115.600 196.980,115.600 197.200 C 115.600 197.422,114.533 197.600,113.200 197.600 C 111.867 197.600,110.800 197.778,110.800 198.000 C 110.800 198.933,93.041 198.494,92.388 197.545 C 92.065 197.074,91.395 196.273,90.900 195.763 C 89.484 194.305,89.484 168.895,90.900 167.437 C 91.395 166.927,92.065 166.126,92.388 165.655 C 92.954 164.833,93.265 164.800,100.488 164.800 C 105.229 164.800,108.000 164.652,108.000 164.400 C 108.000 164.157,109.800 164.000,112.600 164.000 C 115.400 164.000,117.200 163.843,117.200 163.600 C 117.200 163.380,117.740 163.200,118.400 163.200 C 119.060 163.200,119.600 163.380,119.600 163.600 M233.200 166.400 C 233.517 166.840,234.015 167.200,234.306 167.200 C 235.767 167.200,236.800 169.099,236.800 171.782 C 236.800 173.261,236.974 174.400,237.200 174.400 C 237.420 174.400,237.600 175.030,237.600 175.800 C 237.600 176.570,237.780 177.200,238.000 177.200 C 238.220 177.200,238.400 177.740,238.400 178.400 C 238.400 179.060,238.580 179.600,238.800 179.600 C 239.020 179.600,239.200 179.960,239.200 180.400 C 239.200 180.840,239.380 181.200,239.600 181.200 C 239.820 181.200,240.000 181.740,240.000 182.400 C 240.000 183.060,240.180 183.600,240.400 183.600 C 240.620 183.600,240.800 183.878,240.800 184.217 C 240.800 184.868,240.913 185.034,242.759 187.100 C 244.084 188.582,244.400 188.696,244.400 187.688 C 244.400 187.297,244.760 186.717,245.200 186.400 C 245.670 186.061,246.000 185.365,246.000 184.712 C 246.000 184.100,246.180 183.600,246.400 183.600 C 246.620 183.600,246.800 183.322,246.800 182.982 C 246.800 182.182,248.582 180.400,249.382 180.400 C 249.722 180.400,250.000 180.220,250.000 180.000 C 250.000 179.780,250.360 179.600,250.800 179.600 C 251.240 179.600,251.600 179.420,251.600 179.200 C 251.600 178.980,252.320 178.800,253.200 178.800 C 254.080 178.800,254.800 178.620,254.800 178.400 C 254.800 178.148,257.533 178.000,262.200 178.000 C 266.867 178.000,269.600 177.852,269.600 177.600 C 269.600 177.380,269.960 177.200,270.400 177.200 C 270.840 177.200,271.200 177.020,271.200 176.800 C 271.200 176.580,271.478 176.400,271.818 176.400 C 272.158 176.400,272.886 175.950,273.436 175.400 C 273.986 174.850,274.621 174.400,274.847 174.400 C 275.404 174.400,276.400 173.366,276.400 172.789 C 276.400 172.532,276.940 171.817,277.600 171.200 C 278.260 170.583,278.800 169.875,278.800 169.626 C 278.800 169.377,279.430 168.543,280.200 167.773 L 281.600 166.373 283.000 167.773 C 283.770 168.543,284.400 169.377,284.400 169.626 C 284.400 169.875,284.940 170.583,285.600 171.200 C 286.260 171.817,286.800 172.532,286.800 172.789 C 286.800 173.453,287.831 174.400,288.553 174.400 C 288.889 174.400,289.614 174.850,290.164 175.400 C 290.714 175.950,291.352 176.400,291.582 176.400 C 291.812 176.400,292.000 176.580,292.000 176.800 C 292.000 177.020,292.360 177.200,292.800 177.200 C 293.240 177.200,293.600 177.380,293.600 177.600 C 293.600 177.820,294.500 178.000,295.600 178.000 C 296.700 178.000,297.600 178.180,297.600 178.400 C 297.600 178.622,298.667 178.800,300.000 178.800 C 301.333 178.800,302.400 178.978,302.400 179.200 C 302.400 179.420,303.228 179.600,304.240 179.600 C 306.856 179.600,308.400 181.249,308.400 184.042 C 308.400 185.119,308.580 186.000,308.800 186.000 C 309.022 186.000,309.200 187.067,309.200 188.400 C 309.200 189.733,309.378 190.800,309.600 190.800 C 309.820 190.800,310.000 191.610,310.000 192.600 C 310.000 193.590,309.820 194.400,309.600 194.400 C 309.380 194.400,309.200 194.683,309.200 195.029 C 309.200 195.747,308.266 196.800,307.629 196.800 C 307.393 196.800,307.200 196.980,307.200 197.200 C 307.200 197.455,303.800 197.600,297.800 197.600 C 291.800 197.600,288.400 197.455,288.400 197.200 C 288.400 196.949,285.867 196.800,281.600 196.800 C 277.333 196.800,274.800 196.949,274.800 197.200 C 274.800 197.457,270.933 197.600,264.000 197.600 C 257.067 197.600,253.200 197.457,253.200 197.200 C 253.200 196.978,252.133 196.800,250.800 196.800 C 249.467 196.800,248.400 196.622,248.400 196.400 C 248.400 196.180,247.500 196.000,246.400 196.000 C 245.300 196.000,244.400 195.820,244.400 195.600 C 244.400 195.349,241.933 195.200,237.800 195.200 C 233.667 195.200,231.200 195.349,231.200 195.600 C 231.200 195.820,230.300 196.000,229.200 196.000 C 228.100 196.000,227.200 196.180,227.200 196.400 C 227.200 196.620,226.210 196.800,225.000 196.800 C 223.790 196.800,222.800 196.980,222.800 197.200 C 222.800 197.454,219.800 197.600,214.600 197.600 C 209.400 197.600,206.400 197.454,206.400 197.200 C 206.400 196.980,206.117 196.800,205.771 196.800 C 204.963 196.800,204.000 195.837,204.000 195.029 C 204.000 194.683,203.820 194.400,203.600 194.400 C 203.380 194.400,203.200 193.590,203.200 192.600 C 203.200 191.610,203.020 190.800,202.800 190.800 C 202.560 190.800,202.400 189.200,202.400 186.800 C 202.400 184.400,202.240 182.800,202.000 182.800 C 201.780 182.800,201.600 182.522,201.600 182.182 C 201.600 181.426,203.363 179.600,204.094 179.600 C 204.385 179.600,204.883 179.240,205.200 178.800 C 205.822 177.937,210.000 177.589,210.000 178.400 C 210.000 178.622,211.067 178.800,212.400 178.800 C 213.733 178.800,214.800 178.978,214.800 179.200 C 214.800 179.420,215.685 179.600,216.767 179.600 C 217.949 179.600,218.826 179.799,218.967 180.100 C 219.153 180.500,219.247 180.500,219.433 180.100 C 219.562 179.825,220.192 179.600,220.833 179.600 C 221.475 179.600,222.000 179.420,222.000 179.200 C 222.000 178.980,222.320 178.800,222.712 178.800 C 223.103 178.800,223.688 178.415,224.012 177.945 C 224.335 177.474,225.005 176.673,225.500 176.163 C 225.995 175.653,226.400 174.868,226.400 174.418 C 226.400 173.968,226.580 173.600,226.800 173.600 C 227.020 173.600,227.200 172.880,227.200 172.000 C 227.200 171.120,227.380 170.400,227.600 170.400 C 227.820 170.400,228.000 170.040,228.000 169.600 C 228.000 169.160,228.180 168.800,228.400 168.800 C 228.620 168.800,228.800 168.517,228.800 168.171 C 228.800 167.363,229.763 166.400,230.571 166.400 C 230.917 166.400,231.200 166.220,231.200 166.000 C 231.200 165.293,232.604 165.574,233.200 166.400 M216.400 220.800 C 216.400 221.020,215.680 221.200,214.800 221.200 C 213.920 221.200,213.200 221.380,213.200 221.600 C 213.200 221.822,212.133 222.000,210.800 222.000 C 209.467 222.000,208.400 222.178,208.400 222.400 C 208.400 222.620,207.590 222.800,206.600 222.800 C 205.610 222.800,204.800 222.980,204.800 223.200 C 204.800 223.420,204.260 223.600,203.600 223.600 C 202.940 223.600,202.400 223.760,202.400 223.955 C 202.400 224.151,201.754 224.432,200.965 224.580 C 199.411 224.872,196.000 227.901,196.000 228.989 C 196.000 229.325,195.820 229.600,195.600 229.600 C 195.380 229.600,195.200 229.878,195.200 230.218 C 195.200 231.018,193.418 232.800,192.618 232.800 C 192.278 232.800,192.000 232.980,192.000 233.200 C 192.000 233.420,191.730 233.600,191.400 233.600 C 191.070 233.600,190.800 233.780,190.800 234.000 C 190.800 234.220,190.480 234.400,190.088 234.400 C 189.697 234.400,189.117 234.760,188.800 235.200 C 188.483 235.640,187.980 236.000,187.683 236.000 C 186.987 236.000,186.000 236.987,186.000 237.683 C 186.000 237.980,185.640 238.483,185.200 238.800 C 184.760 239.117,184.400 239.697,184.400 240.088 C 184.400 240.480,184.220 240.800,184.000 240.800 C 183.780 240.800,183.600 241.070,183.600 241.400 C 183.600 241.730,183.420 242.000,183.200 242.000 C 182.980 242.000,182.800 242.360,182.800 242.800 C 182.800 243.240,182.620 243.600,182.400 243.600 C 182.180 243.600,182.000 244.062,182.000 244.626 C 182.000 245.331,181.374 246.262,180.000 247.600 C 178.900 248.671,178.000 249.830,178.000 250.174 C 178.000 250.518,177.820 250.800,177.600 250.800 C 177.380 250.800,177.200 251.160,177.200 251.600 C 177.200 252.040,177.020 252.400,176.800 252.400 C 176.580 252.400,176.400 252.940,176.400 253.600 C 176.400 254.260,176.220 254.800,176.000 254.800 C 175.117 254.800,175.501 270.152,176.400 270.800 C 176.840 271.117,177.200 271.620,177.200 271.917 C 177.200 272.576,178.174 273.600,178.800 273.600 C 179.051 273.600,179.527 273.870,179.857 274.200 C 180.187 274.530,180.971 274.800,181.600 274.800 C 182.229 274.800,183.013 274.530,183.343 274.200 C 183.673 273.870,184.149 273.600,184.400 273.600 C 185.026 273.600,186.000 272.576,186.000 271.917 C 186.000 271.620,186.360 271.117,186.800 270.800 C 187.240 270.483,187.600 269.903,187.600 269.512 C 187.600 269.120,187.780 268.800,188.000 268.800 C 188.220 268.800,188.400 268.080,188.400 267.200 C 188.400 266.320,188.580 265.600,188.800 265.600 C 189.020 265.600,189.200 265.060,189.200 264.400 C 189.200 263.740,189.380 263.200,189.600 263.200 C 189.820 263.200,190.000 262.660,190.000 262.000 C 190.000 261.340,190.180 260.800,190.400 260.800 C 190.620 260.800,190.800 260.440,190.800 260.000 C 190.800 259.560,190.972 259.200,191.182 259.200 C 191.392 259.200,191.682 258.570,191.826 257.800 C 192.055 256.584,192.241 256.400,193.245 256.400 C 193.880 256.400,194.400 256.220,194.400 256.000 C 194.400 255.767,195.733 255.600,197.600 255.600 C 199.467 255.600,200.800 255.433,200.800 255.200 C 200.800 254.980,201.160 254.800,201.600 254.800 C 202.040 254.800,202.400 254.620,202.400 254.400 C 202.400 254.180,202.760 254.000,203.200 254.000 C 203.733 254.000,204.000 253.733,204.000 253.200 C 204.000 252.760,204.180 252.400,204.400 252.400 C 204.620 252.400,204.800 252.040,204.800 251.600 C 204.800 251.160,204.980 250.800,205.200 250.800 C 205.431 250.800,205.600 249.524,205.600 247.771 C 205.600 244.536,206.042 243.600,207.571 243.600 C 208.225 243.600,208.400 243.853,208.400 244.800 C 208.400 245.460,208.580 246.000,208.800 246.000 C 209.020 246.000,209.200 246.283,209.200 246.629 C 209.200 247.437,210.163 248.400,210.971 248.400 C 211.317 248.400,211.600 248.580,211.600 248.800 C 211.600 249.020,212.140 249.200,212.800 249.200 C 213.460 249.200,214.000 249.380,214.000 249.600 C 214.000 250.442,220.166 250.079,220.800 249.200 C 221.117 248.760,221.620 248.400,221.917 248.400 C 222.576 248.400,223.600 247.426,223.600 246.800 C 223.600 246.549,223.870 246.073,224.200 245.743 C 224.530 245.413,224.800 244.796,224.800 244.371 C 224.800 243.947,224.980 243.600,225.200 243.600 C 225.420 243.600,225.600 243.240,225.600 242.800 C 225.600 242.360,225.780 242.000,226.000 242.000 C 226.220 242.000,226.400 241.730,226.400 241.400 C 226.400 241.070,226.580 240.800,226.800 240.800 C 227.020 240.800,227.200 240.440,227.200 240.000 C 227.200 239.560,227.380 239.200,227.600 239.200 C 227.820 239.200,228.000 238.840,228.000 238.400 C 228.000 237.960,228.180 237.600,228.400 237.600 C 228.620 237.600,228.800 237.240,228.800 236.800 C 228.800 236.360,228.980 236.000,229.200 236.000 C 229.420 236.000,229.600 235.460,229.600 234.800 C 229.600 234.140,229.780 233.600,230.000 233.600 C 230.220 233.600,230.400 232.700,230.400 231.600 C 230.400 230.500,230.220 229.600,230.000 229.600 C 229.780 229.600,229.600 229.280,229.600 228.888 C 229.600 228.497,229.240 227.917,228.800 227.600 C 228.360 227.283,228.000 226.743,228.000 226.400 C 228.000 226.057,227.615 225.512,227.145 225.188 C 226.674 224.865,225.873 224.195,225.363 223.700 C 224.853 223.205,224.288 222.800,224.106 222.800 C 223.925 222.800,223.517 222.440,223.200 222.000 C 222.883 221.560,222.303 221.200,221.912 221.200 C 221.520 221.200,221.200 221.020,221.200 220.800 C 221.200 220.578,220.133 220.400,218.800 220.400 C 217.467 220.400,216.400 220.578,216.400 220.800 M221.888 229.073 C 223.360 230.546,224.345 231.818,224.081 231.906 C 223.816 231.995,223.600 232.412,223.600 232.833 C 223.600 233.255,223.420 233.600,223.200 233.600 C 222.980 233.600,222.800 233.960,222.800 234.400 C 222.800 234.840,222.620 235.200,222.400 235.200 C 222.180 235.200,222.000 235.560,222.000 236.000 C 222.000 236.440,221.820 236.800,221.600 236.800 C 221.380 236.800,221.200 237.160,221.200 237.600 C 221.200 238.040,221.020 238.400,220.800 238.400 C 220.580 238.400,220.400 238.683,220.400 239.029 C 220.400 239.374,220.143 239.914,219.829 240.229 C 219.173 240.884,218.000 240.994,218.000 240.400 C 218.000 240.180,217.460 240.000,216.800 240.000 C 216.140 240.000,215.600 239.820,215.600 239.600 C 215.600 239.380,215.060 239.200,214.400 239.200 C 213.740 239.200,213.200 239.020,213.200 238.800 C 213.200 238.580,212.300 238.400,211.200 238.400 C 210.100 238.400,209.200 238.220,209.200 238.000 C 209.200 237.769,207.933 237.600,206.200 237.600 C 204.467 237.600,203.200 237.431,203.200 237.200 C 203.200 236.980,202.840 236.800,202.400 236.800 C 201.867 236.800,201.600 236.533,201.600 236.000 C 201.600 235.560,201.420 235.200,201.200 235.200 C 200.980 235.200,200.800 234.385,200.800 233.389 C 200.800 231.480,203.505 228.000,204.989 228.000 C 205.325 228.000,205.600 227.820,205.600 227.600 C 205.600 227.361,207.133 227.200,209.400 227.200 C 211.667 227.200,213.200 227.039,213.200 226.800 C 213.200 226.569,214.469 226.400,216.207 226.400 L 219.215 226.400 221.888 229.073 M197.600 238.800 C 197.600 239.020,197.960 239.200,198.400 239.200 C 198.933 239.200,199.200 239.467,199.200 240.000 C 199.200 240.440,199.380 240.800,199.600 240.800 C 199.820 240.800,200.000 241.610,200.000 242.600 C 200.000 243.590,199.820 244.400,199.600 244.400 C 199.380 244.400,199.200 244.675,199.200 245.011 C 199.200 245.804,195.804 249.200,195.011 249.200 C 194.675 249.200,194.400 249.380,194.400 249.600 C 194.400 249.820,194.040 250.000,193.600 250.000 C 193.160 250.000,192.800 249.820,192.800 249.600 C 192.800 249.380,192.614 249.200,192.387 249.200 C 191.742 249.200,189.200 246.499,189.200 245.813 C 189.200 245.476,189.020 245.200,188.800 245.200 C 188.580 245.200,188.400 244.840,188.400 244.400 C 188.400 243.960,188.580 243.600,188.800 243.600 C 189.020 243.600,189.200 243.240,189.200 242.800 C 189.200 242.360,189.372 242.000,189.582 242.000 C 190.078 242.000,192.000 240.078,192.000 239.582 C 192.000 239.372,192.360 239.200,192.800 239.200 C 193.240 239.200,193.600 239.020,193.600 238.800 C 193.600 238.580,194.500 238.400,195.600 238.400 C 196.700 238.400,197.600 238.580,197.600 238.800 " stroke="none" fill="#547478" fill-rule="evenodd"></path><path id="path4" d="M205.600 246.000 C 205.600 246.880,205.780 247.600,206.000 247.600 C 206.220 247.600,206.400 246.880,206.400 246.000 C 206.400 245.120,206.220 244.400,206.000 244.400 C 205.780 244.400,205.600 245.120,205.600 246.000 M180.860 245.842 C 180.131 246.666,180.600 247.057,181.381 246.276 C 181.721 245.936,182.000 245.554,182.000 245.429 C 182.000 245.009,181.406 245.224,180.860 245.842 M204.800 251.600 C 204.800 252.040,204.620 252.400,204.400 252.400 C 204.180 252.400,204.000 252.760,204.000 253.200 C 204.000 253.733,203.733 254.000,203.200 254.000 C 202.760 254.000,202.400 254.180,202.400 254.400 C 202.400 254.620,202.040 254.800,201.600 254.800 C 201.160 254.800,200.800 254.980,200.800 255.200 C 200.800 255.420,201.160 255.600,201.600 255.600 C 202.040 255.600,202.400 255.420,202.400 255.200 C 202.400 254.980,202.683 254.800,203.029 254.800 C 203.374 254.800,203.914 254.543,204.229 254.229 C 204.543 253.914,204.800 253.374,204.800 253.029 C 204.800 252.683,204.980 252.400,205.200 252.400 C 205.420 252.400,205.600 252.040,205.600 251.600 C 205.600 251.160,205.420 250.800,205.200 250.800 C 204.980 250.800,204.800 251.160,204.800 251.600 M194.400 256.000 C 194.400 256.220,195.120 256.400,196.000 256.400 C 196.880 256.400,197.600 256.220,197.600 256.000 C 197.600 255.780,196.880 255.600,196.000 255.600 C 195.120 255.600,194.400 255.780,194.400 256.000 " stroke="none" fill="#543c7c" fill-rule="evenodd"></path></g></svg>