<?xml version="1.0" encoding="utf-8"?>
<!-- Generator: Adobe Illustrator 23.0.0, SVG Export Plug-In . SVG Version: 6.00 Build 0)  -->
<svg version="1.1" id="Layer_1" xmlns="http://www.w3.org/2000/svg" xmlns:xlink="http://www.w3.org/1999/xlink" x="0px" y="0px"
	 viewBox="0 0 1445.67 850.39" style="enable-background:new 0 0 1445.67 850.39;" xml:space="preserve">
<style type="text/css">
	.st0{fill:#FFFFFF;}
	.st1{fill:#ED1C24;}
</style>
<g id="Layer_2">
	<g>
		<g>
			<path class="st0" d="M290.2,288.85c6.84-1.44,17.64-2.52,28.62-2.52c15.66,0,25.74,2.7,33.3,8.82
				c6.3,4.68,10.08,11.88,10.08,21.42c0,11.7-7.74,21.96-20.52,26.64v0.36c11.52,2.88,25.02,12.42,25.02,30.42
				c0,10.44-4.14,18.36-10.26,24.3c-8.46,7.74-22.14,11.34-41.94,11.34c-10.8,0-19.08-0.72-24.3-1.44V288.85z M305.86,338.53h14.22
				c16.56,0,26.28-8.64,26.28-20.34c0-14.22-10.8-19.8-26.64-19.8c-7.2,0-11.34,0.54-13.86,1.08V338.53z M305.86,396.66
				c3.06,0.54,7.56,0.72,13.14,0.72c16.2,0,31.14-5.94,31.14-23.58c0-16.56-14.22-23.4-31.32-23.4h-12.96V396.66z"/>
		</g>
		<g>
			<path class="st1" d="M491.18,359.59c-0.9-16.92-1.98-37.26-1.8-52.38h-0.54c-4.14,14.22-9.18,29.34-15.3,46.08l-21.42,58.86
				h-11.88l-19.62-57.78c-5.76-17.1-10.62-32.76-14.04-47.16h-0.36c-0.36,15.12-1.26,35.46-2.34,53.64l-3.24,52.02h-14.94
				l8.46-121.31h19.98l20.7,58.68c5.04,14.94,9.18,28.26,12.24,40.86h0.54c3.06-12.24,7.38-25.56,12.78-40.86l21.6-58.68h19.98
				l7.56,121.31h-15.3L491.18,359.59z"/>
			<path class="st1" d="M613.04,368.58c0,32.22-22.32,46.26-43.38,46.26c-23.58,0-41.76-17.28-41.76-44.82
				c0-29.16,19.08-46.26,43.2-46.26C596.12,323.77,613.04,341.95,613.04,368.58z M543.92,369.48c0,19.08,10.98,33.48,26.46,33.48
				c15.12,0,26.46-14.22,26.46-33.84c0-14.76-7.38-33.48-26.1-33.48C552.02,335.65,543.92,352.93,543.92,369.48z"/>
			<path class="st1" d="M633.02,352.93c0-10.26-0.18-19.08-0.72-27.18h13.86l0.54,17.1h0.72c3.96-11.7,13.5-19.08,24.12-19.08
				c1.8,0,3.06,0.18,4.5,0.54v14.94c-1.62-0.36-3.24-0.54-5.4-0.54c-11.16,0-19.08,8.46-21.24,20.34c-0.36,2.16-0.72,4.68-0.72,7.38
				v46.44h-15.66V352.93z"/>
			<path class="st1" d="M698.9,372.19c0.36,21.42,14.04,30.24,29.88,30.24c11.34,0,18.18-1.98,24.12-4.5l2.7,11.34
				c-5.58,2.52-15.12,5.4-28.98,5.4c-26.82,0-42.84-17.64-42.84-43.92c0-26.28,15.48-46.98,40.86-46.98c28.44,0,36,25.02,36,41.04
				c0,3.24-0.36,5.76-0.54,7.38H698.9z M745.34,360.85c0.18-10.08-4.14-25.74-21.96-25.74c-16.02,0-23.04,14.76-24.3,25.74H745.34z"
				/>
			<path class="st0" d="M778.64,393.78c7.02,4.32,17.28,7.92,28.08,7.92c16.02,0,25.38-8.46,25.38-20.7
				c0-11.34-6.48-17.82-22.86-24.12c-19.8-7.02-32.04-17.28-32.04-34.38c0-18.9,15.66-32.94,39.24-32.94
				c12.42,0,21.42,2.88,26.82,5.94l-4.32,12.78c-3.96-2.16-12.06-5.76-23.04-5.76c-16.56,0-22.86,9.9-22.86,18.18
				c0,11.34,7.38,16.92,24.12,23.4c20.52,7.92,30.96,17.82,30.96,35.64c0,18.72-13.86,34.92-42.48,34.92
				c-11.7,0-24.48-3.42-30.96-7.74L778.64,393.78z"/>
			<path class="st0" d="M917.78,412.86l-1.26-10.98h-0.54c-4.86,6.84-14.22,12.96-26.64,12.96c-17.64,0-26.64-12.42-26.64-25.02
				c0-21.06,18.72-32.58,52.38-32.4v-1.8c0-7.2-1.98-20.16-19.8-20.16c-8.1,0-16.56,2.52-22.68,6.48l-3.6-10.44
				c7.2-4.68,17.64-7.74,28.62-7.74c26.64,0,33.12,18.18,33.12,35.64v32.58c0,7.56,0.36,14.94,1.44,20.88H917.78z M915.44,368.41
				c-17.28-0.36-36.9,2.7-36.9,19.62c0,10.26,6.84,15.12,14.94,15.12c11.34,0,18.54-7.2,21.06-14.58c0.54-1.62,0.9-3.42,0.9-5.04
				V368.41z"/>
			<path class="st0" d="M957.92,412.86v-75.06h-12.24v-12.06h12.24v-4.14c0-12.24,2.7-23.4,10.08-30.42
				c5.94-5.76,13.86-8.1,21.24-8.1c5.58,0,10.44,1.26,13.5,2.52l-2.16,12.24c-2.34-1.08-5.58-1.98-10.08-1.98
				c-13.5,0-16.92,11.88-16.92,25.2v4.68h21.06v12.06h-21.06v75.06H957.92z"/>
			<path class="st0" d="M1015.34,372.19c0.36,21.42,14.04,30.24,29.88,30.24c11.34,0,18.18-1.98,24.12-4.5l2.7,11.34
				c-5.58,2.52-15.12,5.4-28.98,5.4c-26.82,0-42.84-17.64-42.84-43.92c0-26.28,15.48-46.98,40.86-46.98c28.44,0,36,25.02,36,41.04
				c0,3.24-0.36,5.76-0.54,7.38H1015.34z M1061.78,360.85c0.18-10.08-4.14-25.74-21.96-25.74c-16.02,0-23.04,14.76-24.3,25.74
				H1061.78z"/>
		</g>
	</g>
</g>
</svg>
